<svg width="198" height="57" viewBox="0 0 198 57" fill="none" xmlns="http://www.w3.org/2000/svg">
<path d="M54.4137 2.30396C45.9552 2.50795 37.4894 3.21465 29.0455 3.74649C26.5465 3.89948 24.0403 4.03062 21.5341 4.15448C21.4831 4.08891 21.3884 4.05977 21.2937 4.11076C21.2572 4.13262 21.2281 4.14719 21.1917 4.16905C15.3487 4.46047 9.49113 4.7446 3.69185 5.37116C3.364 5.40759 3.35672 5.83743 3.619 5.93214C3.55343 7.7171 3.77199 9.53848 3.88128 11.3161C3.99056 13.2177 4.10713 15.1192 4.23098 17.0207C4.4714 20.8237 4.71183 24.6268 4.95225 28.4298C5.43309 36.0432 5.88479 43.642 6.64249 51.2335C6.65706 51.3719 6.86105 51.3574 6.85377 51.2189C6.75177 47.5762 6.5842 43.9407 6.38021 40.3125C7.6406 39.5403 8.799 38.8117 10.3362 38.6587C11.8808 38.5057 13.0392 39.0594 14.4744 39.4528C14.5109 39.4601 14.5473 39.4528 14.5837 39.4528C15.6328 42.5127 16.7475 45.5435 17.986 48.516C18.0662 48.7054 18.343 48.6107 18.292 48.414C17.4178 45.2958 16.4269 42.2068 15.3997 39.1323C16.8932 37.6679 18.5033 36.4366 20.5068 35.7008C21.5122 35.3292 22.5614 35.0815 23.625 34.9795C24.4702 34.8994 25.359 35.0378 26.1823 34.8775C28.4408 37.8282 30.641 40.8735 33.1399 43.6201C33.2856 43.7804 33.5261 43.5473 33.4168 43.3797C31.3477 40.1741 28.8998 37.2016 26.5611 34.1854C27.1512 32.5316 27.5592 30.9288 28.6229 29.4644C29.1912 28.6775 29.8614 27.9563 30.6119 27.3516C31.2967 26.7979 32.1127 26.4409 32.7829 25.8872C32.8048 25.8726 32.8121 25.8508 32.8267 25.8362C36.5496 28.3206 40.3162 30.7466 44.1993 32.9396C44.3596 33.027 44.5345 32.7793 44.3815 32.67C40.797 30.0181 37.0741 27.541 33.3294 25.1004C33.6281 22.7326 34.24 20.4813 35.4786 18.405C36.1051 17.3486 36.8701 16.3723 37.7444 15.5126C38.6259 14.6383 39.6896 14.0555 40.644 13.3051C44.1921 14.1648 47.7255 15.1483 51.3027 15.8259C51.5504 15.8696 51.6014 15.5345 51.3829 15.4543C48.017 14.3178 44.5126 13.5309 41.0447 12.7222C41.0229 12.6567 40.9646 12.5984 40.899 12.5765C40.7387 11.185 40.3526 9.85904 40.4109 8.43108C40.4764 6.71898 40.9646 5.20359 41.5329 3.61535C45.8459 3.3385 50.1589 3.02522 54.4574 2.58081C54.6176 2.56623 54.6031 2.32581 54.4428 2.32581L54.4137 2.30396ZM29.0819 4.3439C30.6191 4.2419 32.1491 4.15448 33.6863 4.05976C32.5935 5.81558 32.0544 8.6715 32.5498 10.7624C30.9324 10.4127 29.315 10.063 27.6976 9.73519C27.6976 9.73519 27.6976 9.73519 27.6904 9.73519C27.5301 9.03578 27.3334 8.35822 27.3552 7.60781C27.3917 6.36928 27.9526 5.48044 28.3679 4.3949C28.6083 4.38033 28.8488 4.35847 29.0819 4.3439ZM27.7486 21.443C26.6777 20.7436 25.614 20.0442 24.5576 19.3302C23.9165 18.9004 23.268 18.4632 22.6269 18.0334C22.8601 16.4452 23.3045 14.937 24.2297 13.5892C25.1841 12.1904 26.4227 11.5129 27.7268 10.6167C27.7778 10.6313 27.8434 10.5949 27.8434 10.5366C27.8725 10.5147 27.9016 10.4929 27.9308 10.471C29.5555 10.8062 31.1728 11.1486 32.7902 11.5056C32.7975 11.5274 32.8121 11.5493 32.8194 11.5784C31.1146 12.2633 29.7813 14.4853 29.0309 16.0226C28.3023 17.5088 27.4937 19.6799 27.7486 21.443ZM6.32193 13.7349C6.5842 14.5873 6.84648 15.4325 7.10876 16.2776C7.19619 16.5544 7.28361 16.8313 7.36376 17.1154C7.00676 16.8677 6.36564 16.8677 6.01593 16.9187C5.60794 16.977 5.19996 17.1227 4.87939 17.3704C4.87211 17.2393 4.86482 17.1081 4.85754 16.977C4.79197 15.906 4.7264 14.8351 4.66083 13.7641C4.78468 13.6839 4.90854 13.6038 5.05425 13.5747C5.42581 13.5018 5.7828 13.6111 6.10336 13.8005C6.1835 13.8515 6.27821 13.8078 6.32921 13.7422L6.32193 13.7349ZM15.3924 16.1319C14.9698 16.5544 14.3141 17.5016 14.2923 18.2592C13.3816 17.079 12.4709 15.8915 11.5602 14.7112C11.3999 14.5072 11.2469 14.3032 11.0939 14.0992C11.2542 13.6839 11.4072 13.2759 11.6841 12.9044C11.9245 12.5838 12.2013 12.3215 12.5219 12.103C13.0756 12.4673 13.6293 12.8388 14.1757 13.2104C15.1301 13.8588 16.0845 14.4999 17.0389 15.1483C16.4124 15.3159 15.7858 15.7457 15.407 16.1319H15.3924ZM17.7165 15.6146C18.9914 16.4816 20.2664 17.3486 21.5487 18.2082C19.6763 18.8931 18.3285 21.3119 18.1609 23.279C17.0316 21.8073 15.8951 20.3429 14.7658 18.8712C14.7658 18.8639 14.7658 18.8567 14.7658 18.8494C14.9844 18.5944 14.9771 18.2884 15.0791 17.9605C15.2321 17.4797 15.4871 17.0353 15.8295 16.6637C16.1792 16.2922 16.6091 16.0226 17.0754 15.8259C17.2866 15.7385 17.5052 15.6875 17.7165 15.6146ZM12.8133 11.3817C12.1066 10.8863 11.3926 10.3763 10.6787 9.87361C10.6568 9.41462 10.5548 8.98478 10.6932 8.51122C10.8171 8.07409 11.0721 7.7171 11.3708 7.39653C12.4053 7.5641 13.4326 7.73167 14.4671 7.90652C14.0737 8.26351 13.7459 8.75164 13.52 9.13049C13.1485 9.76433 12.8352 10.5876 12.8716 11.3599C12.8498 11.3671 12.8279 11.3744 12.8133 11.3817ZM12.0921 11.8188C11.4728 12.2851 10.9409 12.9627 10.7734 13.6839C10.1323 12.8388 9.48384 11.9864 8.83543 11.134C8.94471 10.981 9.04671 10.8207 9.18514 10.7042C9.4037 10.522 9.63684 10.4346 9.88455 10.3545C10.6204 10.8426 11.3562 11.3307 12.0848 11.8188H12.0921ZM8.85 10.2743C8.72615 10.369 8.58044 10.5075 8.46387 10.6532C7.6916 9.65505 6.91205 8.66422 6.10336 7.70981C7.14519 8.49665 8.23073 9.24706 9.32356 9.99018C9.14871 10.0703 8.98843 10.1723 8.85 10.2816V10.2743ZM10.4237 14.4052C9.42556 14.6748 8.43473 15.345 7.87374 16.2412C7.48032 14.9953 7.09419 13.7349 6.70077 12.4818C6.75906 12.3798 6.84648 12.2851 6.96305 12.1904C7.32004 11.9136 7.80089 11.7678 8.22345 11.593C8.952 12.5328 9.68784 13.4727 10.4164 14.4052H10.4237ZM4.91582 17.9241C5.30924 17.6473 5.70266 17.4287 6.20536 17.4068C6.64977 17.385 7.07233 17.6837 7.49489 17.589C7.49489 17.589 7.50947 17.589 7.50947 17.5817C7.97574 19.1044 8.44201 20.6198 8.91557 22.1351C8.09231 21.9093 7.09419 21.9603 6.35107 22.2444C5.95036 22.3974 5.51323 22.6597 5.22181 23.0167C5.11982 21.3192 5.01782 19.6216 4.91582 17.9314V17.9241ZM8.06317 16.824C8.74072 15.8477 9.53484 15.1556 10.7661 14.8423C10.9409 15.0682 11.1158 15.294 11.2907 15.5199C12.0629 16.5253 12.8352 17.5307 13.6074 18.5361C12.7186 18.5361 11.8079 18.8858 11.1012 19.4104C10.4965 19.8621 9.79712 20.6125 9.52027 21.4212C9.03214 19.8912 8.54401 18.3612 8.05588 16.8313L8.06317 16.824ZM11.3562 20.0588C12.1722 19.4104 13.0829 19.2501 14.0519 19.1189C15.3195 20.7582 16.5799 22.4047 17.8403 24.044C15.509 23.4903 12.4709 24.4884 11.1959 26.6376C10.7297 25.2023 10.2707 23.7598 9.81169 22.3173C10.3362 21.5377 10.5621 20.6853 11.3562 20.0515V20.0588ZM12.3033 32.5972C10.1468 31.854 7.11605 32.7866 6.03779 34.812C5.91394 32.8813 5.79008 30.9579 5.66623 29.0272C6.34378 28.3351 6.8902 27.6503 7.88103 27.3516C8.89372 27.0456 9.70241 27.3953 10.6641 27.4827C11.2105 29.1802 11.7569 30.8923 12.3106 32.5972H12.3033ZM11.3562 27.1184C12.0629 26.3972 12.7332 25.6978 13.6657 25.2315C14.9771 24.5685 16.2885 24.4884 17.7311 24.6195C17.935 24.6341 18.0589 24.4884 18.0735 24.3354C18.2556 24.5685 18.4377 24.8089 18.6199 25.0421C19.5233 26.215 20.4194 27.3807 21.3228 28.5464C19.7127 28.102 17.8768 28.3716 16.4197 29.1074C15.1884 29.7339 13.6512 31.0308 13.1485 32.4733C12.5438 30.6883 11.9463 28.9034 11.3635 27.1112L11.3562 27.1184ZM18.8894 24.2261C18.7802 24.0804 18.6636 23.9347 18.5543 23.789C18.751 22.7107 19.0716 21.698 19.72 20.7728C20.4048 19.7965 21.3155 19.3229 22.1898 18.6381C22.7216 18.9951 23.2608 19.3594 23.7926 19.7163C24.7397 20.3502 25.6796 20.9913 26.6267 21.6252C25.4246 21.9821 24.1496 23.3154 23.574 24.1022C22.7289 25.2533 22.0878 26.9144 22.1461 28.4371C21.0678 27.031 19.9823 25.6249 18.904 24.2261H18.8894ZM20.8638 6.6607C20.9221 6.02686 21.2281 5.48044 21.4248 4.91217C23.5012 4.75189 25.5848 4.59161 27.6539 4.4459C26.6485 5.72086 26.379 8.03766 27.0274 9.60405C25.0384 9.19606 23.0495 8.80264 21.0532 8.42379C20.9221 7.84824 20.8055 7.28725 20.8638 6.6607ZM21.199 9.13777C23.0932 9.50205 24.9947 9.87361 26.889 10.2597C25.5848 10.8499 24.4337 12.0811 23.6833 13.174C22.7581 14.5291 22.1825 16.1173 22.2044 17.7565C20.8274 16.8313 19.4504 15.906 18.0808 14.9735C18.1536 13.8879 18.3358 12.8752 18.8603 11.8917C19.4067 10.8572 20.3247 10.2889 20.9658 9.3782C21.0824 9.36362 21.1844 9.26163 21.199 9.13777ZM15.2613 6.12885C15.2613 5.89572 15.305 5.62615 15.3705 5.36387C17.1045 5.24002 18.8312 5.10888 20.5578 4.97046C20.3247 5.48044 20.2154 6.09243 20.1717 6.5587C20.1207 7.09783 20.1353 7.70981 20.281 8.2708C18.7656 7.98666 17.2575 7.70981 15.7421 7.44025C15.7275 7.44025 15.713 7.44025 15.6984 7.43296C15.458 7.01769 15.254 6.63884 15.254 6.12157L15.2613 6.12885ZM16.1064 8.19066C17.5999 8.46022 19.0934 8.73707 20.587 9.02121C20.6088 9.05763 20.6307 9.08678 20.6525 9.11592C19.6326 9.46562 18.8093 10.726 18.3503 11.6221C17.8768 12.5328 17.5853 13.5819 17.5781 14.6165C16.4634 13.8661 15.356 13.1084 14.2413 12.358C13.9207 12.1394 13.6002 11.9208 13.2796 11.695C13.2796 11.6731 13.2942 11.644 13.3015 11.6221C13.316 11.593 13.3306 11.5566 13.3306 11.5201C13.52 10.7843 13.6293 10.0703 14.0446 9.38548C14.3724 8.83907 14.897 8.48936 15.3123 8.05223C15.5818 8.09594 15.8441 8.14694 16.1137 8.19066H16.1064ZM11.8589 6.51499C11.8298 6.158 11.9391 5.88115 12.0629 5.58244C12.9809 5.52416 13.8916 5.46587 14.8096 5.4003C14.744 5.6043 14.7076 5.82286 14.7003 6.07786C14.7003 6.47856 14.7804 6.93026 14.9844 7.30182C13.9499 7.11968 12.908 6.93026 11.8662 6.74812C11.8662 6.65341 11.8589 6.5587 11.8516 6.5077L11.8589 6.51499ZM11.5821 5.61158C11.5311 5.73544 11.4874 5.86657 11.4655 5.99043C11.4364 6.14342 11.3926 6.43485 11.4291 6.67527C9.57855 6.36199 7.72075 6.07057 5.85565 5.88843C7.76446 5.82286 9.67327 5.72815 11.5894 5.61158H11.5821ZM10.8535 7.31639C10.5548 7.60053 10.3362 7.97938 10.2124 8.38008C10.1104 8.69336 10.0521 9.09406 10.0885 9.46562C8.47844 8.33637 6.85377 7.23625 5.1781 6.25999C7.05048 6.67527 8.952 7.00312 10.8462 7.32368L10.8535 7.31639ZM8.00488 11.3016C7.47304 11.4181 6.92662 11.5493 6.52592 11.9208C5.97951 10.1942 5.41124 8.48208 4.75554 6.80641C5.76094 8.34365 6.86834 9.83718 7.9976 11.3016H8.00488ZM4.13627 6.14342C4.18727 6.18714 4.23827 6.23085 4.28927 6.26728C4.74825 8.48208 5.38209 10.675 6.04508 12.8534C6.02322 13.0137 6.04508 13.1667 6.09608 13.3051C5.80465 13.072 5.41852 12.9845 5.0251 13.0282C4.91582 13.0428 4.76282 13.0792 4.60983 13.1375C4.5734 12.6057 4.54426 12.0666 4.50783 11.5347C4.38398 9.74976 4.37669 7.90652 4.10713 6.12885C4.10713 6.12885 4.1217 6.13614 4.12898 6.14342H4.13627ZM5.52052 28.51V28.3861C5.41852 26.9144 5.35295 25.4428 5.26553 23.9784C5.81922 23.4101 6.1835 22.9074 7.02862 22.7253C7.71346 22.5723 8.40558 22.7253 9.08314 22.6816C9.52027 24.0658 9.94283 25.4501 10.3872 26.827C8.87186 25.9746 6.52592 26.9654 5.52052 28.51ZM6.34378 39.8171C6.27093 38.5057 6.1835 37.2016 6.10336 35.8902C6.93391 34.9868 7.55318 34.0615 8.74072 33.5224C10.0084 32.9396 11.2251 33.0416 12.5219 33.2528C13.1266 35.1252 13.7386 37.0049 14.3724 38.87C12.1649 37.289 8.20888 37.8646 6.34378 39.8171ZM19.8949 35.1617C18.0953 35.9048 16.4124 37.0486 15.2103 38.6004C14.6201 36.8446 14.0227 35.0888 13.4253 33.333C13.8479 32.7793 14.1029 32.1236 14.54 31.5699C15.0718 30.8996 15.7348 30.3241 16.4779 29.9015C18.241 28.8815 20.0624 28.9763 21.9421 29.377C23.1952 31.0016 24.441 32.6263 25.6941 34.251C23.9092 33.7847 21.4102 34.5351 19.8876 35.1689L19.8949 35.1617ZM27.9891 29.1438C27.1148 30.4115 26.2697 32.0799 26.1823 33.6973C25.0676 32.2547 23.9602 30.8122 22.8455 29.3624C23.0058 27.5483 23.0713 26.0183 24.2662 24.4592C24.7689 23.8035 25.3808 23.2571 26.073 22.8054C26.4955 22.5358 26.9691 22.3974 27.3479 22.1206C28.9945 23.2425 30.6483 24.3645 32.3021 25.4719C30.5827 25.9673 28.9508 27.7523 27.9891 29.1438ZM35.0414 17.742C33.7373 19.8329 32.8849 22.3173 32.8995 24.7944C31.3768 23.8035 29.8469 22.8127 28.3242 21.8146C28.5282 20.9913 28.5063 20.1098 28.6812 19.2719C28.9143 18.1937 29.2932 17.1518 29.7959 16.1756C30.2694 15.2576 30.8523 14.3979 31.5298 13.6111C32.069 12.9918 32.7465 12.4818 33.2055 11.797C33.2419 11.7751 33.2638 11.7387 33.2784 11.6877C33.2784 11.6877 33.2856 11.6804 33.2856 11.6731C33.3002 11.6513 33.3075 11.6294 33.3075 11.6003C35.3547 12.052 37.4092 12.511 39.4492 12.9845C39.4929 12.9918 39.5366 13.0064 39.5803 13.0137C37.7152 14.0409 36.0687 16.0882 35.0414 17.7274V17.742ZM40.3307 12.5328C40.083 12.4745 39.828 12.4163 39.5803 12.358C37.4821 11.8626 35.3839 11.3817 33.2784 10.9227C33.2346 9.75704 33.0525 8.62779 33.1982 7.42568C33.3439 6.25271 33.7373 5.16717 34.036 4.03791C36.28 3.90677 38.5312 3.76834 40.7824 3.62992C39.4565 6.09243 39.0048 10.0266 40.3235 12.5328H40.3307Z" fill="white"/>
<path d="M39.5221 12.9262C39.5221 12.9262 40.9719 10.5147 39.0048 9.42189C39.0048 9.42189 36.0177 7.86279 33.1764 7.95022C33.1764 7.95022 34.1453 3.26563 40.0393 1.57539C40.0393 1.57539 34.7063 0.460702 29.825 1.33496C29.825 1.33496 25.308 2.64636 22.6852 5.26915C22.6852 5.26915 18.6782 10.369 18.5325 12.2632L39.5221 12.9262Z" fill="#686868" stroke="#141414" stroke-width="1.01997" stroke-miterlimit="10"/>
<path d="M39.5147 11.9717L31.4278 10.0046H24.3827L18.5324 12.1174L16.7839 12.9917L12.0483 15.7602L9.73148 17.9021L8.29623 20.9256L5.81187 23.0093L3.10165 25.8069L1.11999 27.3442L0.682861 28.3642L1.19285 29.2384L3.3785 30.4041L6.00129 31.3512H10.97L15.6182 30.7684L21.8837 28.1456L25.4099 25.4427L27.275 22.1715L28.2221 20.5686L29.0891 20.6779L29.3878 21.5158L29.8978 23.2643L29.6792 26.1056L28.3678 28.7867L27.0564 30.5498L25.2351 31.6426L23.3408 32.5898L22.3937 33.2455L23.0494 33.6097H24.5065L27.8579 32.6626L30.6992 30.8412L32.4477 29.6027L35.2891 28.8741L36.972 29.3987L38.0576 29.8213L38.5676 31.2784L38.349 33.8283L37.5476 35.4311L36.4548 36.5968V37.4711L37.1105 38.2725L37.839 38.5639L39.5147 38.3599L41.2996 38.083L42.2103 38.1268L45.7802 34.2654L48.1116 29.7484L49.0587 26.9799L49.3501 23.7743L49.2044 21.1515L48.403 19.403L49.7873 16.1245L50.1516 11.9717L49.3501 10.6603L47.6745 12.336L43.8132 14.9588L41.4089 13.2103L39.5147 11.9717Z" fill="#72939B"/>
<path d="M37.4894 20.8456L39.7333 21.953L41.409 23.9201L42.3998 25.8872L42.5747 28V30.3605C42.5747 30.3605 48.4614 28.8742 47.3758 20.7873L49.7873 16.2703L49.4231 13.3269L49.3502 10.8062C49.3502 10.8062 47.1791 17.0936 43.6384 18.9732C43.6384 18.9732 29.6793 8.94106 16.4197 15.5199C16.4197 15.5199 25.8908 13.1521 28.3679 15.7676C28.3679 15.7676 22.1752 15.3232 19.9167 16.3431C19.9167 16.3431 17.4396 17.2174 15.1811 19.2574C12.9226 21.2973 10.7369 23.7015 8.18701 23.3372C8.18701 23.3372 8.47843 25.0858 11.3926 24.4301C14.3068 23.7744 14.0956 22.9657 14.0956 22.9657L15.9461 21.7709L16.4197 22.3173L18.3722 22.1424L21.046 20.8456L21.9712 20.5833L23.472 20.7436L24.6669 20.4158L26.2478 19.4468L27.4645 18.1645L28.8633 17.5817L30.1383 18.1645L31.1655 19.2209C31.1655 19.2209 31.8941 20.9767 37.4894 20.8456Z" fill="#608189"/>
<path d="M21.6651 17.7273L20.7981 17.9459L19.0423 18.6016L17.3667 20.3501L15.844 22.39L18.7509 22.2443L21.0459 20.8455L21.9128 18.791L21.6651 17.7273Z" fill="#282828"/>
<path d="M36.3745 18.2883C36.3745 18.2883 33.6133 17.363 32.6662 17.363C32.6662 17.363 29.9706 15.1337 28.987 15.3012L30.5534 16.5616L31.9377 17.7273C31.9377 17.7273 29.7229 16.0516 28.0618 16.5616C28.0618 16.5616 27.1292 16.853 26.4007 17.8002C26.4007 17.8002 24.2879 20.1315 23.0493 19.403C21.8108 18.6744 24.1349 17.4213 24.1349 17.4213L25.4098 16.5616C25.4098 16.5616 22.6705 16.1973 20.9657 16.5616C20.9657 16.5616 16.5652 17.2902 16.2009 21.0058L18.2117 18.6453L21.6286 17.414L21.9492 18.1499L21.6286 19.9567L21.9711 20.5832L22.8162 20.7289L24.4846 20.5832L25.8834 19.7818L26.8524 18.8347L27.6246 18.0406L28.1565 17.5816L29.0453 17.6472L29.9123 17.873L31.1435 19.1116C31.1435 19.1116 32.3092 21.1515 37.1905 20.7144L36.3745 18.2883Z" fill="#495C60"/>
<path d="M42.5746 26.5428C42.5746 26.5428 43.5217 20.933 38.349 19.913C38.349 19.913 34.7791 14.886 33.1763 14.886L36.36 18.8056L37.4893 20.8455L39.2743 21.5012L40.9208 23.0895L42.1302 25.2314L42.5746 26.5428Z" fill="#495C60"/>
<path d="M49.0442 11.3889C49.0442 11.3889 47.9951 18.4122 45.6492 20.5832C45.6492 20.5832 47.4341 22.9365 47.3467 24.43C47.3103 25.0857 48.1117 19.7673 48.1117 19.7673L49.4741 16.9988L50.0205 14.0627L49.0442 11.3889Z" fill="#495C60"/>
<path d="M0.682861 27.4534C0.682861 27.4534 4.69718 29.9669 10.8826 24.7578L13.0682 23.9928L15.2539 22.3171H17.6581L20.4995 21.2972L21.738 20.5686L23.0931 20.8455L24.9436 20.4229L26.4736 19.1844L28.1493 17.5815L29.7521 17.7273L30.9906 19.1115C30.9906 19.1115 31.8285 19.9858 33.7373 20.4593C35.6534 20.9329 37.4893 20.8455 37.4893 20.8455L39.7333 21.9529L41.4089 23.9199L42.5746 26.5427V30.3604L41.6275 32.2254L40.0247 35.3582L37.1105 38.4181L36.0905 36.9537L36.6005 36.1596L37.8317 34.9794L38.4874 32.1817L38.5603 30.5498L37.9774 29.6755L36.7389 29.0198H35.2818L32.1782 29.9378L28.3678 32.4804L23.5594 33.974L22.6851 33.5368L23.0494 32.6626L25.2351 31.7883L27.5082 29.9742C27.5082 29.9742 29.009 27.7448 29.0163 27.6137C29.0163 27.4899 29.7011 24.9836 29.7011 24.9836L29.3878 21.6614L29.0891 20.8236L28.2221 20.7143L27.8651 21.3627L26.408 24.0511L24.3754 26.4626L20.3829 28.8522L16.15 30.6226L9.49834 31.7883L3.9322 30.7028L1.19285 29.3841L0.682861 27.4534Z" fill="#BEE8F1"/>
<path d="M43.5291 14.3396C42.8442 13.8078 39.7843 11.4764 38.6696 11.3161C38.655 11.3161 38.6332 11.3089 38.6186 11.3016C38.1451 11.134 30.6628 8.50394 24.8781 9.48748H24.8635C24.6304 9.54577 19.465 10.7479 17.7456 11.8553C17.7456 11.8553 13.4326 14.5145 12.3397 15.1702C12.3397 15.1702 12.3252 15.1775 12.296 15.1993C10.6058 16.2484 9.26525 17.7711 8.4347 19.5852C8.36913 19.7309 8.31084 19.8621 8.25985 19.9786C7.89557 20.8529 7.16702 21.8 6.94845 21.9457C6.76631 22.0696 6.05962 22.7107 5.62977 22.9511C5.40392 23.075 5.18536 23.2134 4.97408 23.3591C4.28924 23.8618 3.02884 24.7944 2.86856 24.9984C2.64999 25.2898 1.26575 26.4555 1.12004 26.5283C0.974325 26.6012 -0.191358 27.2787 0.0272074 28.0291C0.0272074 28.0291 0.610049 30.4625 3.08713 30.9725C5.5642 31.4825 5.27278 31.9196 9.49838 31.7739C9.49838 31.7739 16.6382 31.5553 19.4067 29.9525C22.0441 28.4226 24.1496 26.9654 24.3463 26.827C24.3536 26.8197 24.3681 26.8125 24.3754 26.8052C24.5721 26.623 26.9982 24.3499 27.5665 22.6014C27.5665 22.5941 27.5738 22.5868 27.5738 22.5796C27.632 22.4411 28.3096 20.9185 28.5865 20.984C28.8779 21.0569 29.0964 21.6397 29.0964 21.7126C29.0964 21.7854 30.1893 24.7725 29.4607 26.2296C28.7322 27.6867 28.4407 29.2094 26.3425 30.5208C26.3352 30.5208 26.3279 30.5354 26.3207 30.5354C26.1531 30.6956 20.7909 33.537 20.9367 33.027C20.9731 32.8886 20.8638 33.8284 20.9367 33.9741C21.0969 34.2874 20.6452 33.6973 21.8838 33.8284C21.9202 33.8284 22.5832 34.1708 22.6123 34.1927C22.7799 34.3238 24.39 34.6225 28.142 33.027C28.1493 33.027 28.1493 33.027 28.1566 33.027C28.2805 32.9687 30.2985 31.9779 31.2821 30.9142C32.2584 29.8724 34.5533 29.428 34.7646 29.3842C34.7646 29.3842 34.7864 29.3842 34.7937 29.3842C34.9831 29.3697 36.9211 29.2677 37.5476 29.8214C37.5476 29.8214 38.6259 30.7539 38.1451 32.262C38.1451 32.2839 38.1305 32.313 38.1305 32.3349C38.1305 32.6336 38.0431 34.6881 36.8992 35.7226C36.8482 35.7736 36.8191 35.8392 36.8191 35.9121V36.0505C36.8191 36.2982 37.1324 36.4075 37.2854 36.2181C37.8609 35.5186 38.7789 34.1708 38.9319 32.5899V32.5753C38.9538 32.4514 39.2597 30.5135 38.2106 29.3114L38.1888 29.2895C38.0649 29.173 36.9065 28.1676 34.7209 28.6411C34.7209 28.6411 34.699 28.6411 34.6917 28.6411C34.4877 28.6557 32.3166 28.8597 30.8595 30.3751L30.8304 30.4042C30.5681 30.5936 27.4791 32.8449 26.2114 32.9396C26.1968 32.9396 26.1822 32.9396 26.1677 32.9396C26.0001 32.9833 24.2589 33.6754 23.421 33.7337C23.1369 33.7556 22.3428 32.8959 24.0039 32.4952C24.9728 32.262 26.2769 31.5845 26.9909 30.9652C28.0182 30.0691 28.856 28.8524 28.9507 28.7213C28.9507 28.7213 28.9507 28.7067 28.9653 28.6994C29.0746 28.4881 30.4515 25.7998 30.2767 24.6632C30.2767 24.6414 30.2767 24.6195 30.2767 24.6049C30.2985 24.3354 30.4224 22.2736 29.4899 20.5833C29.4899 20.5688 29.468 20.5469 29.4534 20.5323C29.3369 20.4012 28.7467 19.8111 28.1639 20.2628C28.1639 20.2628 27.4353 20.627 26.4518 22.9948C25.4974 25.2825 23.0203 26.8562 22.8527 26.9582C22.8455 26.9654 22.8382 26.9654 22.8382 26.9727C22.6269 27.133 18.4231 30.2366 15.6547 30.3896C15.6401 30.3896 15.6328 30.3896 15.6182 30.3896C15.2758 30.4625 9.51296 31.5918 4.85022 30.6082C4.85022 30.6082 1.58631 29.8287 1.22203 28.6848C1.21475 28.6557 1.20018 28.6338 1.1856 28.6047C1.08361 28.459 0.69019 27.8543 1.13461 27.4754C1.63002 27.0529 3.85211 25.3845 3.96867 25.2971C3.97596 25.2971 3.97596 25.2898 3.97596 25.2898C4.08524 25.2024 5.80463 23.7525 6.30004 23.4757C6.30004 23.4757 7.97571 22.5286 8.55855 21.0715C9.14139 19.6144 10.3799 17.5744 10.6714 17.3558C10.8826 17.1956 17.884 11.6003 26.3935 10.3617H26.4226C26.7359 10.3472 32.4988 10.1068 36.4621 11.4546C40.2651 12.7441 42.9244 14.6675 43.8059 15.7457C43.9006 15.8623 44.0755 15.8769 44.1848 15.7822L44.3596 15.6292C44.4689 15.5345 44.4835 15.3742 44.3887 15.2649C44.2868 15.141 44.3159 14.9516 44.4616 14.8715L48.8183 12.3361C48.9568 12.256 49.1389 12.3143 49.1972 12.4673C49.423 13.0574 49.831 14.4999 49.219 16.1173C48.7819 17.2757 48.0024 19.2428 47.3904 20.78C47.2738 21.0715 47.6745 21.2827 47.8494 21.0277L48.0752 20.6926C48.2064 20.5032 48.5051 20.5615 48.5488 20.7873C48.8548 22.2371 49.4668 26.0475 48.1991 28.714C48.1991 28.714 48.1991 28.7285 48.1991 28.7358C48.1189 28.9617 46.7638 32.7137 45.0007 34.4841L41.3215 38.2289C41.2195 38.3309 41.2195 38.4984 41.3215 38.6004L41.5328 38.8117C41.6348 38.9137 41.8024 38.9137 41.9044 38.8117C42.7641 37.9447 46.3413 34.302 47.1062 33.027C47.9732 31.5772 50.545 26.3826 49.8747 24.1751C49.8747 24.146 49.8602 24.1241 49.8602 24.095C49.8602 23.7525 49.8602 21.3046 48.9058 19.3011C48.8693 19.2282 48.8693 19.1408 48.9058 19.0679C49.2409 18.3831 50.9457 14.7695 50.8146 13.0282C50.8146 13.0282 50.7563 9.80805 49.576 8.52579C49.423 8.36551 49.1535 8.44565 49.1243 8.66422C48.9786 9.61862 48.1626 11.8553 43.835 14.3542C43.7331 14.4052 43.6238 14.3979 43.5363 14.3324L43.5291 14.3396Z" fill="#141414"/>
<path d="M31.231 16.9404C31.231 16.9404 34.0505 18.383 34.1962 20.1315C34.3419 21.8727 34.5823 23.6577 32.7099 25.0638L33.3219 23.4828L33.4676 21.5886L33.1033 19.5486L32.8119 18.383L31.231 16.9404Z" fill="#CA51F2"/>
<path d="M36.7462 18.8201C36.7462 18.8201 35.872 17.363 35.0706 17.2173C35.0706 17.2173 37.6933 21.2826 36.5277 24.8962L37.0668 24.3134L37.6205 22.4629L36.7462 18.8201Z" fill="#CA51F2"/>
<path d="M30.8449 18.3829C30.8449 18.3829 29.7521 17.2173 29.0964 17.2173C29.0964 17.2173 27.785 16.9258 26.9836 17.8001C26.9836 17.8001 25.6722 19.9129 24.9436 20.1315C24.9436 20.1315 23.8508 20.9329 22.1023 20.35L21.9566 19.7672C21.9566 19.7672 22.5394 18.0915 22.1023 17.363C22.1023 17.363 22.9765 17.2173 23.4137 17.2173C23.4137 17.2173 22.4666 16.7801 21.3009 16.9987C21.3009 16.9987 19.7709 17.363 18.9695 17.873C18.9695 17.873 17.6581 18.8929 17.0753 19.5486C16.4924 20.2043 15.2539 21.6614 15.2539 21.6614C15.2539 21.6614 13.4325 23.6285 12.8497 23.7742C12.8497 23.7742 11.684 24.7214 9.64404 24.5756C9.64404 24.5756 10.9482 24.9691 11.9026 24.5902C11.9026 24.5902 12.194 24.5756 13.6511 23.9928C13.6511 23.9928 14.9406 24.7869 15.8659 24.7578C15.8659 24.7578 18.0224 24.7214 18.5324 23.3371C18.5324 23.3371 17.3667 24.1385 16.1282 23.9928C16.1282 23.9928 14.4525 23.7014 14.4525 23.3371L15.3996 22.6085C15.3996 22.6085 17.221 23.0457 18.241 22.7543C19.2609 22.4628 20.3538 22.2151 21.5559 20.8455C21.5559 20.8455 21.6652 21.88 21.3737 22.39C21.3737 22.39 21.0823 23.1185 20.5723 23.4828C20.5723 23.4828 21.6652 22.9 22.0294 21.8071C22.0294 21.8071 22.1679 21.1223 22.1751 20.8455C22.1751 20.8455 23.778 21.0494 24.3608 20.8455C24.3608 20.8455 25.8179 20.4957 26.8379 19.2572C27.8578 18.0187 28.1493 18.0187 28.1493 18.0187C28.1493 18.0187 29.1692 17.7273 29.8249 18.1644C29.8249 18.1644 30.7721 18.9658 30.9906 19.5486C30.9906 19.5486 31.7192 21.2972 31.7192 21.5157V21.2972C31.7192 21.2972 31.792 19.3301 30.8449 18.3829ZM20.3319 20.8455C20.3319 20.8455 19.2609 22.0986 16.4196 21.9529C16.4196 21.9529 17.8767 20.1315 18.0224 19.9129C18.1681 19.6943 18.9695 18.6744 19.9166 18.3829C20.8637 18.0915 21.3009 18.0915 21.3009 17.9458C21.3009 17.9458 21.3737 20.0586 20.3319 20.8455Z" fill="#141414"/>
<path d="M30.5535 16.5615C30.5535 16.5615 32.5934 18.6015 32.8848 19.33C32.8848 19.33 33.9048 21.9528 32.7391 23.9928C32.7391 23.9928 31.8649 26.5427 31.1363 26.9798C31.1363 26.9798 33.4677 25.377 33.6134 22.9728C33.6134 22.9728 34.4148 20.2771 32.812 18.3829C32.812 18.3829 31.4277 16.8529 30.5535 16.5615Z" fill="#141414"/>
<path d="M36.0906 18.1643C36.0906 18.1643 38.5677 23.4099 36.2363 25.1584C36.2363 25.1584 38.0577 24.4299 37.8391 21.2971C37.8391 21.2971 39.5148 22.0256 40.2433 22.7542C40.2433 22.7542 42.2104 25.1584 42.2104 26.4698C42.2104 26.4698 42.8661 29.0926 41.919 30.9868C41.919 30.9868 40.6076 34.6296 39.4419 35.6496L37.9848 37.4709C37.9848 37.4709 41.0447 35.2853 41.9918 32.8082C42.939 30.3311 43.0847 28.5097 42.8661 27.2712C42.8661 27.2712 42.2833 23.847 40.6805 22.5356C40.6805 22.5356 38.3491 20.4957 37.5477 20.2043C37.5477 20.2043 37.2563 18.5286 36.0906 18.1643Z" fill="#141414"/>
<path d="M19.4066 20.7871C19.8492 20.7871 20.208 20.4283 20.208 19.9857C20.208 19.5431 19.8492 19.1843 19.4066 19.1843C18.964 19.1843 18.6052 19.5431 18.6052 19.9857C18.6052 20.4283 18.964 20.7871 19.4066 20.7871Z" fill="#CA51F2"/>
<path d="M31.7191 1.04346L32.5934 3.0834L25.4172 5.58234L24.9436 3.44768L31.7191 1.04346Z" fill="#3F3F3F" stroke="#141414" stroke-width="0.582842" stroke-miterlimit="10"/>
<path d="M38.0577 1.77197C38.0577 1.77197 34.2692 3.81192 33.2493 6.36185C33.2493 6.36185 32.6664 7.76067 32.5936 8.44551C32.5936 8.44551 31.865 6.72613 32.0107 6.50756C32.0107 6.50756 25.5995 7.45468 23.4138 8.69322C23.4138 8.69322 37.2563 1.91768 38.0577 1.77197Z" fill="#828282"/>
<path d="M23.086 9.13043C23.3877 9.13043 23.6324 8.88579 23.6324 8.58401C23.6324 8.28224 23.3877 8.0376 23.086 8.0376C22.7842 8.0376 22.5396 8.28224 22.5396 8.58401C22.5396 8.88579 22.7842 9.13043 23.086 9.13043Z" fill="#CA51F2" stroke="#141414" stroke-width="0.14571" stroke-miterlimit="10"/>
<path d="M30.7356 8.76617C31.0374 8.76617 31.282 8.52153 31.282 8.21975C31.282 7.91798 31.0374 7.67334 30.7356 7.67334C30.4338 7.67334 30.1892 7.91798 30.1892 8.21975C30.1892 8.52153 30.4338 8.76617 30.7356 8.76617Z" fill="#CA51F2" stroke="#141414" stroke-width="0.14571" stroke-miterlimit="10"/>
<path d="M26.6558 8.76617C26.9576 8.76617 27.2022 8.52153 27.2022 8.21975C27.2022 7.91798 26.9576 7.67334 26.6558 7.67334C26.354 7.67334 26.1094 7.91798 26.1094 8.21975C26.1094 8.52153 26.354 8.76617 26.6558 8.76617Z" fill="#CA51F2" stroke="#141414" stroke-width="0.14571" stroke-miterlimit="10"/>
<path d="M42.0646 39.2197L40.9718 37.8354C40.9718 37.8354 37.4019 37.2016 36.819 35.912C36.819 35.912 36.6077 35.6498 33.475 37.4711C33.475 37.4711 32.2292 38.6368 29.6792 37.6897C29.6792 37.6897 25.3079 35.7955 22.758 36.2326C22.758 36.2326 20.0405 36.4876 18.5907 37.5586C18.5907 37.5586 15.8367 40.1668 16.711 40.4582C16.711 40.4582 17.1481 40.8225 18.3138 40.3125C19.4795 39.8025 21.993 40.5821 21.993 40.5821C21.993 40.5821 26.3279 41.9882 27.2021 43.4453C27.2021 43.4453 29.2421 46.0316 28.3678 49.2591C28.3678 49.2591 27.6393 51.8236 24.6522 52.6979C24.6522 52.6979 22.9765 53.2079 24.0694 53.8636C24.0694 53.8636 25.0893 54.3736 30.9906 52.1879C36.8919 50.0022 37.1833 47.3649 37.1833 47.3649C37.1833 47.3649 38.349 45.1792 37.1833 42.0173L42.0646 39.2197Z" fill="#686868" stroke="#141414" stroke-width="1.01997" stroke-miterlimit="10"/>
<path d="M29.6502 38.1195L29.1475 40.2833L21.8838 38.0612L22.7581 36.0649L29.6502 38.1195Z" fill="#3F3F3F" stroke="#141414" stroke-width="0.582842" stroke-miterlimit="10"/>
<path d="M34.0505 45.2666L32.0106 47.8894L31.231 45.2666L31.0635 46.3594L31.2092 49.2736H31.6463L33.1034 48.3994L34.0505 46.9277L34.4877 45.8494L34.0505 45.2666Z" fill="#828282"/>
<path d="M31.231 45.2666H30.0361C30.0361 45.2666 30.9177 49.0551 30.1891 50.1479C30.1891 50.1479 34.4876 49.7836 35.0704 45.2666H34.0505C34.0505 45.2666 34.1962 47.6708 31.5734 48.9094L31.231 45.2666Z" fill="#141414"/>
<path d="M32.7757 39.5474L31.7922 42.9351L23.4138 39.8752L30.8013 41.2449L32.7757 39.5474Z" fill="#828282"/>
<path d="M23.8145 38.054C24.1163 38.054 24.3609 37.8094 24.3609 37.5076C24.3609 37.2058 24.1163 36.9612 23.8145 36.9612C23.5127 36.9612 23.2681 37.2058 23.2681 37.5076C23.2681 37.8094 23.5127 38.054 23.8145 38.054Z" fill="#CA51F2" stroke="#141414" stroke-width="0.14571" stroke-miterlimit="10"/>
<path d="M20.0989 39.1468C20.4007 39.1468 20.6453 38.9021 20.6453 38.6004C20.6453 38.2986 20.4007 38.054 20.0989 38.054C19.7971 38.054 19.5525 38.2986 19.5525 38.6004C19.5525 38.9021 19.7971 39.1468 20.0989 39.1468Z" fill="#CA51F2" stroke="#141414" stroke-width="0.14571" stroke-miterlimit="10"/>
<path d="M29.2786 51.532C29.5804 51.532 29.825 51.2874 29.825 50.9856C29.825 50.6838 29.5804 50.4392 29.2786 50.4392C28.9768 50.4392 28.7322 50.6838 28.7322 50.9856C28.7322 51.2874 28.9768 51.532 29.2786 51.532Z" fill="#CA51F2" stroke="#141414" stroke-width="0.14571" stroke-miterlimit="10"/>
<path d="M39.1868 39.6568C39.4886 39.6568 39.7332 39.4122 39.7332 39.1104C39.7332 38.8086 39.4886 38.564 39.1868 38.564C38.885 38.564 38.6404 38.8086 38.6404 39.1104C38.6404 39.4122 38.885 39.6568 39.1868 39.6568Z" fill="#CA51F2" stroke="#141414" stroke-width="0.14571" stroke-miterlimit="10"/>
<path d="M36.3455 38.2725C36.6473 38.2725 36.8919 38.0279 36.8919 37.7261C36.8919 37.4243 36.6473 37.1797 36.3455 37.1797C36.0437 37.1797 35.7991 37.4243 35.7991 37.7261C35.7991 38.0279 36.0437 38.2725 36.3455 38.2725Z" fill="#CA51F2" stroke="#141414" stroke-width="0.14571" stroke-miterlimit="10"/>
<path d="M28.1128 39.3653C28.4146 39.3653 28.6592 39.1207 28.6592 38.8189C28.6592 38.5171 28.4146 38.2725 28.1128 38.2725C27.811 38.2725 27.5664 38.5171 27.5664 38.8189C27.5664 39.1207 27.811 39.3653 28.1128 39.3653Z" fill="#CA51F2" stroke="#141414" stroke-width="0.14571" stroke-miterlimit="10"/>
<path d="M18.6052 30.1636L20.9366 33.974L20.3902 29.0708L18.6052 30.1636Z" fill="white" stroke="#141414" stroke-width="0.437131" stroke-miterlimit="10"/>
<path d="M23.3772 32.4076L20.2444 29.3477L20.9729 33.5733L23.3772 32.4076Z" fill="white" stroke="#141414" stroke-width="0.364276" stroke-miterlimit="10"/>
<path d="M25.5629 31.3148L22.4302 28.2549L23.1587 32.4805L25.5629 31.3148Z" fill="white" stroke="#141414" stroke-width="0.364276" stroke-miterlimit="10"/>
<path d="M27.3115 30.149L24.1787 27.0891L25.1987 31.6061L27.3115 30.149Z" fill="white" stroke="#141414" stroke-width="0.364276" stroke-miterlimit="10"/>
<path d="M28.8415 28.2548L25.9272 25.3406L27.3115 30.0033L28.8415 28.2548Z" fill="white" stroke="#141414" stroke-width="0.364276" stroke-miterlimit="10"/>
<path d="M29.9343 25.5593L27.53 23.155L29.1328 27.8906L29.9343 25.5593Z" fill="white" stroke="#141414" stroke-width="0.364276" stroke-miterlimit="10"/>
<path d="M20.2444 29.202L23.2314 32.7719L22.2843 27.978L20.2444 29.202Z" fill="white" stroke="#141414" stroke-width="0.364276" stroke-miterlimit="10"/>
<path d="M22.2117 28.0362L25.1987 31.8247L24.2516 26.8123L22.2117 28.0362Z" fill="white" stroke="#141414" stroke-width="0.364276" stroke-miterlimit="10"/>
<path d="M24.3245 26.8707L27.3115 30.3677L26.0001 25.0493L24.3245 26.8707Z" fill="#CA51F2" stroke="#141414" stroke-width="0.364276" stroke-miterlimit="10"/>
<path d="M26.073 25.2678L29.1329 28.4006L27.5301 22.645L26.073 25.2678Z" fill="white" stroke="#141414" stroke-width="0.364276" stroke-miterlimit="10"/>
<path d="M27.53 22.6449L30.2257 25.9963L28.6957 20.605L27.53 22.6449Z" fill="white" stroke="#141414" stroke-width="0.364276" stroke-miterlimit="10"/>
<path d="M54.807 49.7763C54.8725 49.5723 54.9454 49.3756 55.0182 49.1789C55.4117 48.1881 56.7449 44.3996 55.4408 40.9608C53.9254 36.9684 50.5376 38.4765 50.5376 38.4765C50.5376 38.4765 48.6215 36.4875 46.873 36.5531H46.6107C46.1882 36.5531 45.8822 36.1378 45.9988 35.7298C46.1153 35.3218 45.9988 35.7152 45.9988 35.708C46.2028 35.0595 46.7419 33.821 45.1318 32.7792C44.5854 32.4222 44.1118 32.1963 43.7402 32.0579C43.1428 31.8321 42.4726 31.9996 42.0427 32.4732L41.1903 33.413C40.9353 33.6899 40.8479 34.076 40.9426 34.4403V34.4548C41.0227 34.7317 41.2049 34.9648 41.4599 35.096C42.1229 35.4384 42.9971 35.8391 43.0846 36.5604C43.1064 36.7206 43.0481 36.8809 42.9461 37.0048L42.0136 37.1068C41.2632 37.1869 40.5492 37.4419 39.9154 37.8499C38.9755 38.4546 37.9118 38.848 36.8044 39.001C35.7043 39.154 34.7281 39.7951 34.1525 40.7568C33.7154 41.4854 33.4458 42.3014 33.3584 43.1538C33.2345 44.3923 33.3292 45.6381 33.6498 46.8402L34.3419 49.4485C34.6406 50.585 35.0778 51.6705 35.646 52.6978L35.7845 52.9528C36.0832 53.4992 36.5422 53.9509 37.1104 54.2132C37.7953 54.541 38.5238 54.7669 39.2742 54.8907L39.6749 54.9563C39.9154 55 40.1631 55.0146 40.4108 55.0146H41.2559C41.4745 55.0146 41.693 55.0437 41.9043 55.0947L43.1356 55.408C43.7257 55.561 44.3449 55.5974 44.9496 55.5173L46.8657 55.2623H48.9858C49.576 55.2623 50.1588 55.1239 50.6833 54.8616C51.0331 54.6795 51.4046 54.4973 51.7106 54.388C52.1623 54.2278 52.6286 54.0675 52.6286 54.0675C53.736 53.2442 54.1294 51.8745 54.5374 50.6068L54.7997 49.7763H54.807Z" fill="#141414"/>
<path d="M40.2871 39.5179C40.2871 39.5179 37.3802 38.2939 35.2091 39.904C32.3677 42.0168 34.3931 50.111 36.4986 52.6974C38.6114 55.2838 40.5056 53.5134 40.5056 53.5134L40.2798 39.5179H40.2871Z" fill="#FC8900"/>
<path d="M48.9642 39.5179C48.9642 39.5179 51.8711 38.2939 54.0422 39.904C56.8835 42.0168 54.8582 50.111 52.7526 52.6974C50.6398 55.2838 48.7456 53.5134 48.7456 53.5134L48.9715 39.5179H48.9642Z" fill="#FC8900"/>
<path d="M54.1442 39.9844C55.8636 42.8622 54.0349 49.645 52.1407 51.9691C50.7637 53.6593 49.4742 53.4917 48.7529 53.1712V53.5136C48.7529 53.5136 50.6399 55.2767 52.7527 52.6976C54.8363 50.1477 56.8399 42.221 54.1515 39.9844H54.1442Z" fill="#F47400"/>
<path d="M45.8531 53.6884C45.8531 53.6884 46.8803 54.825 48.5706 54.4316C50.6397 53.9507 52.2279 49.8562 51.9948 44.108C51.7398 37.9153 46.2028 37.2377 44.7166 39.6492L45.8604 53.6884H45.8531Z" fill="#FC8900"/>
<path d="M40.2871 39.518C40.2871 39.518 39.2088 39.0663 37.8829 39.0736C36.9794 40.0061 36.3092 41.4487 36.229 43.5032C35.9959 49.2514 37.5842 53.3459 39.6532 53.8268C39.748 53.8486 39.8499 53.8632 39.9374 53.8778C40.2944 53.7102 40.5056 53.5135 40.5056 53.5135L40.2798 39.518H40.2871Z" fill="#F47400"/>
<path d="M51.9948 44.1005C51.8929 41.6307 50.953 40.0352 49.7582 39.1682C50.494 40.0935 51.0186 41.4267 51.0914 43.2262C51.3246 48.9745 49.7363 53.069 47.6673 53.5498C46.9168 53.7247 46.2903 53.5935 45.8313 53.3968L45.8532 53.6737C45.8532 53.6737 46.8804 54.8102 48.5707 54.4168C50.6397 53.936 52.228 49.8415 51.9948 44.0932V44.1005Z" fill="#F47400"/>
<path d="M43.3981 53.6884C43.3981 53.6884 42.3708 54.825 40.6806 54.4316C38.6115 53.9507 37.0233 49.8562 37.2564 44.108C37.5114 37.9153 43.0484 37.2377 44.5346 39.6492L43.3908 53.6884H43.3981Z" fill="#FC8900"/>
<path d="M43.245 39.3576C40.797 40.4796 38.7862 45.3682 39.2816 49.9435C39.5803 52.6974 40.9209 53.8922 42.0938 54.4168C42.9244 54.2055 43.398 53.681 43.398 53.681L44.6292 40.4359C44.3086 39.9186 43.8497 39.5616 43.2522 39.3503L43.245 39.3576Z" fill="#FF9239"/>
<path d="M44.6292 38.345C41.7805 38.345 39.3836 44.8437 39.9373 49.9435C40.491 55.0434 44.6292 54.8175 44.6292 54.8175C44.6292 54.8175 48.7674 55.0434 49.3211 49.9435C49.8748 44.8437 47.4778 38.345 44.6292 38.345Z" fill="#FC8900"/>
<path d="M44.6293 38.345C44.5929 38.345 44.5492 38.345 44.5127 38.345C44.5054 38.345 44.4909 38.345 44.4836 38.345C44.4472 38.345 44.4107 38.345 44.3743 38.3596C44.3743 38.3596 44.367 38.3596 44.3597 38.3596C44.3233 38.3596 44.2796 38.3742 44.2432 38.3815C44.2359 38.3815 44.2213 38.3815 44.214 38.3815C44.1849 38.3815 44.1485 38.396 44.1193 38.4033C44.1193 38.4033 44.1047 38.4033 44.0975 38.4033C44.061 38.4106 44.0246 38.4252 43.9882 38.4397C43.9809 38.4397 43.9663 38.447 43.959 38.4543C43.9299 38.4616 43.9007 38.4762 43.8716 38.4907C43.8643 38.4907 43.8498 38.498 43.8425 38.5053C43.806 38.5199 43.7696 38.5345 43.7332 38.5563C43.7186 38.5563 43.7113 38.5709 43.6968 38.5709C43.6676 38.5855 43.6458 38.6 43.6166 38.6146C43.602 38.6146 43.5948 38.6292 43.5802 38.6365C43.5438 38.6583 43.5146 38.6729 43.4782 38.6947C43.4636 38.702 43.4563 38.7093 43.4418 38.7166C43.4199 38.7312 43.3908 38.7457 43.3689 38.7676C43.3543 38.7749 43.3398 38.7894 43.3252 38.7967C43.2961 38.8186 43.2596 38.8404 43.2305 38.8696C43.2159 38.8769 43.2013 38.8914 43.1941 38.8987C43.1722 38.9133 43.1503 38.9352 43.1285 38.9497C43.1139 38.9643 43.0993 38.9716 43.0848 38.9862C43.0629 39.008 43.0338 39.0299 43.0119 39.0517C42.9901 39.0663 42.9755 39.0882 42.9536 39.1027C42.9318 39.1246 42.9172 39.1392 42.8953 39.161C42.8808 39.1756 42.8589 39.1902 42.8444 39.212C42.8225 39.2339 42.8079 39.2484 42.7861 39.2703C42.7569 39.2994 42.7351 39.3213 42.7059 39.3504C42.6914 39.3723 42.6695 39.3869 42.6549 39.4087C42.6404 39.4306 42.6185 39.4451 42.6039 39.467C42.5894 39.4816 42.5748 39.5034 42.5602 39.518C42.5311 39.5544 42.5019 39.5909 42.4728 39.6273C42.4582 39.6419 42.4436 39.6637 42.4291 39.6783C42.4072 39.7001 42.3926 39.722 42.3708 39.7511C42.3562 39.7657 42.3489 39.7803 42.3344 39.8021C42.2979 39.8458 42.2688 39.8896 42.2324 39.9333C42.2251 39.9478 42.2105 39.9624 42.2032 39.977C42.1814 40.0061 42.1668 40.028 42.1449 40.0571C42.1377 40.0717 42.1231 40.0863 42.1158 40.1008C42.0721 40.1664 42.0284 40.2247 41.9919 40.2903C43.2013 39.4306 44.2359 40.3558 44.877 41.1062C46.1665 42.6216 46.7858 47.4374 45.9116 50.7013C45.2996 52.9962 44.2942 54.2202 43.1139 54.5407C43.1285 54.5407 43.1503 54.5553 43.1649 54.5553C43.1795 54.5553 43.1941 54.5626 43.2013 54.5699C43.2159 54.5699 43.2378 54.5772 43.2523 54.5845C43.2669 54.5845 43.2742 54.5917 43.2888 54.599C43.3033 54.599 43.3252 54.6063 43.3398 54.6136C43.3543 54.6136 43.3616 54.6136 43.3762 54.6209C43.3908 54.6209 43.4126 54.6282 43.4272 54.6355C43.4345 54.6355 43.4418 54.6355 43.449 54.6355C43.4855 54.6427 43.5219 54.6573 43.551 54.6646C43.5583 54.6646 43.5656 54.6646 43.5729 54.6646C43.5875 54.6646 43.6093 54.6719 43.6239 54.6792C43.6312 54.6792 43.6458 54.6792 43.653 54.6792C43.6676 54.6792 43.6822 54.6792 43.704 54.6865C43.7113 54.6865 43.7186 54.6865 43.7332 54.6865C43.7478 54.6865 43.7623 54.6865 43.7842 54.6937C43.7915 54.6937 43.7988 54.6937 43.806 54.6937C43.8643 54.701 43.9153 54.7156 43.9663 54.7229C43.9663 54.7229 43.9809 54.7229 43.9882 54.7229C44.0027 54.7229 44.0173 54.7229 44.0319 54.7229C44.0392 54.7229 44.0465 54.7229 44.0537 54.7229C44.0683 54.7229 44.0829 54.7229 44.0975 54.7229C44.0975 54.7229 44.112 54.7229 44.1193 54.7229C44.1703 54.7229 44.214 54.7302 44.2577 54.7375C44.2577 54.7375 44.265 54.7375 44.2723 54.7375C44.2869 54.7375 44.2942 54.7375 44.3087 54.7375C44.3087 54.7375 44.3233 54.7375 44.3306 54.7375C44.3379 54.7375 44.3525 54.7375 44.3597 54.7375H44.3743C44.3816 54.7375 44.3962 54.7375 44.4034 54.7375C44.4034 54.7375 44.4107 54.7375 44.418 54.7375C44.4399 54.7375 44.4617 54.7375 44.4763 54.7375C44.4763 54.7375 44.4763 54.7375 44.4836 54.7375C44.4909 54.7375 44.4982 54.7375 44.5054 54.7375C44.5054 54.7375 44.5127 54.7375 44.52 54.7375C44.52 54.7375 44.5346 54.7375 44.5419 54.7375C44.5419 54.7375 44.5492 54.7375 44.5564 54.7375H44.571C44.571 54.7375 44.5783 54.7375 44.5856 54.7375C44.5856 54.7375 44.5929 54.7375 44.6002 54.7375C44.6074 54.7375 44.6147 54.7375 44.622 54.7375C44.622 54.7375 44.622 54.7375 44.6293 54.7375C44.6293 54.7375 44.6293 54.7375 44.6366 54.7375C44.6366 54.7375 44.6366 54.7375 44.6439 54.7375C44.6439 54.7375 44.6439 54.7375 44.6512 54.7375C44.6512 54.7375 48.7893 54.9633 49.343 49.8634C49.8967 44.7636 47.4998 38.2649 44.6512 38.2649L44.6293 38.345Z" fill="#F47400"/>
<path d="M44.8042 38.3597C47.0627 39.8605 48.7311 45.2081 48.2575 49.5503C47.7038 54.6501 43.5656 54.4243 43.5656 54.4243C43.5656 54.4243 43.5656 54.4243 43.5584 54.4243C43.5584 54.4243 43.5584 54.4243 43.5511 54.4243C43.5511 54.4243 43.5511 54.4243 43.5438 54.4243C43.5438 54.4243 43.5438 54.4243 43.5365 54.4243C43.5365 54.4243 43.5219 54.4243 43.5146 54.4243C43.5146 54.4243 43.5074 54.4243 43.5001 54.4243C43.5001 54.4243 43.4928 54.4243 43.4855 54.4243C43.4855 54.4243 43.4782 54.4243 43.4709 54.4243C43.3471 54.4753 43.2305 54.5263 43.0994 54.5554C43.1139 54.5554 43.1358 54.57 43.1504 54.57C43.1649 54.57 43.1795 54.5773 43.1868 54.5846C43.2014 54.5846 43.2232 54.5919 43.2378 54.5991C43.2524 54.5991 43.2596 54.6064 43.2742 54.6137C43.2888 54.6137 43.3106 54.621 43.3252 54.6283C43.3398 54.6283 43.3471 54.6283 43.3616 54.6356C43.3762 54.6356 43.3981 54.6429 43.4126 54.6501C43.4199 54.6501 43.4272 54.6501 43.4345 54.6501C43.4709 54.6574 43.5074 54.672 43.5365 54.6793C43.5438 54.6793 43.5511 54.6793 43.5584 54.6793C43.5729 54.6793 43.5948 54.6866 43.6094 54.6939C43.6166 54.6939 43.6312 54.6939 43.6385 54.6939C43.6531 54.6939 43.6676 54.6939 43.6895 54.7011C43.6968 54.7011 43.7041 54.7011 43.7186 54.7011C43.7332 54.7011 43.7478 54.7011 43.7696 54.7084C43.7769 54.7084 43.7842 54.7084 43.7915 54.7084C43.8498 54.7157 43.9008 54.7303 43.9518 54.7376C43.9518 54.7376 43.9663 54.7376 43.9736 54.7376C43.9882 54.7376 44.0028 54.7376 44.0173 54.7376C44.0246 54.7376 44.0319 54.7376 44.0392 54.7376C44.0538 54.7376 44.0683 54.7376 44.0829 54.7376C44.0829 54.7376 44.0975 54.7376 44.1048 54.7376C44.1558 54.7376 44.1995 54.7449 44.2432 54.7521C44.2432 54.7521 44.2505 54.7521 44.2578 54.7521C44.2723 54.7521 44.2796 54.7521 44.2942 54.7521C44.2942 54.7521 44.3088 54.7521 44.316 54.7521C44.3233 54.7521 44.3379 54.7521 44.3452 54.7521H44.3598C44.367 54.7521 44.3816 54.7521 44.3889 54.7521C44.3889 54.7521 44.3962 54.7521 44.4035 54.7521C44.4253 54.7521 44.4472 54.7521 44.4618 54.7521C44.4618 54.7521 44.4618 54.7521 44.469 54.7521C44.4763 54.7521 44.4836 54.7521 44.4909 54.7521C44.4909 54.7521 44.4982 54.7521 44.5055 54.7521C44.5055 54.7521 44.52 54.7521 44.5273 54.7521C44.5273 54.7521 44.5346 54.7521 44.5419 54.7521H44.5565C44.5565 54.7521 44.5638 54.7521 44.571 54.7521C44.571 54.7521 44.5783 54.7521 44.5856 54.7521C44.5929 54.7521 44.6002 54.7521 44.6075 54.7521C44.6075 54.7521 44.6075 54.7521 44.6148 54.7521C44.6148 54.7521 44.6148 54.7521 44.622 54.7521C44.622 54.7521 44.622 54.7521 44.6293 54.7521C44.6293 54.7521 44.6293 54.7521 44.6366 54.7521C44.6366 54.7521 48.7748 54.978 49.3285 49.8781C49.8676 44.8875 47.5872 38.5491 44.8187 38.2869L44.8042 38.3597Z" fill="#ED6B00"/>
<path opacity="0.2" d="M48.7382 39.6277C49.4158 39.941 50.1152 39.8681 50.3993 39.8171C50.4503 39.8099 50.4649 39.7443 50.4212 39.7151C50.239 39.5986 49.8602 39.329 49.4158 38.9647C48.1991 38.2362 46.7857 38.1998 45.7657 38.717C45.3942 38.4912 45.0153 38.3673 44.6219 38.3673C44.2285 38.3673 44.5199 38.3673 44.4762 38.3673C44.4398 38.3673 44.4033 38.3673 44.3669 38.3819C44.3669 38.3819 44.3596 38.3819 44.3523 38.3819C44.3378 38.3819 44.3159 38.3819 44.3013 38.3892C44.2649 38.3892 44.2212 38.4038 44.1848 38.411C44.1556 38.411 44.1338 38.4256 44.1046 38.4329C44.0318 38.4548 43.9589 38.4766 43.8861 38.5058C43.8715 38.5058 43.8642 38.513 43.8496 38.5203C43.7549 38.5568 43.6602 38.6077 43.5655 38.6587C43.5363 38.6733 43.5072 38.6952 43.4781 38.7097C42.6111 38.2799 41.4673 38.2362 40.4036 38.6733C40.3599 38.7025 40.3089 38.7389 40.2651 38.7753C39.828 39.0595 38.8226 39.5184 38.5239 39.6496C38.4875 39.6642 38.4802 39.7224 38.5166 39.7443C38.706 39.8609 39.2452 40.0867 40.2797 39.6204C41.6057 39.023 44.0318 39.686 44.0318 39.686C44.0318 39.686 44.3305 40.3781 44.1702 41.3107C44.0391 42.0538 44.5199 43.0009 44.7239 43.3579C44.753 43.4016 44.8186 43.3871 44.8259 43.3361C44.8623 42.9426 44.9862 41.9591 45.2922 41.6458C45.9843 40.9173 46.079 39.584 46.079 39.584C46.079 39.584 47.558 39.074 48.7455 39.6204L48.7382 39.6277Z" fill="#1D1D1B"/>
<path d="M43.6092 38.9574C43.6092 38.9574 44.141 39.7005 43.9807 40.6404C43.8205 41.5802 44.3013 42.7386 44.3013 42.7386C44.3013 42.7386 44.7894 41.3835 45.1391 40.9609C45.4961 40.5384 45.6564 38.9428 45.6564 38.9428C45.6564 38.9428 47.9076 38.5786 48.7382 39.074C49.5687 39.5694 50.5304 39.125 50.5304 39.125C50.5304 39.125 49.7946 38.666 49.0223 37.952C48.2501 37.238 46.3631 36.8883 45.3577 37.1797C45.3577 37.1797 46.0134 35.6206 45.8167 34.5861C45.62 33.5516 43.2813 32.2256 43.2813 32.2256L41.2341 34.4331C41.2341 34.4331 43.0773 34.9504 43.2376 35.2855C43.3979 35.6279 43.4562 37.2526 43.4562 37.2526C43.4562 37.2526 41.8242 36.9102 40.2578 38.105C39.7406 38.4474 38.5166 39.0594 38.5166 39.0594C38.5166 39.0594 39.0339 39.5913 40.3598 38.9938C41.6858 38.3964 43.6092 38.9428 43.6092 38.9428V38.9574Z" fill="#527A13"/>
<path d="M48.2136 38.1341C49.3283 38.9574 50.5304 39.125 50.5304 39.125C50.5304 39.125 49.7946 38.666 49.0223 37.952C48.25 37.238 46.3631 36.8883 45.3577 37.1797C45.3577 37.1797 46.0134 35.6206 45.8167 34.5861C45.62 33.5516 43.2813 32.2256 43.2813 32.2256L42.05 33.5516L42.5673 33.6535C42.5673 33.6535 44.4907 34.1052 44.8477 34.8338C45.1027 35.3584 44.7894 36.8155 44.5854 37.595C44.5271 37.8282 44.7238 38.0394 44.9643 37.9957C45.8239 37.8427 47.5142 37.6169 48.2063 38.1269L48.2136 38.1341Z" fill="#47680F"/>
<path d="M43.2887 32.2256L43.3543 33.2237L42.582 33.6608L42.4145 34.3092L41.2488 34.4404C41.2488 34.4404 41.6495 32.4879 43.296 32.2329L43.2887 32.2256Z" fill="#354C08"/>
<path d="M47.0261 44.0644L50.851 42.957C51.004 42.9133 51.1497 43.0444 51.1279 43.2047C51.004 43.9114 50.5669 45.4924 49.0661 45.6672C47.558 45.8421 47.0334 44.8075 46.8804 44.3412C46.844 44.2247 46.9096 44.1008 47.0261 44.0644Z" fill="#8D2ED8"/>
<path d="M50.21 43.1466C50.1663 43.9335 49.9914 45.4197 48.4323 45.6018C48.3449 45.6091 48.2647 45.6164 48.1919 45.6164C48.4396 45.682 48.731 45.7038 49.0734 45.6601C50.5743 45.4853 51.0114 43.9043 51.1352 43.1976C51.1644 43.0373 51.0114 42.9062 50.8584 42.9499L50.21 43.1393V43.1466Z" fill="#0C0C0B"/>
<path d="M42.0502 44.0646L38.2253 42.9572C38.0723 42.9135 37.9266 43.0447 37.9485 43.2049C38.0723 43.9116 38.5095 45.4926 40.0103 45.6675C41.5184 45.8423 42.0429 44.8078 42.1959 44.3415C42.2324 44.2249 42.1668 44.1011 42.0502 44.0646Z" fill="#8D2ED8"/>
<path d="M38.8737 43.1466C38.9174 43.9335 39.0922 45.4197 40.6513 45.6018C40.7388 45.6091 40.8189 45.6164 40.8918 45.6164C40.6441 45.682 40.3526 45.7038 40.0102 45.6601C38.5094 45.4853 38.0723 43.9043 37.9484 43.1976C37.9193 43.0373 38.0723 42.9062 38.2253 42.9499L38.8737 43.1393V43.1466Z" fill="#0C0C0B"/>
<path d="M49.0735 47.0371C48.5344 47.1537 47.9442 47.2484 47.325 47.3212C47.274 47.3212 47.2303 47.3722 47.2303 47.4232V48.2902C47.2303 48.4578 47.0918 48.5962 46.9243 48.5962H46.1884C46.0209 48.5962 45.8824 48.4578 45.8824 48.2902V47.5471C45.8824 47.4888 45.8314 47.4378 45.7732 47.4451C43.7041 47.5471 41.5038 47.4087 39.8063 47.0444C39.2162 46.9133 38.7572 47.5544 39.0705 48.0717C39.646 49.0333 40.6951 50.2063 42.4947 50.7236C42.5602 50.7454 42.6258 50.6944 42.6258 50.6216V50.097C42.6258 49.9295 42.7642 49.791 42.9318 49.791H43.6676C43.8352 49.791 43.9736 49.9295 43.9736 50.097V50.8693C43.9736 50.9276 44.0173 50.9713 44.0756 50.9713C44.1995 50.9713 44.3161 50.9786 44.4472 50.9786C47.478 50.9786 49.0516 49.332 49.8166 48.0717C50.1299 47.5544 49.6709 46.9133 49.0808 47.0444L49.0735 47.0371Z" fill="#1D1D1B"/>
<path d="M45.8826 48.975H46.8151C46.99 48.975 47.1284 48.8438 47.143 48.6763V48.5087C47.0847 48.5597 47.0118 48.5961 46.9317 48.5961H46.1958C46.0283 48.5961 45.8898 48.4577 45.8898 48.2902V47.547C45.8898 47.4887 45.8388 47.4377 45.7806 47.445C45.7004 47.445 45.6276 47.445 45.5474 47.4523V47.8457C45.5474 47.8457 45.5401 48.4723 45.5474 48.6836C45.5547 48.8511 45.7077 48.9823 45.8753 48.9823L45.8826 48.975Z" fill="#0C0C0B"/>
<path d="M49.0736 47.0371C48.9425 47.0662 48.804 47.0954 48.6656 47.1172C49.1537 47.3722 49.0299 47.8385 48.8186 48.1955C48.0973 49.383 46.7422 50.7818 44.0393 50.9567C44.0466 50.9567 44.0612 50.9567 44.0757 50.964C44.1996 50.964 44.3162 50.9713 44.4473 50.9713C47.4781 50.9713 49.0517 49.3247 49.8167 48.0643C50.13 47.5471 49.671 46.9059 49.0809 47.0371H49.0736Z" fill="#0C0C0B"/>
<path d="M42.6258 50.6143V50.454C41.3363 49.9003 40.5567 49.0042 40.0686 48.1955C39.8573 47.8458 39.7335 47.3795 40.2216 47.1172C40.207 47.1172 40.1998 47.1172 40.1852 47.1172C40.1488 47.1172 40.1123 47.1027 40.0686 47.0954C39.9958 47.0808 39.9302 47.0662 39.8646 47.0517C39.8428 47.0517 39.8282 47.0444 39.8063 47.0371C39.3474 46.9351 38.9685 47.3067 38.9685 47.7146C38.9685 47.8312 38.9976 47.9478 39.0705 48.0643C39.4056 48.618 39.8938 49.2446 40.5932 49.7692C40.7389 49.8784 40.8919 49.9877 41.0595 50.0824C41.0667 50.0824 41.0813 50.097 41.0886 50.097C41.1323 50.1261 41.1833 50.148 41.227 50.1771C41.2343 50.1771 41.2489 50.1917 41.2562 50.1917C41.3144 50.2209 41.3654 50.25 41.4237 50.2791C41.4747 50.3083 41.533 50.3301 41.5913 50.3593C41.6059 50.3666 41.6277 50.3739 41.6423 50.3811C41.686 50.403 41.7297 50.4176 41.7734 50.4394C41.788 50.4467 41.8099 50.454 41.8317 50.4613C41.89 50.4831 41.941 50.505 41.9993 50.5269C42.0066 50.5269 42.0211 50.5269 42.0284 50.5341C42.0867 50.556 42.1377 50.5778 42.196 50.5924C42.2178 50.5997 42.2397 50.607 42.2688 50.6143C42.3126 50.6289 42.349 50.6434 42.3927 50.6507C42.4146 50.658 42.4437 50.6653 42.4728 50.6726C42.4874 50.6726 42.4947 50.6726 42.5093 50.6798C42.5748 50.6944 42.6331 50.6434 42.6331 50.5779L42.6258 50.6143Z" fill="#0C0C0B"/>
<path d="M76.5943 16.921L70.3908 37.9357H63.2141L63.1837 22.3939L58.5918 37.9357H51.5672L51.3543 16.921H56.828L56.159 33.7932L61.055 16.921H66.8936L66.772 33.7932L71.2422 16.921H76.5943Z" fill="black"/>
<path d="M83.9169 16.921L80.9672 37.9357H75.4326L78.3823 16.921H83.9169Z" fill="black"/>
<path d="M100.674 37.9357H93.6796L90.4562 21.5473C90.517 22.5753 90.5474 23.6538 90.5474 24.7826C90.5474 26.9194 90.3953 29.036 90.0912 31.1324L89.1181 37.9357H84.2526L87.2023 16.921H94.1053L97.42 33.3095C97.3389 32.2008 97.2983 31.0215 97.2983 29.7717C97.2983 27.9978 97.4301 26.1534 97.6937 24.2384L98.758 16.921H103.624L100.674 37.9357Z" fill="black"/>
<path d="M113.855 16.3768C116.835 16.3768 119.268 17.3141 121.154 19.1888L118.295 22.0916C117.646 21.507 116.977 21.0837 116.288 20.8216C115.599 20.5394 114.849 20.3983 114.038 20.3983C113.166 20.3983 112.477 20.5797 111.97 20.9426C111.463 21.3054 111.21 21.7993 111.21 22.4242C111.21 22.9684 111.443 23.4018 111.909 23.7243C112.375 24.0469 113.277 24.4299 114.615 24.8734C116.44 25.4781 117.788 26.2542 118.66 27.2016C119.552 28.149 119.998 29.3787 119.998 30.8905C119.998 32.1806 119.684 33.4102 119.055 34.5794C118.447 35.7284 117.454 36.6758 116.075 37.4217C114.697 38.1474 112.923 38.5102 110.753 38.5102C107.53 38.5102 104.884 37.462 102.817 35.3656L105.979 32.2209C107.317 33.5917 108.949 34.277 110.875 34.277C111.909 34.277 112.71 34.0654 113.277 33.6421C113.865 33.2187 114.159 32.6241 114.159 31.8581C114.159 31.2533 113.926 30.7494 113.46 30.3462C112.994 29.9229 112.173 29.5097 110.997 29.1065C108.99 28.4413 107.55 27.6249 106.679 26.6573C105.807 25.6897 105.371 24.5105 105.371 23.1196C105.371 21.9504 105.675 20.8518 106.283 19.8238C106.912 18.7957 107.865 17.9693 109.142 17.3444C110.419 16.6993 111.99 16.3768 113.855 16.3768Z" fill="black"/>
<path d="M126.79 37.9357H121.255L124.205 16.921H129.739L128.614 24.8734H134.057L135.183 16.921H140.717L137.767 37.9357H132.233L133.419 29.1972H128.036L126.79 37.9357Z" fill="black"/>
<path d="M151.92 37.9357L151.585 33.6421H146.081L144.591 37.9357H138.813L147.906 16.921H154.596L157.758 37.9357H151.92ZM147.45 29.6508H151.312L150.612 20.5495L147.45 29.6508Z" fill="black"/>
<path d="M176.885 22.6056C176.885 24.057 176.55 25.3269 175.881 26.4154C175.233 27.504 174.016 28.4615 172.232 29.2879L176.094 37.9357H170.073L167.093 30.1951H165.451L164.356 37.9357H158.822L161.771 16.921H169.009C171.563 16.921 173.51 17.4351 174.848 18.4631C176.206 19.471 176.885 20.8518 176.885 22.6056ZM165.968 26.3852H167.853C169.009 26.3852 169.85 26.0526 170.377 25.3874C170.904 24.702 171.168 23.8856 171.168 22.9382C171.168 22.2125 170.935 21.6783 170.469 21.3356C170.002 20.9929 169.293 20.8216 168.34 20.8216H166.759L165.968 26.3852Z" fill="black"/>
<path d="M177.382 37.9357L180.332 16.921H185.897L182.947 37.9357H177.382ZM189.303 37.9357L184.681 26.748L192.161 16.921H198L190.367 26.5969L195.598 37.9357H189.303Z" fill="black"/>
<path d="M174.949 35.466L177.899 14.4514H183.464L180.514 35.466H174.949ZM186.87 35.466L182.248 24.2784L189.729 14.4514H195.567L187.934 24.1272L193.165 35.466H186.87Z" fill="white"/>
<path d="M174.452 20.1359C174.452 21.5873 174.118 22.8572 173.449 23.9458C172.8 25.0343 171.584 25.9918 169.8 26.8183L173.662 35.466H167.64L164.66 27.7254H163.018L161.923 35.466H156.389L159.339 14.4514H166.576C169.131 14.4514 171.077 14.9654 172.415 15.9935C173.773 17.0014 174.452 18.3822 174.452 20.1359ZM163.535 23.9155H165.421C166.576 23.9155 167.417 23.5829 167.945 22.9177C168.472 22.2323 168.735 21.4159 168.735 20.4685C168.735 19.7428 168.502 19.2087 168.036 18.866C167.569 18.5233 166.86 18.3519 165.907 18.3519H164.326L163.535 23.9155Z" fill="white"/>
<path d="M149.487 35.466L149.153 31.1724H143.648L142.158 35.466H136.38L145.473 14.4514H152.163L155.326 35.466H149.487ZM145.017 27.1811H148.879L148.179 18.0798L145.017 27.1811Z" fill="white"/>
<path d="M124.357 35.466H118.822L121.772 14.4514H127.307L126.181 22.4037H131.625L132.75 14.4514H138.284L135.335 35.466H129.8L130.986 26.7276H125.604L124.357 35.466Z" fill="white"/>
<path d="M111.422 13.9071C114.403 13.9071 116.835 14.8445 118.721 16.7191L115.862 19.6219C115.214 19.0373 114.545 18.614 113.855 18.3519C113.166 18.0697 112.416 17.9286 111.605 17.9286C110.733 17.9286 110.044 18.11 109.537 18.4729C109.03 18.8357 108.777 19.3296 108.777 19.9545C108.777 20.4988 109.01 20.9322 109.476 21.2547C109.943 21.5772 110.845 21.9602 112.183 22.4037C114.007 23.0084 115.355 23.7845 116.227 24.7319C117.119 25.6794 117.565 26.909 117.565 28.4208C117.565 29.7109 117.251 30.9406 116.623 32.1097C116.014 33.2587 115.021 34.2062 113.642 34.952C112.264 35.6777 110.49 36.0405 108.321 36.0405C105.097 36.0405 102.452 34.9923 100.384 32.8959L103.546 29.7513C104.884 31.122 106.516 31.8074 108.442 31.8074C109.476 31.8074 110.277 31.5957 110.845 31.1724C111.433 30.7491 111.727 30.1544 111.727 29.3884C111.727 28.7837 111.493 28.2797 111.027 27.8766C110.561 27.4533 109.74 27.04 108.564 26.6369C106.557 25.9716 105.118 25.1552 104.246 24.1877C103.374 23.2201 102.938 22.0408 102.938 20.6499C102.938 19.4808 103.242 18.3822 103.85 17.3541C104.479 16.3261 105.432 15.4996 106.709 14.8747C107.986 14.2296 109.557 13.9071 111.422 13.9071Z" fill="white"/>
<path d="M98.241 35.466H91.2468L88.0234 19.0776C88.0842 20.1057 88.1146 21.1841 88.1146 22.313C88.1146 24.4497 87.9626 26.5663 87.6585 28.6627L86.6854 35.466H81.8198L84.7696 14.4514H91.6725L94.9872 30.8398C94.9061 29.7311 94.8656 28.5519 94.8656 27.3021C94.8656 25.5282 94.9973 23.6837 95.2609 21.7687L96.3252 14.4514H101.191L98.241 35.466Z" fill="white"/>
<path d="M81.4841 14.4514L78.5344 35.466H72.9998L75.9496 14.4514H81.4841Z" fill="white"/>
<path d="M74.1616 14.4514L67.958 35.466H60.7813L60.7509 19.9243L56.159 35.466H49.1344L48.9215 14.4514H54.3953L53.7263 31.3236L58.6222 14.4514H64.4609L64.3392 31.3236L68.8095 14.4514H74.1616Z" fill="white"/>
<path fill-rule="evenodd" clip-rule="evenodd" d="M173.901 36.3732L177.105 13.5443H184.513L183.436 21.2145L189.275 13.5443H197.442L188.996 24.2518L194.587 36.3732H186.259L182.564 27.4299L181.308 36.3732H173.901ZM183.464 14.4514H177.899L174.949 35.466H180.514L183.464 14.4514ZM186.87 35.466H193.165L187.934 24.1272L195.567 14.4514H189.729L182.248 24.2784L186.87 35.466Z" fill="black"/>
<path fill-rule="evenodd" clip-rule="evenodd" d="M159.339 14.4514H166.576C169.131 14.4514 171.077 14.9654 172.415 15.9935C173.773 17.0014 174.452 18.3822 174.452 20.1359C174.452 21.5873 174.118 22.8572 173.449 23.9458C172.8 25.0343 171.584 25.9918 169.8 26.8183L173.662 35.466H167.64L164.66 27.7254H163.018L161.923 35.466H156.389L159.339 14.4514ZM163.811 28.6325L162.716 36.3732H155.34L158.545 13.5443H166.576C169.231 13.5443 171.406 14.0749 172.966 15.271C174.562 16.4578 175.364 18.1121 175.364 20.1359C175.364 21.7285 174.996 23.165 174.23 24.4135C173.565 25.5263 172.452 26.4569 170.987 27.2415L175.065 36.3732H167.013L164.033 28.6325H163.811ZM164.585 23.0084H165.421C166.399 23.0084 166.926 22.7341 167.224 22.3612C167.615 21.8508 167.823 21.2347 167.823 20.4685C167.823 19.948 167.667 19.7233 167.493 19.5955C167.257 19.4213 166.779 19.2591 165.907 19.2591H165.118L164.585 23.0084ZM163.535 23.9155H165.421C166.576 23.9155 167.417 23.5829 167.945 22.9177C168.472 22.2323 168.735 21.4159 168.735 20.4685C168.735 19.7428 168.502 19.2087 168.036 18.866C167.569 18.5233 166.86 18.3519 165.907 18.3519H164.326L163.535 23.9155Z" fill="black"/>
<path fill-rule="evenodd" clip-rule="evenodd" d="M148.643 36.3732L148.308 32.0795H144.299L142.809 36.3732H134.995L144.872 13.5443H152.949L156.385 36.3732H148.643ZM143.648 31.1724H149.153L149.487 35.466H155.326L152.163 14.4514H145.473L136.38 35.466H142.158L143.648 31.1724ZM148.879 27.1811L148.179 18.0798L145.017 27.1811H148.879ZM146.297 26.274H147.894L147.605 22.5106L146.297 26.274Z" fill="black"/>
<path fill-rule="evenodd" clip-rule="evenodd" d="M125.149 36.3732H117.774L120.978 13.5443H128.356L127.231 21.4966H130.832L131.957 13.5443H139.333L136.128 36.3732H128.756L129.942 27.6347H126.396L125.149 36.3732ZM125.604 26.7276H130.986L129.8 35.466H135.335L138.284 14.4514H132.75L131.625 22.4037H126.181L127.307 14.4514H121.772L118.822 35.466H124.357L125.604 26.7276Z" fill="black"/>
<path fill-rule="evenodd" clip-rule="evenodd" d="M120.004 16.7124L115.9 20.8801L115.25 20.294C114.669 19.7712 114.095 19.4144 113.529 19.1992L113.519 19.1951L113.508 19.1907C112.938 18.9574 112.307 18.8357 111.605 18.8357C110.851 18.8357 110.371 18.9936 110.07 19.209C109.803 19.4001 109.689 19.6192 109.689 19.9545C109.689 20.1887 109.765 20.3495 109.997 20.51C110.343 20.7495 111.129 21.0984 112.471 21.5431C114.374 22.1739 115.881 23.0139 116.897 24.1158C117.97 25.2582 118.477 26.7212 118.477 28.4208C118.477 29.8634 118.125 31.2386 117.428 32.5347C116.721 33.8706 115.582 34.9354 114.078 35.7488L114.074 35.7513L114.069 35.7537C112.518 36.5703 110.584 36.9476 108.321 36.9476C104.877 36.9476 101.988 35.8183 99.7324 33.5311L99.0998 32.8897L103.556 28.4588L104.201 29.1195C105.367 30.3137 106.762 30.9003 108.442 30.9003C109.366 30.9003 109.945 30.7093 110.297 30.4467L110.303 30.4421L110.31 30.4377C110.644 30.1969 110.814 29.8845 110.814 29.3884C110.814 29.051 110.699 28.7951 110.428 28.5611L110.42 28.5539L110.412 28.5465C110.09 28.2539 109.418 27.8897 108.271 27.4959C106.199 26.8087 104.589 25.9286 103.566 24.7929C102.533 23.6466 102.026 22.247 102.026 20.6499C102.026 19.3157 102.375 18.0587 103.064 16.8942L103.067 16.8885L103.071 16.883C103.804 15.6844 104.898 14.7505 106.301 14.0633C107.738 13.3389 109.458 13 111.422 13C114.613 13 117.289 14.0122 119.366 16.0777L120.004 16.7124ZM106.709 14.8747C105.432 15.4996 104.479 16.3261 103.85 17.3541C103.242 18.3822 102.938 19.4808 102.938 20.6499C102.938 22.0408 103.374 23.2201 104.246 24.1877C105.118 25.1552 106.557 25.9716 108.564 26.6369C109.74 27.04 110.561 27.4533 111.027 27.8766C111.493 28.2797 111.727 28.7837 111.727 29.3884C111.727 30.1544 111.433 30.7491 110.845 31.1724C110.277 31.5957 109.476 31.8074 108.442 31.8074C106.596 31.8074 105.019 31.1774 103.713 29.9173C103.657 29.8631 103.602 29.8078 103.546 29.7513L100.384 32.8959C100.435 32.948 100.487 32.9994 100.539 33.0502C100.705 33.2125 100.875 33.3681 101.049 33.5172C103.009 35.1994 105.433 36.0405 108.321 36.0405C110.49 36.0405 112.264 35.6777 113.642 34.952C115.021 34.2062 116.014 33.2587 116.623 32.1097C117.251 30.9406 117.565 29.7109 117.565 28.4208C117.565 26.909 117.119 25.6794 116.227 24.7319C115.355 23.7845 114.007 23.0084 112.183 22.4037C110.845 21.9602 109.943 21.5772 109.476 21.2547C109.01 20.9322 108.777 20.4988 108.777 19.9545C108.777 19.3296 109.03 18.8357 109.537 18.4729C110.044 18.11 110.733 17.9286 111.605 17.9286C112.416 17.9286 113.166 18.0697 113.855 18.3519C114.545 18.614 115.214 19.0373 115.862 19.6219L118.721 16.7191C118.671 16.6693 118.62 16.6202 118.569 16.5717C118.399 16.4096 118.225 16.2549 118.046 16.1076C116.267 14.6406 114.059 13.9071 111.422 13.9071C109.557 13.9071 107.986 14.2296 106.709 14.8747Z" fill="black"/>
<path fill-rule="evenodd" clip-rule="evenodd" d="M99.0348 36.3732H90.4956L88.7373 27.4335C88.6856 27.887 88.627 28.3396 88.5615 28.7913L88.5614 28.7922L87.4771 36.3732H80.7713L83.9757 13.5443H92.4196L94.2414 22.5515C94.2767 22.2512 94.3152 21.9493 94.357 21.6457L94.3575 21.6423L95.5354 13.5443H102.239L99.0348 36.3732ZM94.8967 25.7915C94.8759 26.3006 94.8656 26.8041 94.8656 27.3021C94.8656 28.5519 94.9061 29.7311 94.9872 30.8398L91.6725 14.4514H84.7696L81.8198 35.466H86.6854L87.6585 28.6627C87.8781 27.1486 88.0184 25.6239 88.0794 24.0887C88.1029 23.4983 88.1146 22.9064 88.1146 22.313C88.1146 21.1841 88.0842 20.1057 88.0234 19.0776L91.2468 35.466H98.241L101.191 14.4514H96.3252L95.2609 21.7687C95.0713 23.1462 94.9499 24.4871 94.8967 25.7915Z" fill="black"/>
<path fill-rule="evenodd" clip-rule="evenodd" d="M82.5326 13.5443L79.3282 36.3732H71.9513L75.1557 13.5443H82.5326ZM81.4841 14.4514H75.9496L72.9998 35.466H78.5344L81.4841 14.4514Z" fill="black"/>
<path fill-rule="evenodd" clip-rule="evenodd" d="M75.3801 13.5443L68.641 36.3732H63.375H63.3905H59.8708L59.8509 26.1888L56.8419 36.3732H52.5185H52.613H48.2312L48 13.5443H55.3442L54.934 23.8893L57.9359 13.5443H65.3797L65.3035 24.1235L68.1064 13.5443H75.3801ZM64.3392 31.3236L64.4609 14.4514H58.6222L53.7263 31.3236L54.3953 14.4514H48.9215L49.1344 35.466H56.159L60.7509 19.9243L60.7813 35.466H67.958L74.1616 14.4514H68.8095L64.3392 31.3236Z" fill="black"/>
</svg>
