<svg width="48" height="48" viewBox="0 0 48 48" fill="none" xmlns="http://www.w3.org/2000/svg">
<path d="M2.45248 10.9711C2.48749 10.926 2.60305 10.5764 2.63613 10.4916C3.74528 7.64943 6.54795 5.26747 9.27463 4.05208C12.1162 2.78549 14.5402 2.46989 17.4814 3.59302C17.5306 3.5624 17.9408 2.85417 18.0264 2.73808C20.5785 -0.724205 26.2186 -0.792014 28.9661 2.4588C29.1698 2.6723 29.3408 2.97122 29.499 3.22177C29.644 3.46259 29.7553 3.66491 29.8557 3.92807C30.9954 3.17748 33.3167 2.77309 34.6561 2.90942C38.4635 3.31707 42.3027 5.63174 44.4649 8.78545C45.798 10.7299 46.2667 13.3236 45.8314 15.6241C45.4854 17.4525 44.5207 19.3638 43.0022 20.4959C43.5398 21.012 43.8908 21.6876 43.9048 22.4335C43.9127 22.8491 43.7901 23.4979 43.5242 23.817C43.2836 24.1058 43.0687 24.4361 42.8752 24.7334C42.6092 24.9929 42.2839 25.1265 41.9261 25.1535C41.6319 25.1757 41.4543 24.9309 41.334 24.9254C40.5875 24.8911 40.0222 24.7225 39.4656 24.1765C38.954 23.6569 38.6936 23.0547 38.6981 22.3284C38.7026 21.6139 38.9543 20.9971 39.4691 20.5004C40.1537 19.8401 41.0101 19.6371 41.9135 19.882C41.9444 19.6349 42.0481 19.3272 42.1057 19.0757C42.4931 17.3842 41.3516 15.7929 39.673 15.4856C39.5221 15.458 39.3162 15.5071 39.1603 15.4891C36.8586 15.2233 35.4112 17.7661 34.8561 19.6573C34.7436 20.0408 34.6759 20.4352 34.5938 20.8208C34.8618 20.6742 35.1195 20.5343 35.4267 20.487C35.691 20.4464 35.9966 20.4419 36.2557 20.5228C37.265 20.8378 37.6788 22.1644 37.3678 23.0997C37.2423 23.4771 37.0453 23.8263 36.9085 24.1997C36.7858 24.517 36.6541 24.8804 36.5037 25.1807C36.1807 25.8257 35.4411 26.1979 34.8846 26.6374C34.553 26.8993 34.1671 27.2653 33.8118 27.4635C33.5131 27.6301 32.9908 27.6466 32.6671 27.5405C32.4986 27.4853 32.3974 27.3674 32.3127 27.2136C31.782 28.1042 30.8227 29.1174 30.1466 29.9159C29.9464 30.1522 29.6986 30.3927 29.5139 30.6332C31.4492 30.6112 33.744 30.6077 35.1948 32.0888C36.7594 33.6859 37.1548 36.5547 37.157 38.7062C37.1594 41.1038 37.1154 44.0251 35.3408 45.8578C34.0769 47.1314 32.5817 47.4286 30.8512 47.4249C30.3056 47.4234 29.3072 47.3752 28.788 47.2552C28.5283 47.2069 28.1155 47.1244 27.8665 47.0513C27.005 46.8863 26.1881 46.2256 25.6191 45.5879L25.6011 45.6097C24.9111 46.4581 23.7195 47.0199 22.6579 47.1797C20.162 47.5561 17.9526 47.3199 15.8445 45.9032C15.7292 46.0284 15.5668 46.1469 15.4307 46.2512C14.2747 47.137 12.6209 47.2861 11.2216 47.0902C10.9342 47.0499 10.2425 46.9439 10.1144 46.6966C10.075 46.6204 10.0753 46.4014 10.0744 46.303L10.0745 36.6201L10.0735 33.8678C10.0733 31.967 9.92956 30.5712 12.361 30.6496C13.0752 30.6727 13.8548 30.6389 14.5747 30.6529C15.36 30.6681 16.3654 30.5759 16.8532 31.3221C17.6264 30.8308 17.7762 30.9313 18.5385 30.6903L18.5672 30.681C18.2306 30.3639 18.0018 30.0235 17.6958 29.7075C16.9355 28.9225 16.3396 28.0936 15.6925 27.2225C15.553 27.4068 15.454 27.5204 15.2142 27.5696C14.7921 27.6562 14.3444 27.5784 13.9908 27.3278C13.7336 27.1337 13.4921 26.9399 13.2424 26.7307C12.7047 26.2801 11.9922 25.915 11.5899 25.3361C11.3233 24.9524 11.2249 24.4179 11.0258 24.0312C10.5241 23.0562 10.2619 22.1437 10.9139 21.1554C11.3697 20.4524 12.2219 20.312 12.9721 20.6132C13.0786 20.6559 13.3025 20.8363 13.3981 20.8185C13.387 20.6698 13.3206 20.3362 13.2843 20.1806C12.9181 18.6103 12.098 16.8723 10.7196 15.9562C10.1741 15.5936 9.59216 15.4518 8.95658 15.4714C8.60333 15.4824 8.49022 15.4475 8.1237 15.5358C7.2897 15.7366 6.74206 16.1539 6.28643 16.8649C5.63599 17.8799 5.84294 18.7376 6.09326 19.8369C8.53489 19.2901 10.257 22.1056 8.66994 24.0162C8.27192 24.4954 7.64942 24.8184 7.04332 24.9258C6.93556 24.9449 6.68899 24.9314 6.55512 24.941C6.39148 25.0582 6.23974 25.1511 6.04385 25.1522C5.4483 25.1556 5.05366 24.8257 4.81104 24.3006C4.79041 24.256 4.57912 24.0127 4.53512 23.9545C4.22401 23.5426 4.06102 23.0688 4.06437 22.5516C4.0409 21.6464 4.35676 21.0985 4.96704 20.4692C2.89292 18.8919 1.8511 15.9288 2.02143 13.389C2.05311 12.9167 2.14013 12.4393 2.1977 11.9686C2.22772 11.7232 2.35127 11.4478 2.39525 11.2087C2.41132 11.1706 2.44155 11.0199 2.45248 10.9711ZM17.5306 20.2194C17.4579 20.2287 17.424 20.2177 17.3891 20.2592C17.4598 20.2794 17.459 20.2796 17.5323 20.2804L17.5306 20.2194Z" fill="#020101"/>
<path d="M19.9594 12.5031C20.3781 12.4931 20.8772 12.684 21.2358 12.8878C20.9232 13.7174 20.9004 14.5843 21.3744 15.3609C22.2328 16.7536 23.7441 17.1101 25.1442 16.2663C25.9639 15.7723 26.4606 14.893 26.4261 13.9281C26.4166 13.6627 26.3356 13.1588 26.2026 12.9347C26.6885 12.783 27.1089 12.5587 27.628 12.5176C28.9191 12.4157 30.2101 12.9538 31.1754 13.788C32.4857 14.9205 32.944 16.5768 32.8327 18.2574C32.7948 18.8311 32.6697 19.4447 32.688 20.014C32.7102 20.7086 33.023 21.3583 33.0711 22.0511C33.2074 24.014 31.8362 26.8059 30.7652 28.4397C30.3096 29.1348 29.7997 29.7918 29.2569 30.4206C29.1367 30.5639 28.9591 30.772 28.8247 30.9109C27.8789 31.8874 26.737 33.123 25.5406 33.7617C25.2354 33.9247 24.5601 34.0044 24.2329 34.0249C23.0454 34.1243 22.3212 33.7403 21.4353 33.0055C18.885 30.8903 16.7097 28.2322 15.5547 25.0976C15.243 24.2516 15.0154 23.5151 14.9593 22.6026C14.8526 21.7504 15.3137 20.9216 15.3709 20.1148C15.4128 19.5241 15.2398 18.6738 15.2166 18.0524C15.1621 16.5936 15.5278 15.1782 16.5489 14.098C17.4173 13.1795 18.701 12.5591 19.9594 12.5031ZM17.5307 20.2196C17.458 20.2289 17.424 20.2179 17.3891 20.2594C17.4598 20.2796 17.459 20.2798 17.5323 20.2806L17.5307 20.2196Z" fill="#F6B080"/>
<path d="M28.9521 25.1005C29.2178 24.801 29.7257 24.8601 30.0567 25.0061C30.1548 25.1446 30.1651 25.1703 30.1786 25.3387L30.1406 25.3565L30.1226 25.3333L30.096 25.2999C29.9867 25.161 29.9372 25.1295 29.7682 25.0785C29.6891 25.1388 29.6455 25.1782 29.5737 25.2474C29.4647 25.3929 29.2302 25.6814 29.1222 25.827C28.9913 26.0036 28.297 27.0195 28.1707 27.1246C27.9559 27.4319 27.6941 27.8312 27.4713 28.1244C26.2321 29.9403 24.5742 31.6965 22.3719 30.1238C21.7756 29.6979 21.4704 29.3808 21.0358 28.7944C20.9347 28.6539 20.8356 28.5083 20.7368 28.3659C20.4288 27.995 20.016 27.3166 19.6859 26.8872C19.6387 26.8529 19.5193 26.6783 19.4847 26.6237C19.1284 26.1728 18.8734 25.8284 18.4905 25.3874C18.0775 25.2067 18.133 25.3563 17.869 25.4927C17.8592 25.4257 17.9013 25.3142 17.9387 25.26C18.1987 24.8835 18.8655 25.2424 19.1106 25.3943C19.1851 25.4315 19.2637 25.4688 19.335 25.5108C19.4796 25.5453 19.6706 25.636 19.8213 25.6868C20.1174 25.7867 20.3867 25.8457 20.6933 25.9002C21.0492 25.981 21.511 26.0748 21.8726 26.1132C22.8006 26.2117 23.1693 26.1707 24.0511 26.5303C24.84 26.1567 25.7527 26.2149 26.6185 26.0633C27.4718 25.9139 27.874 25.7782 28.6673 25.4656C28.8337 25.3816 28.9738 25.358 29.1373 25.2524C29.0897 25.1882 29.0186 25.1467 28.9521 25.1005Z" fill="#020101"/>
<path d="M29.5737 25.2476C29.4647 25.393 29.2302 25.6815 29.1222 25.8271C28.9913 26.0037 28.297 27.0196 28.1707 27.1247C27.956 27.432 27.6941 27.8314 27.4713 28.1246C26.2321 29.9405 24.5742 31.6966 22.372 30.1239C21.7756 29.6981 21.4705 29.381 21.0358 28.7945C20.9347 28.654 20.8356 28.5084 20.7368 28.366C20.4288 27.9951 20.0161 27.3168 19.6859 26.8873C19.6387 26.853 19.5193 26.6784 19.4847 26.6239C19.484 26.498 19.4097 26.3514 19.4948 26.2695C19.6783 26.2617 19.7792 26.5272 19.9632 26.6226L19.9885 26.6462C20.2428 26.8872 20.5064 27.2705 20.7626 27.5223C21.6565 28.4006 22.7208 29.5664 24.0587 29.6254C24.2352 29.6332 24.5174 29.5639 24.6777 29.5151C24.7706 29.4942 24.9356 29.4246 25.0301 29.3879C26.2114 28.9392 27.6893 27.022 28.5844 26.1005C28.7672 25.9123 28.975 25.7259 29.1725 25.553C29.2957 25.4451 29.4286 25.2828 29.5737 25.2476Z" fill="#ED2E2E"/>
<path d="M21.0622 28.7273C21.8405 29.6838 22.8893 30.7153 24.2416 30.5601C25.1602 30.4547 26.0697 29.7709 26.6657 29.1003C26.9316 28.8012 27.1968 28.4089 27.4481 28.0842L27.4713 28.1244C26.2321 29.9403 24.5742 31.6965 22.3719 30.1238C21.7756 29.698 21.4704 29.3808 21.0358 28.7944L21.0622 28.7273Z" fill="url(#paint0_linear_17851_28776)"/>
<path d="M19.6859 26.8873L19.7266 26.8542C19.8409 26.9641 20.6964 28.1688 20.7617 28.3051L20.7368 28.3659C20.4288 27.995 20.0161 27.3167 19.6859 26.8873Z" fill="#B02B23"/>
<path d="M27.4481 28.0841C27.5395 27.9316 28.0385 27.1516 28.1707 27.1245C27.956 27.4318 27.6941 27.8312 27.4713 28.1244L27.4481 28.0841Z" fill="#5E1712"/>
<path d="M20.7617 28.3052C20.8651 28.4699 20.942 28.5733 21.0622 28.7274L21.0358 28.7945C20.9347 28.6539 20.8356 28.5084 20.7368 28.366L20.7617 28.3052Z" fill="#2B0706"/>
<path d="M22.8583 28.0252C22.9615 27.9943 23.2623 28.1255 23.4348 28.1409C23.6873 28.1636 23.8873 28.1472 24.1397 28.1465C24.2873 28.1462 24.3624 28.181 24.5219 28.1644L24.6327 28.154C24.8502 28.1419 25.0189 28.0457 25.2217 28.0407C25.3297 28.5344 25.4595 28.6604 25.2224 29.127C25.096 29.2156 24.9898 29.2452 24.8452 29.2948C24.9064 29.3263 24.9677 29.3593 25.0302 29.3878C24.9356 29.4245 24.7706 29.4941 24.6777 29.515C24.6662 29.4614 24.6448 29.451 24.6045 29.4054C24.2732 29.5318 23.7621 29.6885 23.4817 29.3796C23.4685 29.3227 23.4561 29.2908 23.4364 29.2362C23.4208 29.1476 23.4232 29.0895 23.357 29.0328L23.2246 29.2769C23.0406 29.2256 22.9032 29.182 22.7727 29.0398C22.7222 29.019 22.6989 29.002 22.6526 28.9738C22.6549 28.8647 22.665 28.839 22.6078 28.7538C22.6886 28.4837 22.7154 28.3117 22.8221 28.0306L22.8583 28.0252Z" fill="#F0F0EE"/>
<path d="M24.6327 28.154C24.8502 28.1419 25.0189 28.0457 25.2217 28.0408C25.3297 28.5345 25.4595 28.6605 25.2224 29.127C25.0959 29.2157 24.9898 29.2452 24.8452 29.2949L24.794 29.2792C24.7201 29.1727 24.707 29.0982 24.6705 28.9744L24.6522 28.8151L24.601 28.7648C24.5666 28.5613 24.5649 28.37 24.5219 28.1644L24.6327 28.154Z" fill="#F0F0EE"/>
<path d="M24.5219 28.1645L24.6327 28.1541C24.5416 28.2537 24.6323 28.6711 24.6522 28.8152L24.601 28.7649C24.5666 28.5614 24.5649 28.3701 24.5219 28.1645Z" fill="#9FA2A0"/>
<path d="M24.6705 28.9744C24.707 29.0981 24.7201 29.1726 24.7941 29.2791L24.8452 29.2948C24.9064 29.3263 24.9677 29.3593 25.0302 29.3878C24.9356 29.4244 24.7706 29.4941 24.6777 29.5149C24.6662 29.4614 24.6449 29.451 24.6045 29.4053L24.6119 29.1832C24.6307 29.1005 24.6403 29.0529 24.6705 28.9744Z" fill="#190C0A"/>
<path d="M22.8221 28.0305L22.8583 28.0251C22.7545 28.4099 22.628 28.6094 22.7727 29.0398C22.7222 29.0189 22.6989 29.002 22.6526 28.9737C22.6549 28.8646 22.665 28.839 22.6078 28.7537C22.6886 28.4837 22.7154 28.3116 22.8221 28.0305Z" fill="#656666"/>
<path d="M23.3571 29.0328C23.3769 28.8518 23.3895 28.3167 23.5168 28.2212C23.4024 28.5 23.4323 28.9275 23.4365 29.2362C23.4209 29.1476 23.4232 29.0895 23.3571 29.0328Z" fill="#8E8C90"/>
<path d="M24.601 28.7649L24.6522 28.8152L24.6705 28.9745C24.6402 29.053 24.6306 29.1007 24.6118 29.1833C24.6104 29.0438 24.6054 28.9043 24.601 28.7649Z" fill="#3A1908"/>
<path d="M24.0511 26.5302C24.84 26.1566 25.7527 26.2148 26.6185 26.0632C27.4718 25.9138 27.874 25.7781 28.6673 25.4656C28.7315 25.4866 28.7605 25.495 28.8221 25.5249L28.8279 25.5776C28.2791 25.8361 27.2636 26.2863 26.6935 26.3869C25.9592 26.5164 24.79 26.7373 24.0521 26.7129C23.0252 26.6789 21.5636 26.4357 20.6082 26.1276C20.5995 26.0389 20.6475 25.9796 20.6933 25.9002C21.0492 25.9809 21.511 26.0748 21.8726 26.1132C22.8006 26.2116 23.1693 26.1706 24.0511 26.5302Z" fill="#ED2E2E"/>
<path d="M22.7223 26.7141C22.7784 26.7206 22.9919 26.7412 23.0346 26.752C23.1777 26.7674 23.3304 26.7802 23.4707 26.8087L23.5958 26.8323C23.6919 26.8704 23.7946 26.9039 23.8779 26.9629L24.0654 27.0647C24.0621 27.3772 24.0561 27.6907 24.0234 28.0018C24.2721 28.0675 24.9573 28.1338 25.1042 27.8742L25.1445 27.8513C25.357 28.056 25.7741 27.9111 25.9828 27.769C26.0607 27.7294 26.1246 27.697 26.2052 27.6635L26.3058 27.6809L26.2895 27.7563L26.2623 27.8102C26.2496 27.8112 26.1953 27.7981 26.1803 27.795C25.9163 27.8679 25.8945 27.9592 25.4933 28.0395C25.3907 28.0352 25.3239 28.0345 25.2217 28.0408C25.0189 28.0457 24.8502 28.142 24.6327 28.154L24.5219 28.1644C24.3624 28.1811 24.2873 28.1462 24.1397 28.1466C23.8873 28.1472 23.6873 28.1636 23.4348 28.141C23.2622 28.1255 22.9615 27.9944 22.8583 28.0253L22.822 28.0306C22.5325 28.0638 22.3349 28.0161 22.0844 27.8825L22.1555 27.8355C22.3568 27.9206 22.7777 28.0566 22.9183 27.8234C22.8802 27.7286 22.8839 27.3367 22.8496 27.1992C22.8039 27.0164 22.752 26.9858 22.6912 26.8368L22.68 26.8088L22.7503 26.817L22.7223 26.7141Z" fill="#F0F0EE"/>
<path d="M26.2052 27.6633L26.3058 27.6807L26.2895 27.7561L26.2623 27.81C26.2496 27.811 26.1953 27.798 26.1803 27.7948C25.9163 27.8677 25.8945 27.959 25.4933 28.0393C25.3907 28.0351 25.3239 28.0343 25.2217 28.0406C25.0189 28.0456 24.8502 28.1418 24.6327 28.1538L24.5219 28.1642C24.3624 28.1809 24.2873 28.1461 24.1397 28.1464C23.8873 28.147 23.6873 28.1634 23.4348 28.1408C23.2622 28.1253 22.9615 27.9942 22.8583 28.0251L22.822 28.0305C22.5325 28.0636 22.3349 28.0159 22.0844 27.8823L22.1555 27.8353C22.3568 27.9204 22.7777 28.0564 22.9183 27.8232L22.9599 27.8197C22.9887 27.892 22.9901 27.9351 23.0707 27.9679C23.2815 28.054 23.7608 28.1035 23.9702 28.0133L24.0234 28.0016C24.2721 28.0673 24.9573 28.1336 25.1042 27.874L25.1445 27.8512C25.357 28.0558 25.7741 27.9109 25.9828 27.7688C26.0607 27.7292 26.1246 27.6968 26.2052 27.6633Z" fill="#020101"/>
<path d="M22.7223 26.7141C22.7783 26.7206 22.9919 26.7412 23.0346 26.752C23.1777 26.7674 23.3304 26.7802 23.4707 26.8087C23.1954 26.8289 23.0913 26.8047 22.9189 27.0309L22.9599 27.8199L22.9183 27.8234C22.8802 27.7286 22.8839 27.3367 22.8496 27.1992C22.8039 27.0164 22.752 26.9858 22.6912 26.8368L22.68 26.8088L22.7503 26.817L22.7223 26.7141Z" fill="#9FA2A0"/>
<path d="M22.7224 26.7141C22.7784 26.7206 22.9919 26.7412 23.0346 26.752C22.9789 26.7938 22.9624 26.8153 22.9218 26.8695C22.8378 26.9034 22.8149 26.888 22.7503 26.817L22.7224 26.7141Z" fill="#BBB3AF"/>
<path d="M23.8779 26.9629L24.0654 27.0647C24.0621 27.3771 24.0561 27.6906 24.0234 28.0017L23.9702 28.0134C23.9897 27.6409 24.056 27.2827 23.8779 26.9629Z" fill="#9FA2A0"/>
<path d="M21.3493 26.478C21.8085 26.5536 22.2625 26.6411 22.7224 26.7141L22.7504 26.817L22.68 26.8089L22.6912 26.8369C22.752 26.9858 22.804 27.0164 22.8496 27.1992C22.8839 27.3367 22.8802 27.7287 22.9184 27.8234C22.7778 28.0566 22.3568 27.9207 22.1555 27.8355C22.0659 27.7815 21.9635 27.7163 21.8948 27.6381L21.8412 27.648L21.8408 27.5562C21.7774 27.3136 21.8249 27.0945 21.7362 26.8337C21.685 26.7763 21.4312 26.5609 21.3604 26.5112L21.3493 26.478Z" fill="#F0F0EE"/>
<path d="M21.3493 26.478C21.8085 26.5536 22.2625 26.6411 22.7224 26.7141L22.7504 26.817L22.68 26.8089C22.4389 26.7227 22.1743 26.7556 21.9358 26.8312C21.8641 27.0354 21.8245 27.3405 21.8956 27.5436L21.8408 27.5562C21.7774 27.3136 21.8249 27.0945 21.7362 26.8337C21.685 26.7763 21.4312 26.5609 21.3604 26.5112L21.3493 26.478Z" fill="#C7C6C5"/>
<path d="M21.8408 27.5561L21.8956 27.5435L21.8948 27.638L21.8412 27.6479L21.8408 27.5561Z" fill="#656666"/>
<path d="M24.689 26.8617C24.9498 26.8318 25.057 26.8233 25.3205 26.8196C25.1691 27.2228 25.1646 27.4112 25.1445 27.8512L25.1042 27.874C24.9573 28.1336 24.2721 28.0673 24.0234 28.0016C24.0561 27.6905 24.0621 27.377 24.0654 27.0645C24.1356 26.9899 24.1448 26.9814 24.2306 26.9251C24.3644 26.8973 24.5571 26.8504 24.689 26.8617Z" fill="#F0F0EE"/>
<path d="M24.689 26.8617C24.9498 26.8318 25.057 26.8233 25.3205 26.8196C25.1691 27.2228 25.1646 27.4112 25.1445 27.8512L25.1042 27.874C25.0858 27.3752 25.3081 26.9763 24.689 26.8617Z" fill="url(#paint1_linear_17851_28776)"/>
<path d="M25.3205 26.8198C26.1248 26.5983 26.2755 27.1019 25.9828 27.7691C25.7741 27.9112 25.357 28.056 25.1445 27.8514C25.1646 27.4115 25.1691 27.2231 25.3205 26.8198Z" fill="#F0F0EE"/>
<path d="M26.1803 27.7949C26.1953 27.7981 26.2496 27.8111 26.2623 27.8102L26.2733 27.9419C26.2761 28.0608 26.2765 28.1296 26.3922 28.1923C26.3365 28.2457 26.2989 28.2927 26.2267 28.3172C26.1109 28.4555 26.0006 28.5873 25.8552 28.6965C25.7305 28.8362 25.3985 29.0596 25.2224 29.127C25.4595 28.6604 25.3297 28.5344 25.2217 28.0407C25.3239 28.0345 25.3908 28.0352 25.4933 28.0394C25.8945 27.9591 25.9163 27.8678 26.1803 27.7949Z" fill="#F0F0EE"/>
<path d="M25.2217 28.0408C25.3239 28.0345 25.3908 28.0352 25.4933 28.0394L25.3017 28.0674C25.2699 28.1653 25.4206 28.6332 25.4764 28.7466C25.6067 28.82 25.7278 28.6845 25.8552 28.6965C25.7305 28.8362 25.3985 29.0596 25.2224 29.127C25.4595 28.6604 25.3297 28.5344 25.2217 28.0408Z" fill="#656666"/>
<path d="M26.1803 27.7949C26.1953 27.7981 26.2496 27.8111 26.2623 27.8102L26.2733 27.9419C26.2761 28.0608 26.2764 28.1296 26.3922 28.1923C26.3364 28.2457 26.2989 28.2927 26.2267 28.3172C26.227 28.1645 26.23 27.9365 26.1803 27.7949Z" fill="#020101"/>
<path d="M21.8133 27.9948C21.8444 27.9257 21.8536 27.8898 21.9111 27.8396C22.0059 27.8275 21.9821 27.835 22.0844 27.8825C22.3349 28.016 22.5325 28.0638 22.822 28.0306C22.7154 28.3117 22.6886 28.4838 22.6078 28.7538C22.5252 28.7517 22.3113 28.7007 22.2236 28.6808C22.0698 28.5571 21.8424 28.3812 21.7757 28.1975C21.7931 28.1415 21.794 28.0929 21.7989 28.0347L21.8133 27.9948Z" fill="#F0F0EE"/>
<path d="M21.3604 26.5112C21.4312 26.5609 21.685 26.7763 21.7362 26.8337C21.8248 27.0945 21.7774 27.3136 21.8408 27.5563L21.8412 27.648C21.7447 27.6815 21.7707 27.6695 21.6544 27.643C21.4766 27.5685 21.4454 27.5656 21.2996 27.4323C21.1798 27.3227 21.1358 26.7489 21.1493 26.6095L21.2006 26.6341C21.2598 26.6293 21.3077 26.5624 21.3604 26.5112Z" fill="#F0F0EE"/>
<path d="M26.2052 27.6634C26.1958 27.4093 26.196 26.86 26.4304 26.7089C26.5134 26.6554 26.7462 26.6179 26.8438 26.6373C26.8712 26.706 26.8615 26.8507 26.8609 26.9314C26.8396 27.2947 26.8435 27.4091 26.5352 27.6386C26.4582 27.6539 26.3836 27.6696 26.3058 27.6807L26.2052 27.6634Z" fill="#F0F0EE"/>
<path d="M27.4438 26.3276C27.7895 26.1897 28.1981 26.0012 28.5322 25.8774C28.2336 26.2775 27.6059 26.9727 27.2422 27.3519C27.2159 27.3471 27.1447 27.3215 27.1154 27.312C27.2062 27.2451 27.297 27.1865 27.3911 27.1246C27.4 26.9166 27.4665 26.7612 27.3964 26.5676C27.3478 26.5308 27.3464 26.5331 27.2878 26.513L27.3001 26.5081L27.3075 26.4905C27.2164 26.4797 27.0771 26.4698 26.9979 26.5204L26.9388 26.4999C26.9978 26.4551 27.3261 26.3899 27.4206 26.3682L27.4438 26.3276Z" fill="#C7C6C5"/>
<path d="M24.287 26.8409C25.0588 26.6764 25.942 26.6827 26.7776 26.4995C26.8939 26.6553 26.9101 26.7355 26.8609 26.9314C26.8615 26.8507 26.8712 26.706 26.8438 26.6373C26.7462 26.6179 26.5134 26.6555 26.4304 26.709C26.196 26.8601 26.1958 27.4094 26.2052 27.6635C26.1246 27.697 26.0607 27.7294 25.9828 27.769C26.2755 27.1019 26.1248 26.5982 25.3205 26.8197C25.057 26.8234 24.9498 26.832 24.6889 26.8619C24.557 26.8506 24.3644 26.8975 24.2306 26.9252C24.2499 26.8567 24.2313 26.8837 24.287 26.8409Z" fill="url(#paint2_linear_17851_28776)"/>
<path d="M20.5805 26.4885C20.7052 26.4786 20.827 26.4677 20.9516 26.4551C21.0552 26.6506 21.2115 27.2126 21.1377 27.4093C21.041 27.4167 20.897 27.3904 20.8106 27.34C20.7371 27.2725 20.6703 27.1943 20.6033 27.1199C20.6016 26.8979 20.571 26.7261 20.5805 26.4885Z" fill="#F0F0EE"/>
<path d="M20.0069 26.0508C20.2733 26.1561 20.4769 26.2381 20.7537 26.3163C20.8409 26.3409 21.3039 26.4561 21.3493 26.478L21.3603 26.5111C21.3076 26.5623 21.2597 26.6292 21.2005 26.634L21.1493 26.6094C21.1358 26.7488 21.1798 27.3226 21.2996 27.4322C21.4454 27.5656 21.4766 27.5685 21.6543 27.6429L21.6377 27.6997C21.5085 27.6261 21.4674 27.5765 21.3284 27.635L21.2851 27.6058L21.1052 27.6551L21.0397 27.5997C21.0199 27.5703 20.8433 27.3768 20.8106 27.3399C20.897 27.3903 21.041 27.4166 21.1377 27.4092C21.2114 27.2125 21.0552 26.6505 20.9515 26.455C20.827 26.4676 20.7052 26.4785 20.5805 26.4884C20.5072 26.4853 20.4917 26.4885 20.421 26.4656C20.3092 26.2943 20.2227 26.2511 20.0397 26.21C20.0225 26.1659 20.0151 26.0997 20.0069 26.0508Z" fill="#BBB3AF"/>
<path d="M21.0397 27.5998C21.14 27.5013 21.0948 27.5206 21.2215 27.488L21.277 27.5031C21.3097 27.5677 21.3063 27.5346 21.2851 27.6059L21.1052 27.6551L21.0397 27.5998Z" fill="#F0F0EE"/>
<path d="M18.4905 25.3875C19.0168 25.5671 19.6366 26.1737 19.9632 26.6226C19.7791 26.5271 19.6782 26.2616 19.4947 26.2695C19.4097 26.3513 19.484 26.498 19.4847 26.6238C19.1284 26.1728 18.8734 25.8284 18.4905 25.3875Z" fill="#ED2E2E"/>
<path d="M27.2878 26.5129C27.3464 26.533 27.3478 26.5307 27.3964 26.5675C27.4665 26.7611 27.4 26.9165 27.3911 27.1246C27.297 27.1864 27.2062 27.245 27.1154 27.3119C27.0163 27.3228 27.0148 27.3399 26.9423 27.3024C26.9088 27.2186 26.9283 26.9785 26.9402 26.8838C26.9821 26.5515 26.9476 26.5189 27.2878 26.5129Z" fill="#F0F0EE"/>
<path d="M21.3284 27.6349C21.4675 27.5764 21.5085 27.626 21.6377 27.6996L21.6544 27.6428C21.7707 27.6693 21.7447 27.6813 21.8412 27.6479L21.8948 27.638C21.9635 27.7162 22.0659 27.7813 22.1555 27.8354L22.0844 27.8824C21.9821 27.8348 22.006 27.8273 21.9111 27.8395C21.8537 27.8897 21.8444 27.9256 21.8133 27.9947L21.7989 28.0346C21.7941 28.0928 21.7931 28.1414 21.7757 28.1974C21.7442 28.2044 21.7604 28.1963 21.7341 28.2322C21.5258 28.1031 21.2656 27.8378 21.1052 27.655L21.2852 27.6057L21.3284 27.6349Z" fill="#F5F4F3"/>
<path d="M21.8412 27.6478L21.8948 27.6379C21.9635 27.7161 22.0659 27.7813 22.1555 27.8353L22.0844 27.8823C21.9821 27.8348 22.0059 27.8273 21.9111 27.8395C21.8536 27.8897 21.8444 27.9256 21.8133 27.9947L21.7891 27.9726C21.8226 27.8546 21.8378 27.8705 21.8096 27.7708C21.7475 27.719 21.7156 27.7181 21.6377 27.6995L21.6543 27.6428C21.7707 27.6693 21.7447 27.6813 21.8412 27.6478Z" fill="#242118"/>
<path d="M21.3284 27.6349C21.4675 27.5764 21.5085 27.626 21.6377 27.6995C21.6073 27.7547 21.6285 27.7325 21.5632 27.757C21.478 27.7444 21.4027 27.6837 21.3284 27.6349Z" fill="#C7C6C5"/>
<path d="M21.7805 28.0144L21.7989 28.0346C21.794 28.0928 21.7931 28.1414 21.7757 28.1974C21.7442 28.2043 21.7604 28.1963 21.734 28.2322C21.7251 28.1362 21.7448 28.1079 21.7805 28.0144Z" fill="#4E4D4D"/>
<path d="M19.1106 25.3943C19.1851 25.4315 19.2636 25.4687 19.335 25.5107C19.4795 25.5453 19.6706 25.6359 19.8213 25.6868C20.1174 25.7867 20.3867 25.8456 20.6932 25.9002C20.6474 25.9796 20.5994 26.0389 20.6082 26.1276C20.1808 25.9984 19.3885 25.6877 19.0089 25.4871L19.0356 25.4475L19.0296 25.4347L19.1106 25.3943Z" fill="#B02B23"/>
<path d="M19.1106 25.3943C19.1851 25.4315 19.2637 25.4687 19.335 25.5107C19.2462 25.5136 19.1257 25.4718 19.0356 25.4475L19.0297 25.4347L19.1106 25.3943Z" fill="#190C0A"/>
<path d="M20.0397 26.21C20.2227 26.2511 20.3093 26.2942 20.421 26.4655C20.4917 26.4884 20.5072 26.4853 20.5805 26.4883C20.571 26.7259 20.6016 26.8977 20.6033 27.1198C20.5006 27.0115 20.4081 26.896 20.3131 26.7809L19.9571 26.3904L19.9655 26.3207L19.9413 26.2244L20.0397 26.21Z" fill="#BABBB5"/>
<path d="M19.9655 26.3207C20.1301 26.3045 20.1861 26.4142 20.296 26.5305C20.3111 26.6081 20.3455 26.7173 20.3131 26.7809L19.9571 26.3904L19.9655 26.3207Z" fill="#F5F4F3"/>
<path d="M26.7776 26.4996C27.0287 26.4399 27.1513 26.355 27.4438 26.3276L27.4206 26.3682C27.3261 26.39 26.9977 26.4551 26.9388 26.4999L26.9979 26.5204C27.077 26.4699 27.2163 26.4798 27.3075 26.4906L27.3001 26.5081L27.2877 26.5131C26.9475 26.5191 26.9821 26.5516 26.9402 26.8839C26.9283 26.9786 26.9088 27.2188 26.9423 27.3025C27.0147 27.34 27.0163 27.3229 27.1154 27.312C27.1446 27.3216 27.2158 27.3471 27.2422 27.352C27.2248 27.369 27.1052 27.4885 27.0933 27.4972C27.0421 27.4428 27.0398 27.4457 26.9726 27.4102C26.8351 27.44 26.7413 27.6004 26.553 27.678L26.5352 27.6387C26.8435 27.4092 26.8396 27.2948 26.8609 26.9315C26.9101 26.7355 26.8939 26.6553 26.7776 26.4996Z" fill="#BABBB5"/>
<path d="M26.553 27.6779C26.7413 27.6004 26.8351 27.4399 26.9726 27.4102C27.0398 27.4456 27.0421 27.4428 27.0933 27.4971L26.8478 27.7877C26.4667 27.7494 26.5991 27.8261 26.2733 27.942L26.2623 27.8102L26.2896 27.7562L26.3058 27.6808C26.3836 27.6697 26.4582 27.654 26.5352 27.6387L26.553 27.6779Z" fill="#F0F0EE"/>
<path d="M26.5352 27.6387L26.553 27.6779C26.4547 27.7116 26.3904 27.7341 26.2896 27.7562L26.3058 27.6808C26.3836 27.6697 26.4582 27.654 26.5352 27.6387Z" fill="#656666"/>
<path d="M26.2733 27.942C26.5991 27.8262 26.4666 27.7495 26.8477 27.7878C26.6869 27.9675 26.5954 28.0556 26.3922 28.1924C26.2765 28.1297 26.2761 28.0609 26.2733 27.942Z" fill="#C7C6C5"/>
<path d="M23.5958 26.8323L24.287 26.8409C24.2313 26.8837 24.2499 26.8567 24.2306 26.9252C24.1447 26.9816 24.1356 26.99 24.0654 27.0646L23.8779 26.9629C23.7946 26.9039 23.6919 26.8704 23.5958 26.8323Z" fill="#4E4D4D"/>
<path d="M29.1374 25.2524C29.2172 25.1684 29.3126 25.1447 29.4202 25.1135C29.2184 25.3334 29.0499 25.4012 28.8279 25.5777L28.8221 25.5249C28.7605 25.4951 28.7315 25.4866 28.6673 25.4656C28.8337 25.3816 28.9739 25.358 29.1374 25.2524Z" fill="#B02B23"/>
<path d="M22.2236 28.6807C22.3113 28.7005 22.5252 28.7515 22.6078 28.7536C22.665 28.8389 22.6548 28.8646 22.6526 28.9736C22.4581 28.869 22.3906 28.8214 22.2236 28.6807Z" fill="#9FA2A0"/>
<path d="M28.9521 25.1005C29.1519 25.1178 29.3936 25.0073 29.5056 25.0573C29.4621 25.092 29.4694 25.0914 29.4202 25.1135C29.3126 25.1446 29.2172 25.1684 29.1374 25.2524C29.0897 25.1882 29.0186 25.1467 28.9521 25.1005Z" fill="#E7885C"/>
<path d="M19.8291 26.0039L20.0069 26.0509C20.0152 26.0998 20.0225 26.166 20.0398 26.2101L19.9413 26.2245C19.9407 26.1974 19.9313 26.178 19.9227 26.1506C19.8645 26.1653 19.8614 26.1727 19.8108 26.2072L19.7923 26.1836C19.8766 26.1311 19.844 26.0923 19.8291 26.0039Z" fill="#C7C6C5"/>
<path d="M19.5723 25.9226L19.8291 26.0039C19.8439 26.0922 19.8766 26.1311 19.7923 26.1836C19.7109 26.0769 19.6636 26.0211 19.5723 25.9226Z" fill="#BBB3AF"/>
<path d="M19.8108 26.207C19.8614 26.1725 19.8645 26.165 19.9227 26.1504C19.9313 26.1778 19.9406 26.1972 19.9413 26.2243L19.9655 26.3206L19.9571 26.3903C19.9119 26.3426 19.8526 26.2608 19.8108 26.207Z" fill="#BBB3AF"/>
<path d="M19.0089 25.4872C18.9159 25.447 18.8797 25.4268 18.7939 25.3725L18.8078 25.355C18.9081 25.3783 18.9342 25.3916 19.0296 25.4348L19.0356 25.4476L19.0089 25.4872Z" fill="#80371C"/>
<path d="M18.5343 19.0208C18.7636 19.0845 19.439 18.8305 19.7312 18.8166C20.1821 18.7951 20.7555 18.7758 21.1717 18.9955C21.5101 19.2085 22.0098 19.8111 21.939 20.2308C21.9147 20.3278 21.8885 20.426 21.8751 20.5347L21.8483 20.5915C21.8695 20.8007 21.8989 20.851 21.9698 21.0472C21.8698 21.1684 21.6878 21.1356 21.5563 21.1763C20.5948 21.4739 19.503 21.4257 18.6039 20.9458C18.4122 20.8435 18.2059 20.7374 18.0125 20.6329C17.8606 20.5509 17.6142 20.5301 17.4964 20.4137C17.3396 20.3837 17.2057 20.3429 17.0527 20.2983C17.1622 20.2413 17.2828 20.1873 17.3746 20.1075C17.4296 19.7984 18.0246 19.3282 18.2871 19.1631C18.3711 19.1178 18.4521 19.0692 18.5343 19.0208ZM17.5307 20.2196C17.458 20.2288 17.424 20.2179 17.3891 20.2593C17.4598 20.2796 17.459 20.2798 17.5323 20.2806L17.5307 20.2196Z" fill="#020101"/>
<path d="M18.5342 19.0208C18.7635 19.0845 19.439 18.8305 19.7312 18.8166C20.182 18.7951 20.7555 18.7758 21.1717 18.9955C21.51 19.2085 22.0097 19.8111 21.939 20.2308C21.9146 20.3278 21.8885 20.426 21.8751 20.5347L21.8482 20.5915C21.8694 20.8007 21.8988 20.851 21.9698 21.0472C21.8698 21.1684 21.6878 21.1356 21.5563 21.1763C20.5948 21.4739 19.503 21.4257 18.6039 20.9458C18.4122 20.8435 18.2059 20.7374 18.0124 20.6329C17.8606 20.5509 17.6142 20.5301 17.4964 20.4137C17.9157 20.4929 18.2679 20.7191 18.644 20.915C19.7407 21.4861 20.803 21.3711 21.9465 21.0409C21.8435 20.8894 21.8164 20.7068 21.7685 20.5293C21.3012 18.7969 19.9296 19.0012 18.5322 19.4473C17.9468 19.7333 17.9549 19.6844 17.3746 20.1075C17.4296 19.7984 18.0245 19.3282 18.2871 19.1631C18.371 19.1178 18.452 19.0692 18.5342 19.0208Z" fill="url(#paint3_linear_17851_28776)"/>
<path d="M18.2871 19.1631C18.42 19.2244 18.5165 19.1689 18.6758 19.1894C18.6001 19.2302 18.5939 19.2339 18.5284 19.2891L18.5739 19.27L18.5291 19.3062C18.6494 19.284 18.8323 19.2429 18.9494 19.2431L18.9164 19.2395L18.9711 19.2571C18.8122 19.3075 18.6746 19.3521 18.5193 19.4125C18.5292 19.4463 18.524 19.4386 18.5322 19.4472C17.9468 19.7333 17.9549 19.6843 17.3746 20.1075C17.4296 19.7984 18.0245 19.3281 18.2871 19.1631Z" fill="#E7885C"/>
<path d="M18.2871 19.1631C18.3711 19.1177 18.4521 19.0691 18.5342 19.0208L18.5371 19.0807C18.6288 19.1177 18.7159 19.1166 18.8258 19.1473L18.8263 19.1682C18.7639 19.1834 18.7397 19.1941 18.6758 19.1894C18.5166 19.1689 18.42 19.2243 18.2871 19.1631Z" fill="#EC6838"/>
<path d="M19.3347 19.464C19.5134 19.3906 20.0017 19.3161 20.1621 19.402C20.3357 19.4177 20.7921 19.523 20.9167 19.6275L21.0578 19.7108C21.3118 19.9092 21.5914 20.2983 21.658 20.6085C21.6779 20.7051 21.6861 20.7975 21.6979 20.8952L21.624 20.8813L21.6001 20.9C21.2693 21.1549 20.7526 21.1899 20.3402 21.2061L20.3171 21.1546C19.9402 21.2072 19.5551 21.1293 19.2043 20.9928C19.0982 20.9993 19.0887 20.991 19.0185 20.9389C18.4931 20.7282 18.1197 20.4912 17.5323 20.2806L17.5306 20.2196C17.7424 20.0099 18.5962 19.667 18.8813 19.5788C19.0606 19.5482 19.1595 19.5186 19.3347 19.464Z" fill="#EC6838"/>
<path d="M19.3347 19.464C19.5134 19.3906 20.0017 19.3161 20.1621 19.402C20.1956 19.4793 20.3149 19.5338 20.3989 19.6201C21.0628 20.6975 19.1882 21.2881 19.193 19.9622C19.2047 19.8104 19.1861 19.6771 19.3134 19.5793C19.352 19.546 19.3499 19.5487 19.3726 19.5031L19.3347 19.464Z" fill="#020101"/>
<path d="M19.3134 19.5791L19.3303 19.5906C19.3871 19.6058 19.4627 19.6098 19.4867 19.6709C19.5394 19.8054 19.5204 19.9165 19.4021 20.001C19.3712 20.0031 19.3456 20.0072 19.3155 20.0037L19.193 19.962C19.2047 19.8102 19.1861 19.6769 19.3134 19.5791Z" fill="#F5F4F3"/>
<path d="M19.3134 19.5791L19.3303 19.5906C19.279 19.74 19.2491 19.8516 19.3155 20.0037L19.193 19.962C19.2047 19.8102 19.1861 19.6769 19.3134 19.5791Z" fill="#242118"/>
<path d="M21.0578 19.7107C21.3118 19.909 21.5914 20.2982 21.658 20.6083C21.6779 20.7049 21.6861 20.7973 21.6979 20.8951L21.624 20.8811L21.6001 20.8999C21.2693 21.1547 20.7526 21.1898 20.3402 21.2059L20.3171 21.1544C20.453 21.0494 20.519 21.0383 20.6482 20.9052C20.8833 20.6629 20.9827 20.4311 20.9802 20.0911L21.0254 20.1315L21.0154 19.9633L21.076 19.8943C21.0313 19.7776 21.0311 19.8238 21.0578 19.7107Z" fill="#F5F4F3"/>
<path d="M21.0578 19.7107C21.3118 19.909 21.5914 20.2982 21.658 20.6083C21.5455 20.5404 21.1678 20.0252 21.0759 19.8943C21.0313 19.7776 21.0311 19.8238 21.0578 19.7107Z" fill="#BABBB5"/>
<path d="M20.9802 20.0913L21.0254 20.1317C20.9596 20.7687 20.8102 20.8621 20.3402 21.2061L20.3171 21.1546C20.453 21.0495 20.519 21.0385 20.6482 20.9053C20.8833 20.663 20.9827 20.4312 20.9802 20.0913Z" fill="#190C0A"/>
<path d="M17.5306 20.2194C17.7424 20.0097 18.5962 19.6668 18.8813 19.5786L18.8151 19.6882C18.5915 20.1204 18.694 20.5335 18.9968 20.896C19.014 20.9166 19.0093 20.9116 19.0185 20.9387C18.4931 20.728 18.1197 20.491 17.5323 20.2804L17.5306 20.2194Z" fill="#F0F0EE"/>
<path d="M20.162 19.4019C20.3357 19.4176 20.7921 19.5228 20.9166 19.6273L21.0578 19.7107C21.0311 19.8238 21.0313 19.7776 21.0759 19.8943L21.0154 19.9633L21.0253 20.1316L20.9802 20.0912C20.94 19.8924 20.9334 19.8244 20.8157 19.6614C20.6848 19.6337 20.5218 19.585 20.3989 19.62C20.3149 19.5337 20.1956 19.4792 20.162 19.4019Z" fill="#8F5C37"/>
<path d="M20.9167 19.6274L21.0578 19.7108C21.0312 19.8239 21.0313 19.7777 21.076 19.8944L21.0155 19.9634C20.9968 19.9281 20.9277 19.6736 20.9167 19.6274Z" fill="#C7C6C5"/>
<path d="M18.8151 19.6882C18.7241 20.2527 18.7088 20.6079 19.2043 20.9927C19.0982 20.9992 19.0887 20.9908 19.0185 20.9388C19.0093 20.9116 19.014 20.9167 18.9968 20.8961C18.694 20.5335 18.5915 20.1205 18.8151 19.6882Z" fill="#80371C"/>
<path d="M17.5323 20.2805C17.459 20.2797 17.4597 20.2794 17.3891 20.2592C17.4239 20.2177 17.4579 20.2287 17.5306 20.2195L17.5323 20.2805Z" fill="#8F5C37" fill-opacity="0.988235"/>
<path d="M27.0094 19.2446C27.4149 18.8372 27.8541 18.648 28.4305 18.6243C29.6689 18.5734 30.094 19.8138 30.9879 20.2864C30.6197 20.3741 30.3249 20.4436 29.9837 20.6226C29.8608 20.7023 29.4619 20.9597 29.3459 21.0132C28.5717 21.4065 28.0512 21.5014 27.1834 21.2905C27.0271 21.2526 26.6923 21.1323 26.5622 21.1216C26.3333 21.0496 26.1938 21.0561 25.9659 21.0777C26.0591 21.0076 26.0915 20.973 26.1716 20.8872C26.2539 20.6802 26.364 20.4095 26.4294 20.2015C26.4215 20.0355 26.3808 20.0402 26.3895 19.7735C26.4456 19.5757 26.5092 19.4541 26.6209 19.286L26.6416 19.2548C26.6876 19.3514 26.7632 19.3833 26.8564 19.4428L26.8874 19.4189C26.8676 19.3396 26.838 19.2573 26.8538 19.1796C26.9256 19.1704 26.9298 19.1943 27.0094 19.2446Z" fill="#020101"/>
<path d="M27.5108 19.1338C27.6934 18.9977 28.1188 18.9055 28.3529 18.936C28.4525 18.9491 28.5393 18.991 28.6395 18.9913C28.9047 19.0746 29.0491 19.2288 29.1854 19.466C29.3748 19.9363 29.4309 20.579 28.9881 20.9352L29.0223 20.9868L28.8295 21.0596C28.5776 21.2149 27.9584 21.2781 27.6765 21.2465L27.7268 21.2394L27.7662 21.177C27.2242 20.8475 26.9753 20.2256 27.1831 19.6165C27.2816 19.4268 27.3681 19.3226 27.5266 19.1828L27.5108 19.1338Z" fill="#EC6838"/>
<path d="M27.5266 19.1829C27.4788 19.3633 27.3452 19.4037 27.2755 19.5283C27.1131 19.8188 27.1336 20.2638 27.2834 20.5535C27.4447 20.8839 27.5866 21.0111 27.8974 21.1814L27.892 21.222L27.7662 21.177C27.2242 20.8475 26.9753 20.2256 27.1831 19.6165C27.2816 19.4268 27.3681 19.3226 27.5266 19.1829Z" fill="#80371C"/>
<path d="M28.8295 21.0595C28.892 20.9733 28.8933 20.9653 28.9881 20.9351L29.0223 20.9867L28.8295 21.0595Z" fill="#F0F0EE"/>
<path d="M27.7662 21.177L27.892 21.222C27.8434 21.2274 27.7736 21.2376 27.7267 21.2394L27.7662 21.177Z" fill="#F0F0EE"/>
<path d="M28.1341 19.4157C28.4838 19.3427 28.8282 19.5607 28.9117 19.9081C28.9953 20.2554 28.7876 20.6062 28.443 20.7002C28.2106 20.7634 27.9622 20.6954 27.7946 20.5224C27.6271 20.3494 27.5668 20.099 27.6375 19.8688C27.7081 19.6385 27.8984 19.465 28.1341 19.4157Z" fill="#020101"/>
<path d="M29.1854 19.4658C29.436 19.4762 29.7203 19.6726 29.8964 19.8493C29.9704 19.9236 30.0456 20.0684 30.1059 20.131C30.17 20.213 30.2133 20.2671 30.286 20.3412C30.1058 20.4082 30.0202 20.4449 29.8507 20.5345C29.9079 20.5677 29.9312 20.5825 29.9837 20.6225C29.8608 20.7021 29.4619 20.9595 29.3459 21.013C29.3731 20.8884 29.4102 20.9021 29.3848 20.7937C29.2796 20.8515 29.1271 20.9407 29.0223 20.9866L28.988 20.935C29.4309 20.5788 29.3748 19.9362 29.1854 19.4658Z" fill="#F5F4F3"/>
<path d="M29.3848 20.7938C29.4348 20.7443 29.7665 20.5778 29.8507 20.5347C29.9079 20.5679 29.9312 20.5827 29.9837 20.6226C29.8608 20.7022 29.4619 20.9597 29.3459 21.0132C29.3731 20.8885 29.4102 20.9022 29.3848 20.7938Z" fill="#190C0A"/>
<path d="M26.6662 20.2636C26.6684 20.2576 27.0983 19.6018 27.1151 19.583L27.1832 19.6163C26.9754 20.2254 27.2242 20.8473 27.7662 21.1768L27.7268 21.2392L27.6765 21.2464C27.3694 21.2236 26.9288 21.133 26.6578 20.9864C26.3821 20.7327 26.5239 20.5604 26.6662 20.2636Z" fill="#F5F4F3"/>
<path d="M28.6793 18.9043C29.4422 19.056 29.7145 19.5493 30.2671 20.0536L30.1059 20.131C30.0456 20.0684 29.9703 19.9236 29.8964 19.8493C29.7203 19.6726 29.436 19.4763 29.1854 19.4659C29.0491 19.2287 28.9046 19.0745 28.6395 18.9912L28.6793 18.9043Z" fill="#C7C6C5"/>
<path d="M26.6416 19.2546C26.6876 19.3512 26.7631 19.3831 26.8563 19.4426L26.7227 19.6371C26.6236 19.825 26.5251 20.0116 26.4294 20.2013C26.4214 20.0353 26.3808 20.04 26.3895 19.7733C26.4456 19.5755 26.5091 19.4539 26.6208 19.2858L26.6416 19.2546Z" fill="#EB9968"/>
<path d="M26.6416 19.2546C26.6876 19.3512 26.7632 19.3831 26.8564 19.4426L26.7227 19.6371C26.6995 19.596 26.6368 19.346 26.6208 19.2858L26.6416 19.2546Z" fill="#EB9968"/>
<path d="M27.5108 19.1338L27.5266 19.1828C27.368 19.3226 27.2816 19.4268 27.1831 19.6165L27.115 19.5832C27.0982 19.602 26.6684 20.2578 26.6662 20.2638L26.566 20.2559C26.7793 19.821 27.0744 19.3622 27.5108 19.1338Z" fill="#BBB3AF"/>
<path d="M26.5661 20.2559L26.6662 20.2638C26.5239 20.5605 26.3821 20.7328 26.6578 20.9866L26.272 20.9338C26.3701 20.6857 26.45 20.4968 26.5661 20.2559Z" fill="#F0F0EE"/>
<path d="M30.2671 20.0537L30.4909 20.2517L30.286 20.3413C30.2133 20.2672 30.1701 20.2131 30.1059 20.1311L30.2671 20.0537Z" fill="#BABBB5"/>
<path d="M26.8874 19.4187C26.8676 19.3395 26.838 19.2571 26.8538 19.1794C26.9256 19.1702 26.9298 19.1941 27.0094 19.2444C26.9607 19.308 26.9249 19.3477 26.8874 19.4187Z" fill="#EB9968"/>
<path d="M28.2988 18.8542L28.6793 18.9044L28.6395 18.9913C28.5254 18.9427 28.4142 18.8991 28.2988 18.8542Z" fill="#F5F4F3"/>
<path d="M28.6643 13.8279C28.738 13.8846 28.7672 13.9097 28.8325 13.9757C29.5855 14.5978 30.5173 15.0517 31.1863 15.7373C31.4101 15.9667 31.7419 16.9369 31.8155 17.2791C31.6176 16.9928 31.5731 16.7747 31.3312 16.5291C29.3434 14.7623 27.8102 15.338 26.0887 17.1848C25.8527 17.438 25.5079 17.8837 25.3938 18.212L25.3115 18.2085C25.3779 17.5638 25.4534 17.0042 25.7171 16.3998C25.8413 16.1152 25.99 15.8909 26.0901 15.5986L26.1052 15.5537L26.1328 15.544L26.1995 15.615C26.2322 15.6244 26.2413 15.6339 26.2687 15.6241C26.6985 15.4686 27.0662 15.0449 27.4909 14.8259C27.7014 14.6973 27.9454 14.6481 28.1782 14.5709C28.7515 14.3808 28.8636 14.4125 28.6643 13.8279Z" fill="#3A1908"/>
<path d="M28.8325 13.9756C29.5855 14.5977 30.5173 15.0516 31.1863 15.7372C31.4101 15.9666 31.7419 16.9368 31.8155 17.279C31.6176 16.9928 31.5731 16.7746 31.3312 16.529L31.4081 16.5062C31.4137 16.0237 30.9353 15.5889 30.5884 15.3172C30.316 15.147 30.0586 14.9621 29.7972 14.7997C29.7417 14.7525 29.5673 14.6569 29.4959 14.6152C29.3949 14.5453 29.0369 14.2335 28.9837 14.2193C28.9206 14.2544 28.8731 14.3839 28.7726 14.4633C28.8298 14.379 28.9156 14.241 28.9321 14.1417C28.8786 14.0829 28.8427 14.0579 28.8325 13.9756Z" fill="#020101"/>
<path d="M28.7727 14.4633C28.8731 14.3838 28.9207 14.2543 28.9837 14.2192C29.037 14.2334 29.3949 14.5453 29.496 14.6151C29.4705 14.6299 29.4869 14.6241 29.4441 14.6207C29.2363 14.4585 29.2609 14.5514 29.0284 14.5205C28.9893 14.4816 28.9623 14.4566 28.9202 14.4212L28.8854 14.4345L28.8797 14.545C28.8128 14.6439 28.7467 14.725 28.6171 14.6548L28.6178 14.5826C28.4237 14.7362 28.0214 14.7452 27.733 14.9039C27.6038 15.1557 27.0827 15.2968 26.8434 15.4619C26.9836 15.2778 27.4709 15.0074 27.6757 14.8874C27.9069 14.7519 28.6016 14.6166 28.7727 14.4633Z" fill="#481F0A"/>
<path d="M29.7972 14.7998C30.0586 14.9621 30.316 15.1471 30.5884 15.3173C30.3039 15.5311 29.8994 15.0214 29.7972 14.7998Z" fill="#481F0A"/>
<path d="M26.6593 15.5742L26.6835 15.5754C26.4599 15.776 26.7751 15.9657 26.1413 15.9814L26.1196 15.9541L26.0499 15.9829L26.0492 15.9554C26.0982 15.8941 26.1476 15.8083 26.1901 15.7403C26.4157 15.687 26.4618 15.6772 26.6593 15.5742Z" fill="#481F0A"/>
<path d="M26.9778 16.0891L27.0816 16.0921C27.0562 16.1427 26.8537 16.276 26.7798 16.3338L26.7017 16.3868C26.7242 16.2404 26.8398 16.1297 26.9778 16.0891Z" fill="#481F0A"/>
<path d="M25.5849 17.3142C25.6016 17.4173 25.5894 17.3798 25.6573 17.4666C25.6641 17.557 25.6366 17.5606 25.5742 17.6579L25.5357 17.6761C25.5134 17.5798 25.5609 17.416 25.5849 17.3142Z" fill="#481F0A"/>
<path d="M18.337 16.4983L18.3586 16.5233C18.3066 16.6354 18.164 16.8356 18.2329 16.9364C18.3482 16.9731 18.8256 17.0316 18.9696 17.0477C19.6287 17.1214 20.6098 17.3356 21.2472 17.3205C21.181 17.1618 21.1218 17.057 21.0373 16.9063C21.6573 17.3127 22.6058 18.1901 22.8502 18.8902C22.4037 18.4492 22.19 18.2568 21.553 18.1602C21.1891 18.1049 20.8911 18.056 20.5146 18.0414C20.1072 17.9983 19.695 17.9945 19.3021 17.9736C18.1501 17.9124 17.0659 17.9016 16.2757 18.871C16.2127 18.9483 15.9693 19.1934 15.8753 19.2285L15.871 19.1926C15.947 19.0104 16.071 18.8346 16.1738 18.665C16.7446 17.7234 17.4507 17.1199 18.337 16.4983Z" fill="#020101"/>
<path d="M18.0876 16.781L18.0991 16.8023C18.074 16.9105 18.0628 16.9211 18.1229 17.0067C18.2274 17.0564 18.5972 17.0994 18.7269 17.1134C19.5042 17.1973 20.4291 17.4546 21.2003 17.383C21.2731 17.3474 21.2943 17.2922 21.3373 17.2212C21.4804 17.3749 21.639 17.5443 21.7951 17.6823C22.045 17.9031 22.15 17.9647 22.2943 18.271C21.9629 18.0578 20.9792 17.9472 20.5781 17.9441C20.1335 17.9056 19.773 17.8968 19.3249 17.8776C18.6139 17.8471 18.0316 17.7768 17.3237 17.9676C16.9974 18.0555 16.665 18.4393 16.5496 18.4687C16.3571 18.1979 17.8508 16.9912 18.0876 16.781Z" fill="#481F0A"/>
<path d="M26.5183 21.5036C26.3068 21.4077 25.5876 21.2432 25.7072 20.9323C26.0094 20.1411 26.441 19.3768 26.9046 18.6675C27.3635 17.9651 28.2871 17.674 29.0875 17.8237C29.6713 17.9329 30.1768 18.5775 30.4655 19.0557C30.5471 19.1908 30.7669 19.4861 30.7332 19.6399C30.6897 19.6139 30.7073 19.6305 30.6806 19.5945C30.3685 19.174 29.9675 18.5997 29.5377 18.3102C29.2252 18.0997 28.4256 18.078 28.0535 18.1669C27.3055 18.3455 27.034 18.6404 26.6416 19.2548L26.6209 19.286C26.5092 19.454 26.4456 19.5757 26.3895 19.7734C26.3808 20.0402 26.4214 20.0355 26.4294 20.2015C26.364 20.4095 26.2539 20.6802 26.1716 20.8872C26.0915 20.973 26.0591 21.0076 25.9659 21.0777C26.1938 21.056 26.3333 21.0496 26.5622 21.1216C26.4301 21.1737 26.3652 21.0904 26.2383 21.133C26.2711 21.222 26.5009 21.309 26.5731 21.3617C26.9669 21.5024 27.5532 21.725 27.9647 21.75L27.9858 21.8223C27.6384 21.8137 26.8125 21.6758 26.5183 21.5036Z" fill="#EC6838"/>
<path d="M26.1716 20.8871L26.0668 20.9251L26.013 20.879C25.9064 20.6158 26.1927 19.8934 26.3895 19.7734C26.3808 20.0402 26.4214 20.0355 26.4294 20.2015C26.364 20.4095 26.2539 20.6802 26.1716 20.8871Z" fill="#E7885C"/>
<path d="M25.6397 22.9617C25.6494 22.9665 25.6591 22.9714 25.6688 22.9762C26.1735 23.3863 26.6993 24.2476 25.8993 24.6675C25.6483 24.8108 25.3082 24.8223 25.0561 24.9521C24.7328 25.1285 24.5737 25.3855 24.1825 25.4394C23.5975 25.5201 23.4217 25.1678 22.9804 24.9392C22.5517 24.7172 21.8188 24.7353 21.771 24.0698C21.7476 23.7435 21.8958 23.526 22.0947 23.2911C22.2179 23.1435 22.2789 23.0882 22.4412 22.9947C22.2154 23.3142 21.8721 23.6459 21.9462 24.087C22.0349 24.5858 22.6449 24.5464 22.977 24.7143C23.4329 24.9449 23.639 25.3981 24.2361 25.2821C24.5867 25.214 24.7247 24.9142 25.0096 24.7749C25.43 24.5694 25.7884 24.6728 26.0836 24.2239C26.1529 23.4891 25.8224 23.4725 25.6397 22.9617Z" fill="#020101"/>
<path d="M18.5342 19.0207C18.8472 18.7541 19.6448 18.5047 20.0667 18.5538C20.7956 18.6387 21.1041 18.6922 21.5863 19.2872C21.9079 19.6842 22.3136 20.486 22.3176 21.0117C22.3182 21.0985 22.2421 21.2559 22.1674 21.3113C22.0202 21.4204 21.9015 21.3931 21.7363 21.3693C20.795 21.8474 19.7789 21.8081 18.7812 21.5029C18.532 21.4266 18.1731 21.2225 17.9482 21.0836C18.0477 21.0674 18.4677 21.3592 18.6293 21.4165C19.5377 21.7383 20.605 21.8382 21.508 21.4426C21.8003 21.3145 21.7046 21.3665 21.9944 21.3701C22.09 20.943 21.9144 20.9364 21.875 20.5346C21.8885 20.4258 21.9146 20.3277 21.939 20.2307C22.0097 19.8109 21.51 19.2084 21.1717 18.9953C20.7555 18.7757 20.182 18.7949 19.7312 18.8164C19.439 18.8304 18.7635 19.0843 18.5342 19.0207Z" fill="#EC6838"/>
<path d="M29.4345 24.3633C29.6142 24.3733 29.7841 24.379 29.9641 24.3825C30.1289 24.4765 30.3946 24.616 30.5367 24.7253C30.7003 25.0506 30.6871 25.3384 30.5791 25.6766C30.5439 25.7866 30.4826 25.894 30.3542 25.896C30.3704 25.8311 30.3739 25.838 30.4064 25.7916C30.4854 25.679 30.5091 25.4505 30.4761 25.3169C30.4702 25.2933 30.4643 25.2698 30.4584 25.2462C30.4329 25.1431 30.4417 25.098 30.3722 25.0412L30.3198 25.0834L30.299 25.0417C30.2686 24.6702 29.6777 24.4948 29.3699 24.4072L29.4345 24.3633Z" fill="#EC6838"/>
<path d="M24.9452 19.5784C24.9787 19.5917 24.9624 19.5814 24.9914 19.6133C24.9783 20.3943 24.9191 21.008 24.9787 21.8073C25.012 22.2533 25.2643 23.3273 25.231 23.6287C24.8671 22.4541 24.8194 20.7966 24.9452 19.5784Z" fill="#EB9968"/>
<path d="M17.9049 24.5671L17.8998 24.5898C17.5918 24.8578 17.5828 24.9277 17.4481 25.2927C17.4749 25.4127 17.4847 25.4533 17.5257 25.5679C17.5775 25.7129 17.7265 25.8279 17.7232 25.9347C17.1445 25.5542 17.3613 24.8763 17.9049 24.5671Z" fill="#CB5F3A"/>
<path d="M30.299 25.0417L30.3198 25.0834L30.3722 25.0412C30.4416 25.098 30.4328 25.1432 30.4583 25.2462C30.4303 25.2155 30.4039 25.1866 30.375 25.1568C30.2254 25.1959 30.3169 25.3445 30.2352 25.4158L30.2015 25.3933L30.1961 25.344L30.1786 25.3387C30.1651 25.1703 30.1548 25.1447 30.0566 25.0061C30.1735 25.0363 30.1895 25.1003 30.299 25.0417Z" fill="#EB9968"/>
<path d="M17.9169 24.8938L17.9484 24.8816L18.0033 24.9116C18.0493 24.9858 18.042 24.9481 18.0401 25.0247C17.968 25.0884 18.01 25.069 17.9049 25.074L17.8734 25.0952C17.7659 25.0932 17.7149 25.1145 17.6774 25.01C17.735 24.8952 17.8061 24.9034 17.9169 24.8938Z" fill="#EB9968"/>
<path d="M27.9647 21.75C28.1358 21.7583 28.3987 21.7603 28.5571 21.7965C28.4346 21.8307 28.118 21.8354 27.9858 21.8223L27.9647 21.75Z" fill="#EB9968"/>
<path d="M25.3115 18.2085L25.3938 18.2119L25.3197 18.4046L25.2786 18.391L25.3115 18.2085Z" fill="#190C0A"/>
<path d="M29.3699 24.4072C29.3289 24.3855 29.3242 24.3815 29.2868 24.3548C29.3362 24.3305 29.366 24.3501 29.4345 24.3633L29.3699 24.4072Z" fill="#EB9968"/>
<path d="M25.3197 18.4045C25.294 18.472 25.2961 18.4768 25.2521 18.5321C25.2438 18.4573 25.2505 18.4684 25.2786 18.3909L25.3197 18.4045Z" fill="#8F5C37"/>
<path d="M29.9571 4.19804C32.0445 3.09597 34.4667 2.91208 36.7158 3.61025C39.4739 4.46641 41.9801 6.09182 43.7905 8.35139C46.4193 11.6324 46.3788 16.8403 43.3164 19.8313C43.1497 19.9941 42.9735 20.1647 42.7841 20.3008C42.6584 20.2359 42.611 20.1996 42.5009 20.1168C42.3279 20.0608 42.2624 20.0361 42.1039 19.944C42.4789 19.0782 42.5293 17.9789 42.1562 17.0869C41.4295 15.3498 39.2849 14.8294 37.635 15.4647C36.3375 16.0073 35.5255 17.2155 34.9906 18.4545C34.4342 19.7434 34.2962 21.0479 34.0183 22.3847C33.8752 23.0723 33.258 25.3437 32.8211 25.8287L32.8076 25.8116C32.8608 25.6388 32.9069 25.2743 32.6838 25.2112C32.7416 25.0008 32.8831 24.6697 32.9584 24.4421C33.2609 23.5437 33.4836 22.5293 33.284 21.5845C33.1192 20.8045 32.8413 20.2729 32.9512 19.4491C33.0496 18.7126 33.1321 17.859 33.0507 17.1157C32.892 15.6674 32.2028 14.3634 31.0689 13.4416C30.9574 13.3589 30.851 13.2813 30.7449 13.1916C30.6236 13.1331 30.458 13.003 30.298 12.9204C29.8015 12.6651 29.2725 12.4325 28.713 12.3821L28.6567 12.3551C27.9114 12.2524 27.5867 12.2892 26.8613 12.4314C27.3422 11.6247 27.7492 10.7282 28.2012 9.90226C28.5797 9.21061 28.9145 8.4878 29.2643 7.78153C29.9345 6.48947 30.3453 5.72123 29.9685 4.24245L29.9571 4.19804Z" fill="#FBCE31"/>
<path d="M35.5902 6.54419C37.1502 8.33491 38.3737 10.4338 39.282 12.6221C39.4742 13.0852 39.7689 13.7138 39.8873 14.1994C40.3574 13.6715 40.8473 13.1569 41.3243 12.6347C41.5847 12.3497 41.8592 12.0757 42.0994 11.7722C42.3416 12.2891 42.581 12.7461 42.7917 13.2845C43.5109 15.1219 43.7346 16.9951 43.0669 18.8827C42.9831 19.1198 42.8858 19.3474 42.7763 19.5732C42.6879 19.7555 42.5754 19.9305 42.501 20.1167C42.3279 20.0608 42.2625 20.036 42.1039 19.9439C42.4789 19.0781 42.5294 17.9788 42.1562 17.0869C41.4295 15.3497 39.2849 14.8294 37.6351 15.4647C36.3375 16.0072 35.5256 17.2154 34.9906 18.4545C34.4342 19.7433 34.2963 21.0479 34.0183 22.3846C33.8753 23.0722 33.258 25.3436 32.8211 25.8287L32.8076 25.8115C32.8608 25.6387 32.907 25.2742 32.6838 25.2111C32.7416 25.0008 32.8832 24.6697 32.9584 24.4421C33.261 23.5436 33.4836 22.5292 33.284 21.5845C33.1193 20.8044 32.8413 20.2728 32.9513 19.4491C33.0496 18.7125 33.1321 17.859 33.0507 17.1157C32.8921 15.6673 32.2029 14.3633 31.0689 13.4415C31.1599 13.1991 31.9219 12.1988 32.1024 11.9224C32.2016 11.7704 32.5505 11.2668 32.6584 11.1344C33.1259 10.2942 33.7909 9.48509 34.2732 8.67274C34.6349 8.19804 35.307 7.06928 35.5902 6.54419Z" fill="#ED2E2E"/>
<path d="M30.9485 8.67358C31.3652 9.19184 31.6933 9.65023 32.0573 10.2087C32.2235 10.4637 32.4869 10.9104 32.6584 11.1344C32.5505 11.2668 32.2016 11.7704 32.1023 11.9224C31.9219 12.1988 31.1599 13.1991 31.0689 13.4415C30.9574 13.3588 30.851 13.2813 30.7449 13.1915C30.6236 13.133 30.458 13.003 30.298 12.9203C29.8015 12.665 29.2725 12.4325 28.713 12.382L28.6567 12.355C28.746 12.2428 28.796 12.1501 28.8672 12.0261C28.935 11.8633 29.333 11.2652 29.4521 11.0816C29.4894 10.981 29.8019 10.5053 29.8735 10.3905L30.9485 8.67358Z" fill="#EC6838"/>
<path d="M29.4521 11.0815C29.679 11.3024 30.351 12.4887 30.5401 12.8371C30.4429 12.8463 30.3674 12.8466 30.298 12.9203C29.8015 12.665 29.2725 12.4324 28.713 12.382L28.6567 12.355C28.746 12.2428 28.796 12.1501 28.8672 12.0261C28.935 11.8633 29.333 11.2652 29.4521 11.0815Z" fill="#ED2E2E"/>
<path d="M30.5401 12.8372C30.6001 13.0351 30.7193 12.9856 30.7449 13.1916C30.6236 13.1331 30.4581 13.003 30.298 12.9204C30.3674 12.8466 30.443 12.8463 30.5401 12.8372Z" fill="#CB5F3A"/>
<path d="M30.9485 8.67363C30.9886 8.55415 31.5155 7.71279 31.6123 7.54474C31.8416 7.14677 32.0705 6.72564 32.2929 6.32031C32.7681 6.83575 33.1817 7.31341 33.6207 7.86288C33.734 8.00477 34.1783 8.60126 34.2731 8.67279C33.7909 9.48513 33.1259 10.2942 32.6584 11.1344C32.4869 10.9104 32.2235 10.4637 32.0573 10.2088C31.6933 9.65027 31.3652 9.19188 30.9485 8.67363Z" fill="#F5A330"/>
<path d="M5.22994 20.2965C3.98271 19.3943 2.92824 17.625 2.58329 16.1236C2.21031 14.5001 2.25462 12.3938 2.83332 10.8273C3.92204 7.88016 6.59837 5.64544 9.38332 4.34845C11.3446 3.43985 13.4824 2.92516 15.6345 3.36154C16.3156 3.49967 16.767 3.66654 17.4067 3.89623C17.1306 4.56226 17.0265 5.47439 17.2103 6.17723C17.3855 6.8468 17.7947 7.43499 18.0954 8.04643C18.5723 9.01613 19.0813 9.96924 19.5887 10.9232C19.8119 11.3408 20.1199 11.9316 20.3932 12.307C19.9831 12.2965 19.7594 12.3068 19.361 12.3569C18.8121 12.474 18.3582 12.6125 17.8599 12.8827C17.6733 12.9839 17.4412 13.1457 17.2721 13.2313L16.9739 13.4512C16.7954 13.6078 16.5284 13.8156 16.3763 13.9913C15.5403 14.9576 15.1202 16.0314 15.0133 17.2964C14.9321 18.2582 15.0912 19.0431 15.1503 19.9748C15.1809 20.4574 14.7221 21.3625 14.7093 21.8846C14.522 23.6181 15.5069 25.8321 16.3318 27.3002C16.2755 27.3446 16.2204 27.3805 16.1814 27.4398C15.0588 25.8541 14.2885 24.115 13.9544 22.1712C13.549 19.8116 12.9408 16.735 10.5586 15.5367C9.02247 14.7639 6.6062 15.3057 5.8936 17.0072C5.47084 18.0168 5.51987 18.8778 5.89567 19.9233C5.77412 19.9751 5.60649 20.0674 5.48471 20.0601C5.46034 20.1561 5.36598 20.1751 5.24959 20.2787L5.22994 20.2965Z" fill="#FBCE31"/>
<path d="M8.12608 14.2117C8.26216 13.6839 8.66074 12.784 8.88968 12.2857C9.28676 11.4704 9.63429 10.5365 10.1174 9.77258C10.7815 8.72263 11.5793 7.45906 12.4279 6.55737C12.8063 7.25183 13.3018 8.02363 13.7346 8.69178C13.8654 8.89949 14.0068 9.10002 14.1478 9.30102C14.5656 9.89708 14.9554 10.5121 15.3677 11.112C15.7171 11.6407 16.0769 12.1719 16.442 12.6898C16.5823 12.8887 16.8284 13.2783 16.9739 13.4512C16.7954 13.6077 16.5284 13.8156 16.3763 13.9913C15.5403 14.9575 15.1202 16.0314 15.0134 17.2964C14.9321 18.2582 15.0912 19.0431 15.1503 19.9747C15.1809 20.4573 14.7221 21.3625 14.7093 21.8846C14.5221 23.618 15.5069 25.832 16.3318 27.3001C16.2755 27.3446 16.2204 27.3805 16.1814 27.4398C15.0588 25.854 14.2885 24.115 13.9544 22.1711C13.549 19.8115 12.9408 16.7349 10.5586 15.5366C9.02248 14.7638 6.6062 15.3056 5.89361 17.0072C5.47084 18.0167 5.51987 18.8778 5.89567 19.9232C5.77412 19.975 5.6065 20.0673 5.48472 20.0601C5.17047 19.4635 4.91321 18.9247 4.74962 18.2632C4.29913 16.4415 4.61748 14.7008 5.3424 13.0002C5.50529 12.6181 5.7167 12.1564 5.92895 11.8027C6.60836 12.6129 7.44841 13.4059 8.12608 14.2117Z" fill="#ED2E2E"/>
<path d="M15.3677 11.1121C15.4408 11.0294 15.5462 10.8199 15.6199 10.7248C15.8317 10.4516 16.8515 8.76365 17.0547 8.65186C17.5233 9.43411 18.0567 10.3058 18.5507 11.0679C18.8047 11.4487 19.1182 12.0263 19.361 12.357C18.8121 12.4741 18.3582 12.6126 17.8599 12.8828C17.6733 12.984 17.4412 13.1458 17.2721 13.2314L16.9739 13.4513C16.8284 13.2785 16.5823 12.8889 16.442 12.6899C16.0769 12.172 15.7171 11.6409 15.3677 11.1121Z" fill="#EC6838"/>
<path d="M18.5507 11.0679C18.8047 11.4487 19.1182 12.0262 19.361 12.357C18.812 12.474 18.3581 12.6126 17.8599 12.8828C17.6733 12.984 17.4411 13.1458 17.2721 13.2314C17.5495 12.7179 18.1736 11.4597 18.5507 11.0679Z" fill="#ED2E2E"/>
<path d="M15.714 6.30298C16.0536 7.02237 16.5024 7.69311 16.8996 8.38119C16.9473 8.46388 17.0185 8.56756 17.0547 8.65184C16.8515 8.76364 15.8318 10.4516 15.6199 10.7248C15.5462 10.8199 15.4408 11.0294 15.3677 11.1121C14.9554 10.5123 14.5657 9.89722 14.1478 9.30116C14.0069 9.10016 13.8654 8.89963 13.7346 8.69192C14.4217 7.82295 14.9448 7.13178 15.714 6.30298Z" fill="#F5A330"/>
<path d="M30.0608 32.1658C31.1884 32.0408 32.7951 32.3527 33.6712 33.0759C34.6391 33.8749 35.0498 35.5092 35.135 36.7337C35.2677 38.6394 35.3224 40.747 34.7641 42.5947C34.633 43.0104 34.3492 43.5488 34.0705 43.8771C33.2616 44.8302 32.341 45.0198 31.1777 45.1311C31.1652 45.1326 31.1526 45.134 31.1401 45.1355C29.9223 45.1731 28.5414 45.0406 27.5769 44.243C26.5565 43.3993 26.1687 41.6046 26.0733 40.3125C25.9295 38.3656 25.9015 35.0424 27.1879 33.4366C27.9133 32.531 28.9643 32.2606 30.0608 32.1658Z" fill="#FBCE31"/>
<path d="M30.4619 34.5757C30.6749 34.5636 30.8791 34.5695 31.0684 34.6811C31.3096 34.8233 31.42 35.0735 31.4856 35.3338C31.7581 36.4154 31.8843 41.4235 31.3552 42.257C31.2223 42.4663 31.0502 42.5768 30.8119 42.6309C30.6063 42.6378 30.4181 42.6473 30.2257 42.5588C30.0099 42.4594 29.874 42.254 29.7991 42.0358C29.453 41.0281 29.4407 35.8436 29.8757 34.9937C30.0011 34.7486 30.2113 34.6504 30.4619 34.5757Z" fill="#020101"/>
<path d="M30.5442 35.6294C30.6412 35.6347 30.7541 35.6316 30.8418 35.6793C30.9417 35.7336 30.9966 35.8367 31.025 35.9428C31.2409 36.7478 31.2764 41.3783 30.9011 41.9703C30.8642 42.0285 30.8223 42.0768 30.7533 42.0929C30.6463 42.1071 30.5354 42.1137 30.4328 42.0731C30.355 42.0423 30.3137 41.9855 30.2857 41.9099C30.0441 41.2571 29.9876 36.2409 30.2903 35.7465C30.3369 35.6705 30.4653 35.649 30.5442 35.6294Z" fill="#A7152B"/>
<path d="M19.6528 32.1658C19.738 32.157 19.8741 32.1593 19.9636 32.158C20.9301 32.951 21.868 34.1016 23.176 34.2601C23.6097 34.3127 24.1925 34.3051 24.6356 34.2937C24.6938 34.5185 24.7868 34.7377 24.8532 34.961C24.9533 35.2983 25.0171 35.6382 25.0692 35.9853C25.3801 38.058 25.4972 41.9316 24.1954 43.6716C23.5591 44.522 22.6595 44.845 21.6385 44.9913C21.6071 44.9982 21.6249 44.9951 21.5851 44.9991C20.2799 45.1295 18.6059 44.9359 17.5608 44.0916C16.6363 43.3448 16.2097 41.613 16.1347 40.4136C16.0061 38.3585 15.9618 35.0167 17.2761 33.2998C17.819 32.5907 18.7966 32.2372 19.6528 32.1658Z" fill="#FBCE31"/>
<path d="M20.4213 34.5058C20.6282 34.4897 20.8435 34.4894 21.0354 34.5789C21.2676 34.6872 21.3946 34.8957 21.4715 35.131C21.7715 36.0489 21.8891 41.1954 21.4415 42.0458C21.3137 42.2885 21.1294 42.4089 20.8745 42.4847C20.6692 42.5027 20.4442 42.5025 20.2521 42.4208C20.0552 42.3373 19.9229 42.1744 19.842 41.9805C19.4476 41.0351 19.4605 35.9228 19.8891 34.9643C20.0012 34.7134 20.1715 34.5956 20.4213 34.5058Z" fill="#020101"/>
<path d="M20.4054 35.5581C20.6048 35.5397 20.7137 35.5478 20.9159 35.5608C20.9546 35.597 21.0331 35.6851 21.042 35.7352C21.2102 36.6741 21.4083 41.343 20.8771 41.9291C20.7492 41.9436 20.6015 41.9712 20.4749 41.9411C20.4123 41.9262 20.3665 41.9018 20.3324 41.8448C19.9713 41.2402 20.0306 36.5069 20.2511 35.7641C20.2836 35.6546 20.3029 35.6127 20.4054 35.5581Z" fill="#A7152B"/>
<path d="M23.4307 11.2922C22.6695 9.44111 21.6518 7.61251 20.0343 6.37173C19.5474 5.99827 18.109 4.9644 17.6304 5.89323C17.6011 5.95004 17.544 6.28121 17.5405 6.2851L17.5033 6.23373L17.5468 6.26649L17.5542 6.2334L17.5027 6.23354C17.2649 5.1818 17.4769 4.11386 18.0644 3.20803C20.8281 -1.05339 28.2939 -0.438017 29.7685 4.61978C29.8925 5.04526 29.8344 5.62369 29.7197 6.06001C29.6919 6.18348 29.6756 6.26237 29.6296 6.38237C29.6219 6.04243 29.6469 5.97418 29.5062 5.65632C29.0978 5.25722 28.625 5.43582 28.1725 5.65618C26.3565 6.54076 25.2917 8.43714 24.5527 10.2333C24.4073 10.5865 24.3157 10.978 24.1623 11.3166C23.9238 11.2535 23.6754 11.2698 23.4307 11.2922Z" fill="#ED2E2E"/>
<path d="M29.5062 5.65649C29.6825 5.81568 29.5852 5.91407 29.7196 6.06018C29.6919 6.18365 29.6756 6.26254 29.6296 6.38254C29.6219 6.0426 29.6469 5.97435 29.5062 5.65649Z" fill="#B02B23"/>
<path d="M28.5016 31.7697C28.5848 31.6814 28.911 31.31 28.9945 31.2831C29.3963 31.1536 30.0263 31.1354 30.4495 31.1225C32.5675 31.0581 34.8782 31.6161 35.7901 33.7586C36.32 35.0034 36.6148 36.4435 36.6766 37.7992C36.71 39.8209 36.7362 42.0733 36.0137 43.9829C35.8192 44.4968 35.4049 45.097 35.0324 45.4862C33.9064 46.6628 32.4876 46.9562 30.9187 46.9731C29.8596 46.9848 28.3681 46.8069 27.3839 46.3911C27.0063 46.2315 26.6164 45.9134 26.3231 45.634C26.1028 45.4241 25.8577 45.1194 25.6072 44.9579L25.5731 44.986C25.2023 45.2935 24.8871 45.7032 24.4935 45.9705C23.2101 46.8414 21.389 46.945 19.8819 46.8318C18.6528 46.7395 17.3724 46.4119 16.3753 45.6738C16.0256 45.4148 15.8018 45.282 15.4403 45.6276C14.4301 46.5932 12.9924 46.7748 11.656 46.6805C11.315 46.6565 10.9007 46.5429 10.5503 46.4692C10.5167 43.3685 10.5453 40.2131 10.5453 37.1093L10.5442 34.2006C10.5403 33.4007 10.3121 31.3883 11.3888 31.2299C12.5684 31.0563 13.9183 31.1198 15.1174 31.1562C16.24 31.1904 16.2544 31.1945 16.7002 32.1184C17.5579 31.322 17.9337 31.3598 18.9825 31.1414C19.1704 31.319 19.3009 31.4871 19.4704 31.6532C18.3234 31.8426 17.4992 32.1902 16.7415 33.1528C16.3284 33.6776 15.871 35.0077 15.8124 35.694C15.8023 35.7758 15.788 35.983 15.7487 36.0407C15.74 36.0252 15.7454 34.4235 15.7536 34.2619L15.752 32.8264C15.7518 32.5762 15.76 32.3269 15.7398 32.0773C15.7485 31.9626 15.5835 31.8201 15.4706 31.8147C15.0887 31.7963 14.5749 31.753 14.2002 31.7841C13.474 31.8444 12.2078 31.6594 11.5399 31.8332C11.482 32.128 11.4979 32.8669 11.4968 33.2004L11.4956 35.8646L11.4947 41.2937C11.4917 42.6697 11.4902 44.0501 11.5128 45.4264C11.5142 45.5089 11.5223 45.6604 11.5753 45.7222C11.6411 45.799 11.8273 45.802 11.9206 45.7871C12.678 45.6663 13.5484 45.44 14.1774 44.9949C14.374 44.8558 14.6348 44.5792 14.7728 44.3995C15.4463 43.5223 15.6186 42.4255 15.7144 41.3632L15.7334 41.362C16.1836 43.7696 17.0173 45.5304 19.6989 45.8701C21.015 46.0368 22.6972 45.9617 23.8 45.1384C25.0399 44.2128 25.4208 42.5159 25.615 41.0616C25.7305 41.5197 25.7782 41.9967 25.9045 42.468C26.2225 43.6543 26.7798 44.7957 27.8855 45.4332C29.0714 46.117 31.1316 46.1815 32.4427 45.8674C33.4207 45.633 34.1985 44.9999 34.698 44.1409C35.0046 43.5564 35.3418 42.8006 35.451 42.1373C35.8197 39.898 35.8737 37.3014 35.3605 35.0899C35.0754 33.8613 34.4576 32.8833 33.3652 32.2731C32.1149 31.5747 29.9455 31.5117 28.5815 31.8896C28.4562 31.9308 28.3845 31.9578 28.2636 32.01C28.3565 31.9006 28.3887 31.8646 28.5016 31.7697Z" fill="#A7152B"/>
<path d="M15.7536 34.262C15.7813 34.5282 15.7375 35.5775 15.8124 35.6941C15.8023 35.7759 15.788 35.9831 15.7487 36.0408C15.74 36.0253 15.7454 34.4236 15.7536 34.262Z" fill="#2B0706"/>
<path d="M28.2636 32.0101C28.3565 31.9007 28.3887 31.8647 28.5015 31.7698L28.6023 31.8041C28.6085 31.8613 28.6103 31.8326 28.5815 31.8897C28.4562 31.9309 28.3845 31.9579 28.2636 32.0101Z" fill="#B02B23"/>
<path d="M12.0225 32.2501C12.5451 32.2487 14.8339 32.2662 15.2295 32.3787C15.18 33.0117 15.2205 34.2339 15.224 34.9054L15.2267 39.5219C15.2177 41.073 15.3762 42.6988 14.2631 43.9339C13.6322 44.5402 12.8503 44.7382 12.0051 44.8752C12.0404 43.5413 12.0133 42.0991 12.0146 40.7569L12.0225 32.2501Z" fill="#FBCE31"/>
<path d="M23.0599 16.384C22.3293 16.0995 21.7911 15.7065 21.4622 14.978C21.2088 14.3929 21.2032 13.6895 21.4451 13.1004C22.2785 11.0712 25.0984 10.9891 25.9725 13.0632C26.7479 14.9035 25.1621 16.6366 23.2866 16.4477C22.6614 15.785 22.6173 14.806 23.2978 14.1646C23.2665 14.1056 23.2692 14.1148 23.2241 14.0628C22.9512 14.2447 22.771 14.6292 22.7048 14.9433C22.5953 15.4624 22.7548 15.9604 23.0599 16.384Z" fill="#FBCE31"/>
<path d="M23.2242 14.063C23.2211 14.0112 23.205 13.992 23.1757 13.9492C22.9186 13.5738 23.0124 12.9849 23.4093 12.7361C24.0532 12.3325 24.9541 12.9067 24.7348 13.6784C24.5882 14.2073 24.0535 14.4323 23.5566 14.2418C23.4974 14.2187 23.3531 14.1583 23.2978 14.1647C23.2665 14.1057 23.2693 14.1149 23.2242 14.063Z" fill="#020101"/>
<path d="M20.7927 12.424C20.5766 12.1366 20.2674 11.538 20.0811 11.2078C19.5633 10.2822 19.0753 9.34017 18.6035 8.38978C18.2769 7.73039 17.9398 7.11923 17.8001 6.38723C17.6498 5.59963 18.2519 5.55355 18.8204 5.83284C20.572 6.69346 21.8019 8.36109 22.6599 10.0669C22.8287 10.4026 22.9872 10.7104 23.1182 11.0627C23.1606 11.1679 23.198 11.2124 23.1857 11.3145L23.1018 11.36C23.0567 11.3613 23.025 11.3679 22.9812 11.3807C22.2539 11.5923 21.7069 12.0407 21.3274 12.679C21.1414 12.561 20.9949 12.5066 20.7927 12.424Z" fill="#A7152B"/>
<path d="M23.1182 11.0627C23.1607 11.1679 23.1981 11.2125 23.1857 11.3146L23.1018 11.36C23.0662 11.2899 23.0743 11.1299 23.1182 11.0627Z" fill="#B02B23"/>
<path d="M5.18304 24.4231C5.06913 24.2604 4.96483 24.0299 4.85196 23.8903C3.75037 22.5278 4.58021 20.4826 6.25357 20.1235C7.13168 19.9351 8.07312 20.3015 8.57633 21.0571C9.57257 22.514 8.61556 24.4746 6.87411 24.6356C6.55601 24.6633 6.38928 24.6559 6.1594 24.8942C6.07535 24.935 5.81257 24.8729 5.72416 24.8388C5.41727 24.7148 5.35854 24.3797 5.36491 24.0749C5.37555 23.5656 5.65835 23.1528 6.01554 22.8107L5.97363 22.7469L5.9239 22.7406C5.39824 23.2558 5.22865 23.6174 5.27524 24.3537L5.18304 24.4231Z" fill="#FBCE31"/>
<path d="M5.92391 22.7406C5.70988 22.2295 5.89756 21.6599 6.4273 21.4909C7.48691 21.1528 7.94207 22.7381 6.88874 23.0615C6.58588 23.1545 6.21467 23.0808 6.01555 22.8107L5.97364 22.7468L5.92391 22.7406Z" fill="#020101"/>
<path d="M6.14233 23.0266C5.89919 23.553 5.56038 24.3068 6.09049 24.7904C5.98117 24.8045 5.96069 24.7961 5.85724 24.7612C5.59033 24.1093 5.66045 23.5512 6.14233 23.0266Z" fill="#020101"/>
<path d="M5.85726 24.7612C5.96071 24.7962 5.9812 24.8046 6.09051 24.7904L6.15942 24.8943C6.07537 24.9351 5.81259 24.873 5.72418 24.8389L5.85726 24.7612Z" fill="#F5A330"/>
<path d="M41.5317 24.6698C41.0138 24.6424 40.6591 24.6137 40.1914 24.3621C39.4505 23.9676 38.99 23.1773 38.9816 22.3408C38.9738 21.1062 39.9824 20.0677 41.2304 20.0772C42.5398 20.0907 43.6212 21.2123 43.6078 22.5157C43.6004 23.2351 43.3485 23.5429 42.9603 24.0964C42.8165 24.3014 42.8238 24.47 42.604 24.6867C42.5371 24.6076 42.7399 24.2946 42.7104 24.0302C42.6547 23.5307 42.3632 23.077 41.9837 22.7623L41.9127 22.8339C42.005 22.9349 42.1051 23.0372 42.1798 23.151C42.2105 23.1831 42.2475 23.2196 42.2761 23.2525C42.6626 23.7421 42.6707 24.2859 42.3508 24.8036C41.9476 24.9645 41.832 24.9676 41.5317 24.6698Z" fill="#FBCE31"/>
<path d="M41.7297 22.9764C41.4542 23.1056 41.199 23.1312 40.9193 22.998C40.5132 22.8045 40.3065 22.3137 40.5147 21.9025C40.8751 21.1907 41.8765 21.3752 42.0805 22.1006C42.1357 22.2979 42.0962 22.5107 41.985 22.6857L41.9603 22.7239L41.9837 22.7624L41.9127 22.834C41.8209 22.8897 41.8082 22.9014 41.7297 22.9764Z" fill="#020101"/>
<path d="M41.7703 22.9937L41.8253 22.9834C41.8989 23.0481 41.9 23.0569 41.945 23.1467L41.9872 23.2133C42.1526 23.5772 42.5701 24.7409 41.8575 24.7759L41.8437 24.7537C42.3816 24.2392 42.038 23.5472 41.7703 22.9937Z" fill="#020101"/>
<path d="M42.1798 23.151C42.2105 23.183 42.2475 23.2196 42.2761 23.2525C42.1317 23.2828 42.1245 23.2803 41.9871 23.2133L41.9449 23.1467C42.0709 23.1251 42.0769 23.1776 42.1798 23.151Z" fill="#F5A330"/>
<path d="M28.9662 5.58813C29.4975 5.60721 29.4744 6.02942 29.3823 6.43737C29.1504 7.46501 28.584 8.41902 28.1239 9.35882C27.9509 9.71235 27.7728 10.064 27.5922 10.4098L26.748 11.9953C26.6446 12.1862 26.5175 12.4358 26.3937 12.6133C26.3685 12.6495 26.1651 12.7092 26.1098 12.7266C25.9941 12.4428 25.7687 12.2083 25.5546 11.9947C25.1028 11.5924 24.8893 11.5168 24.3253 11.3284C24.4051 11.1927 24.7124 10.3316 24.8087 10.1034C25.2678 9.0156 25.8267 8.01514 26.6032 7.11997C27.097 6.55072 28.1847 5.63993 28.9662 5.58813Z" fill="#A7152B"/>
<path d="M12.0911 20.7488C12.6521 20.6831 13.0449 20.9417 13.4812 21.2517C13.5136 21.3805 13.5361 21.5149 13.5651 21.645C13.8463 22.908 14.1872 24.1911 14.712 25.3768C14.9384 25.8882 15.2575 26.3974 15.52 26.8953C15.3021 27.4111 14.8461 27.3721 14.3852 27.2003C14.0345 27.0022 13.7002 26.6996 13.3828 26.4417C12.8681 26.0235 12.1892 25.6516 11.805 25.1078C11.5862 24.7984 11.4849 24.2597 11.3029 23.9178C11.1734 23.5582 10.9156 23.123 10.8604 22.7436C10.7243 21.8076 11.1337 20.933 12.0911 20.7488Z" fill="#F6B080"/>
<path d="M11.58 21.4833C11.7727 21.3463 11.957 21.2697 12.2014 21.3128C13.0037 21.4541 13.8854 22.4795 13.7199 23.3104C13.5997 23.9139 13.373 24.3188 13.7977 24.8837C13.9502 25.1017 14.0842 25.2153 14.2671 25.4076C14.4939 25.6458 14.8106 25.7993 14.7639 26.1499L14.7364 26.1748C14.6496 26.1187 14.6876 26.1151 14.6599 26.0274C14.5766 25.7633 14.1462 25.501 13.9439 25.3236C13.9191 25.575 13.9188 25.6914 13.9589 25.9432L13.9187 26.0197L13.814 25.7633L13.7896 25.7962L13.8077 25.8525L13.7791 25.8764C13.6484 25.7811 13.5173 25.8712 13.4429 25.7935C13.0475 25.5951 12.4019 25.2375 12.1121 24.9224C12.0437 24.8534 12.0311 24.8202 11.9832 24.7333C11.6626 24.407 11.6705 23.9721 11.5612 23.5825C11.4922 23.3362 11.2051 22.9049 11.1535 22.6881C11.0921 22.2429 11.2489 21.7851 11.58 21.4833Z" fill="url(#paint4_linear_17851_28776)"/>
<path d="M11.58 21.4833C11.7727 21.3463 11.957 21.2697 12.2014 21.3128C13.0037 21.4541 13.8854 22.4795 13.7199 23.3104C13.5997 23.9139 13.3729 24.3188 13.7977 24.8837C13.9502 25.1017 14.0842 25.2153 14.2671 25.4076C14.4939 25.6458 14.8106 25.7993 14.7639 26.1499L14.7364 26.1748C14.6495 26.1187 14.6876 26.1151 14.6599 26.0274C14.5766 25.7633 14.1461 25.501 13.9439 25.3236C13.9191 25.575 13.9188 25.6914 13.9589 25.9432L13.9187 26.0197L13.814 25.7633C13.7791 25.4992 13.7474 25.4032 13.8582 25.1596C13.7189 25.0262 13.6337 24.944 13.5135 24.7953L13.4521 24.8202C13.4471 24.8767 13.4448 24.852 13.4534 24.8945C13.3084 24.7647 13.2215 24.735 13.0565 24.6371L13.0184 24.678C12.9254 24.4838 12.7271 24.2698 12.6905 24.022C12.6489 23.7393 12.8313 23.446 12.9896 23.2287C13.1058 23.1166 13.465 22.8341 13.5384 22.7471L13.5082 22.6671C13.1508 22.1265 13.0573 21.9237 12.4923 21.5923L12.4972 21.6331C12.4803 21.6642 12.4514 21.7133 12.4389 21.7442L12.4115 21.7026C12.3003 21.657 12.0961 21.6681 11.9644 21.6661C11.9845 21.5951 11.9901 21.6269 11.9623 21.5667C11.8845 21.5801 11.9219 21.5645 11.8571 21.6366C11.8025 21.5905 11.8024 21.5927 11.7359 21.5642C11.6909 21.5747 11.7087 21.5697 11.6548 21.5548L11.58 21.4833Z" fill="#020101"/>
<path d="M13.0565 24.6371C12.9115 24.3104 12.7228 24.0643 12.8634 23.713C12.9995 23.3727 13.2877 23.1297 13.578 22.9226C13.5521 23.7159 13.1 24.1034 13.5135 24.7953L13.4521 24.8202C13.4471 24.8766 13.4448 24.852 13.4534 24.8945C13.3084 24.7647 13.2215 24.735 13.0565 24.6371Z" fill="#EB9968"/>
<path d="M11.7359 21.5644C11.9189 21.3719 12.2869 21.4827 12.4924 21.5925L12.4972 21.6333C12.4804 21.6643 12.4514 21.7135 12.4389 21.7443L12.4116 21.7028C12.3004 21.6571 12.0961 21.6683 11.9644 21.6662C11.9845 21.5952 11.9901 21.6271 11.9623 21.5669C11.8845 21.5802 11.9219 21.5647 11.8571 21.6368C11.8026 21.5906 11.8024 21.5928 11.7359 21.5644Z" fill="#CB5F3A"/>
<path d="M12.4924 21.5925C13.0573 21.9239 13.1508 22.1267 13.5082 22.6673C13.2113 22.6424 13.196 22.5696 12.8636 22.6373C12.6507 22.6555 12.6154 22.5419 12.4902 22.5691C12.4721 22.5907 12.4496 22.6122 12.4403 22.6357C12.2968 22.4487 12.4947 21.8924 12.4972 21.6333L12.4924 21.5925Z" fill="#EC6838"/>
<path d="M11.8571 21.6368C11.9219 21.5647 11.8845 21.5803 11.9623 21.5669C11.9901 21.6271 11.9845 21.5953 11.9644 21.6663C11.7116 22.2057 11.6737 22.9522 11.8481 23.514C11.8001 23.5378 11.8144 23.542 11.775 23.5366C11.6161 23.041 11.6053 22.4826 11.7247 21.9768C11.7539 21.8527 11.8352 21.7569 11.8571 21.6368Z" fill="#190C0A"/>
<path d="M12.8636 22.6372C13.196 22.5695 13.2113 22.6423 13.5082 22.6672L13.5384 22.7472C13.465 22.8342 13.1059 23.1167 12.9896 23.2288C13.0584 23.088 13.1393 23.0519 13.2289 22.9098C13.171 22.9254 13.1932 22.9259 13.1361 22.9144C13.2124 22.8748 13.2219 22.8718 13.2908 22.8152C13.2608 22.7695 12.9861 22.7198 12.8636 22.6372Z" fill="#EB9968"/>
<path d="M11.848 23.5139C12.0795 24.0037 12.2224 24.3595 12.6279 24.7701C12.6665 24.8092 12.6669 24.8126 12.6882 24.8627L12.6862 24.8776C12.3585 24.5528 11.8769 23.9941 11.775 23.5365C11.8143 23.5419 11.8001 23.5377 11.848 23.5139Z" fill="#80371C"/>
<path d="M12.1291 24.8838C12.4524 25.2406 13.1608 25.4362 13.4429 25.7935C13.0475 25.5952 12.4019 25.2376 12.1121 24.9225L12.1291 24.8838Z" fill="#5E1712"/>
<path d="M11.58 21.4834L11.6548 21.5549C11.2139 21.8242 11.2505 22.2599 11.1535 22.6882C11.0921 22.243 11.2489 21.7852 11.58 21.4834Z" fill="#190C0A"/>
<path d="M13.0566 24.6372C13.2215 24.7351 13.3085 24.7648 13.4534 24.8946C13.4689 24.9397 13.4659 24.9156 13.4594 24.9673C13.3015 24.9988 13.06 24.8759 12.9937 24.7263L13.0184 24.6781L13.0566 24.6372Z" fill="#E7885C"/>
<path d="M12.4972 21.6333C12.4947 21.8924 12.2968 22.4486 12.4403 22.6357C12.4548 22.6974 12.4702 22.723 12.4443 22.7782L12.4142 22.7768C12.2592 22.4934 12.3414 22.0349 12.4389 21.7443C12.4514 21.7135 12.4804 21.6643 12.4972 21.6333Z" fill="#80371C"/>
<path d="M11.9833 24.7334C12.0512 24.7903 12.0798 24.8083 12.1291 24.8838L12.1121 24.9225C12.0437 24.8534 12.0311 24.8203 11.9833 24.7334Z" fill="#AB5C47"/>
<path d="M13.9589 25.9434C13.968 26.0062 13.9844 26.0285 13.9578 26.0673L13.9187 26.0199L13.9589 25.9434Z" fill="#190C0A"/>
<path d="M35.5684 20.7491C36.0667 20.7071 36.4571 20.8474 36.7753 21.2462C37.0677 21.6125 37.2299 22.2009 37.1604 22.6659C37.0968 23.0913 36.8587 23.5401 36.6966 23.9365C36.5376 24.2931 36.3492 24.8674 36.149 25.1814C35.8977 25.5754 35.3068 25.9297 34.9328 26.2247C34.5967 26.4898 34.2454 26.7866 33.9007 27.0366C33.6045 27.2525 33.1911 27.3869 32.8226 27.264C32.6355 27.2015 32.5862 27.0856 32.5081 26.9196C32.6621 26.5416 33.0535 25.9466 33.2589 25.4833C33.8852 24.0711 34.2014 22.7695 34.5132 21.2691C34.8266 20.9626 35.1427 20.8173 35.5684 20.7491Z" fill="#F6B080"/>
<path d="M34.0156 26.0439C34.0753 25.8739 34.1428 25.5996 34.1031 25.424C34.0534 25.3603 34.0846 25.3785 34.009 25.3632C33.7205 25.4488 33.3996 25.8713 33.251 26.1307L33.2226 26.1288C33.1852 25.7549 34.0525 25.1604 34.2651 24.7831C34.5472 24.2823 34.4288 23.9421 34.2997 23.4323C34.0528 22.4581 34.8989 21.5103 35.8048 21.3077C36.0473 21.254 36.2596 21.3533 36.4571 21.5044L36.3958 21.5659L36.441 21.6121L36.5275 21.5805C36.792 21.9004 36.8859 22.1973 36.8608 22.6116C36.8616 22.7088 36.8624 22.7195 36.8382 22.8122C36.7476 23.2493 36.5006 23.5775 36.3061 23.9696C36.176 24.2321 36.0498 24.529 35.9394 24.8021L35.9297 24.8122L35.9481 24.827C35.6594 25.1904 35.427 25.3254 34.981 25.4626L34.5276 25.6257C34.4853 25.6716 34.5099 25.6623 34.4593 25.6724C34.3404 25.7994 34.3256 25.7735 34.1806 25.8543L34.0571 26.1381L34.0156 26.0439Z" fill="#EB9968"/>
<path d="M34.0156 26.0439C34.0753 25.8739 34.1428 25.5996 34.1031 25.424C34.0534 25.3603 34.0846 25.3785 34.009 25.3632C33.7205 25.4488 33.3996 25.8713 33.251 26.1307L33.2226 26.1288C33.1852 25.7549 34.0525 25.1604 34.2651 24.7831C34.5472 24.2823 34.4288 23.9421 34.2997 23.4323C34.0528 22.4581 34.8989 21.5103 35.8048 21.3077C36.0473 21.254 36.2596 21.3533 36.4571 21.5044L36.3958 21.5659C36.2601 21.4885 36.183 21.4365 36.0284 21.4468L35.9793 21.5047C35.7792 21.4245 35.4383 21.6155 35.267 21.7279C34.9403 21.9964 34.6179 22.3363 34.475 22.7434C34.8144 23.0809 35.2745 23.3882 35.2672 23.9142C35.2625 24.2588 35.0738 24.5265 34.8585 24.7731C35.3497 23.7601 35.2592 23.6474 34.4256 22.9166L34.4262 22.9526C34.4468 23.9757 35.1316 24.1952 34.1665 25.1654C34.2626 25.447 34.2419 25.5755 34.1806 25.8543L34.0571 26.1381L34.0156 26.0439Z" fill="#020101"/>
<path d="M36.0284 21.4468C36.183 21.4366 36.2601 21.4886 36.3959 21.5659L36.441 21.6122L36.5275 21.5806C36.792 21.9005 36.8859 22.1974 36.8609 22.6117C36.8616 22.7089 36.8624 22.7196 36.8383 22.8123C36.7466 22.6853 36.7959 22.0612 36.5156 21.7864L36.5028 21.8094C36.5529 21.9345 36.5958 22.0306 36.4731 22.1314C36.4236 21.9368 36.3758 21.6413 36.1451 21.6136C36.1025 21.5176 36.1035 21.5221 36.0284 21.4468Z" fill="#EC6838"/>
<path d="M36.5275 21.5806C36.792 21.9005 36.8859 22.1974 36.8608 22.6117C36.8357 22.564 36.8428 22.588 36.8363 22.5417C36.7842 22.1693 36.6909 21.8914 36.441 21.6122L36.5275 21.5806Z" fill="#80371C"/>
<path d="M35.9793 21.5048L36.0284 21.4468C36.1034 21.5221 36.1024 21.5176 36.145 21.6136C36.473 22.3896 36.4574 22.847 36.1915 23.6589L36.0993 23.606C36.3696 22.8599 36.3513 22.2376 35.9833 21.5453L35.9793 21.5048Z" fill="#2B0706"/>
<path d="M36.0993 23.606L36.1915 23.6589C36.0099 24.1421 35.6929 24.5541 35.3051 24.8909C35.6273 24.4486 35.8816 24.1191 36.0993 23.606Z" fill="#80371C"/>
<path d="M35.267 21.7281C35.4383 21.6157 35.7792 21.4248 35.9793 21.505L35.9833 21.5455C35.8203 21.6533 35.6662 21.6605 35.5622 21.7786C35.5419 21.7931 35.5289 21.7992 35.5139 21.8177C35.4386 21.712 35.4186 21.8657 35.267 21.7281Z" fill="#EC6838"/>
<path d="M35.5139 21.8177C35.5289 21.7992 35.5419 21.793 35.5622 21.7786C35.695 22.089 35.7447 22.2476 35.6512 22.5878C35.6211 22.6973 35.622 22.7878 35.5623 22.8914L35.5395 22.8694C35.5768 22.3446 35.7329 22.3802 35.5139 21.8177Z" fill="#80371C"/>
<path d="M35.9297 24.8123L35.948 24.8271C35.6593 25.1905 35.4269 25.3254 34.981 25.4627L34.926 25.4289C35.373 25.2631 35.5792 25.1496 35.9297 24.8123Z" fill="#190C0A"/>
<path d="M34.5276 25.6259C34.6478 25.5289 34.7821 25.4864 34.926 25.429L34.981 25.4628L34.5276 25.6259Z" fill="#80371C"/>
<path d="M34.4593 25.6725L34.4623 25.6276L34.5276 25.6257C34.4853 25.6716 34.5099 25.6623 34.4593 25.6725Z" fill="#EC6838"/>
<path d="M35.9395 24.8023C36.016 24.7936 36.0756 24.7761 36.1412 24.8103C36.0733 24.8545 36.0505 24.8338 35.9481 24.8272L35.9297 24.8124L35.9395 24.8023Z" fill="#E7885C"/>
<path d="M36.4571 21.5046L36.5275 21.5807L36.441 21.6123L36.3958 21.5661L36.4571 21.5046Z" fill="#190C0A"/>
<path d="M34.057 26.1382L34.0285 26.1787C33.9984 26.1411 34.013 26.1076 34.0156 26.0439L34.057 26.1382Z" fill="#190C0A"/>
<path d="M25.1401 34.2308C25.7405 34.0487 26.0008 33.9335 26.5183 33.5295C26.1086 34.1738 25.9436 34.6841 25.7771 35.4316C25.7233 35.6731 25.6624 35.8921 25.6529 36.1436L25.5966 36.1301C25.5854 35.6826 25.3242 34.6537 25.1401 34.2308Z" fill="#A7152B"/>
<path d="M31.0169 28.4579C31.6906 27.4232 32.2051 26.3448 32.6838 25.2112C32.907 25.2743 32.8608 25.6388 32.8076 25.8116L32.8211 25.8288C32.4461 26.6126 31.6332 27.8055 31.0595 28.4754L31.0169 28.4579Z" fill="#ED2E2E"/>
<path d="M16.3318 27.3C16.5381 27.64 16.8098 28.1947 16.9972 28.4747C16.8651 28.3612 16.2483 27.5851 16.1815 27.4397C16.2205 27.3804 16.2755 27.3445 16.3318 27.3Z" fill="#B02B23"/>
<path d="M5.27525 24.3538C5.33825 24.4932 5.39998 24.6296 5.46706 24.7672C5.33365 24.6323 5.28767 24.5862 5.18304 24.4232L5.27525 24.3538Z" fill="#CBCD5A"/>
<path d="M31.0169 28.4578L31.0595 28.4752C31.0129 28.5387 30.9618 28.6261 30.894 28.6546C30.9023 28.5858 30.9706 28.516 31.0169 28.4578Z" fill="#5E1712"/>
<path d="M25.5966 36.1301L25.6529 36.1437C25.6446 36.203 25.6421 36.2075 25.6209 36.264C25.5864 36.2237 25.5989 36.1985 25.5966 36.1301Z" fill="#3A1908"/>
<path d="M15.7144 41.3632L15.7235 41.303C15.7388 41.3441 15.7369 41.3243 15.7334 41.362L15.7144 41.3632Z" fill="#2B0706"/>
<path d="M28.9661 2.45891C29.0508 2.40094 29.0216 2.36676 29.0972 2.30215L29.1917 2.36439L29.2442 2.27684L29.2613 2.29925L29.2435 2.27612L29.2253 2.29732L29.2628 2.33108C29.26 2.41465 29.2517 2.44654 29.2945 2.52285C29.4341 2.6274 29.4336 2.67779 29.3503 2.75436C29.3358 2.76771 29.3922 2.76759 29.3648 2.84757C29.4274 2.89697 29.3939 2.88819 29.4656 2.88445L29.5353 2.83634L29.5693 2.84295L29.5795 2.86304C29.6154 2.93207 29.6178 2.94448 29.6808 2.99336C29.7687 3.0036 29.7275 3.01203 29.8065 2.95868L29.7956 2.85159L29.8176 2.849C29.9425 2.95139 30.1366 2.8576 30.2129 2.91776C30.18 2.95479 30.1862 2.96403 30.1502 2.96296C30.0099 2.95879 29.7769 3.06965 29.6608 3.02302C29.6134 3.0811 29.5464 3.19199 29.499 3.22188C29.3408 2.97133 29.1698 2.67241 28.9661 2.45891Z" fill="#C7C6C5" fill-opacity="0.0117647"/>
<path d="M27.8665 47.0513C28.1155 47.1244 28.5283 47.2069 28.788 47.2552C28.698 47.2777 28.691 47.2739 28.5957 47.2599L28.5704 47.2556C28.5205 47.2988 28.529 47.3672 28.5153 47.453C28.5039 47.4516 28.4925 47.4497 28.4811 47.4483L28.4359 47.4427C28.2448 47.4188 28.1707 47.5266 28.0182 47.4985C27.9866 47.4267 27.9721 47.3696 27.9097 47.3246C27.8392 47.3199 27.7968 47.3246 27.7386 47.2852C27.7129 47.2121 27.7151 47.1994 27.7086 47.1239C27.7508 47.1572 27.7413 47.1746 27.757 47.2421L27.7782 47.2378C27.8076 47.1713 27.8331 47.1164 27.8665 47.0513Z" fill="#8E8C90" fill-opacity="0.0117647"/>
<path d="M36.4521 16.8452C36.5127 16.8657 36.5729 16.8838 36.6341 16.905L36.6343 16.9412C36.5967 16.9873 36.5776 17.0147 36.5515 17.068C36.5152 17.0499 36.4888 17.051 36.4454 17.0283C36.5143 16.9767 36.4985 17.0092 36.5139 16.9387L36.4521 16.8452Z" fill="url(#paint5_linear_17851_28776)"/>
<path d="M2.39525 11.2088L2.31642 11.1562C2.28606 11.0901 2.2939 11.1262 2.31794 11.0401C2.39498 10.9684 2.35128 10.9896 2.45248 10.9712C2.44155 11.02 2.41132 11.1707 2.39525 11.2088Z" fill="#C7C6C5" fill-opacity="0.0156863"/>
<path d="M13.4092 26.9175L13.4479 26.9567C13.4565 27.0404 13.467 27.0051 13.4269 27.0688L13.4014 27.0563C13.4176 27.0274 13.4096 26.9583 13.4092 26.9175Z" fill="#020101" fill-opacity="0.0117647"/>
<defs>
<linearGradient id="paint0_linear_17851_28776" x1="24.2166" y1="30.6847" x2="24.2511" y2="28.0365" gradientUnits="userSpaceOnUse">
<stop/>
<stop offset="1" stop-color="#500505"/>
</linearGradient>
<linearGradient id="paint1_linear_17851_28776" x1="25.2938" y1="27.3714" x2="24.7864" y2="27.1422" gradientUnits="userSpaceOnUse">
<stop stop-color="#9A9B9B"/>
<stop offset="1" stop-color="#D3CDD0"/>
</linearGradient>
<linearGradient id="paint2_linear_17851_28776" x1="25.4982" y1="27.0159" x2="26.7196" y2="27.1198" gradientUnits="userSpaceOnUse">
<stop stop-color="#AAA9A4"/>
<stop offset="1" stop-color="#D3D4D6"/>
</linearGradient>
<linearGradient id="paint3_linear_17851_28776" x1="20.0438" y1="20.0149" x2="20.792" y2="18.7942" gradientUnits="userSpaceOnUse">
<stop stop-color="#F49872"/>
<stop offset="1" stop-color="#F4B17F"/>
</linearGradient>
<linearGradient id="paint4_linear_17851_28776" x1="11.3903" y1="23.9464" x2="13.5387" y2="23.6081" gradientUnits="userSpaceOnUse">
<stop stop-color="#E7895B"/>
<stop offset="1" stop-color="#F7B37E"/>
</linearGradient>
<linearGradient id="paint5_linear_17851_28776" x1="36.5963" y1="16.9965" x2="36.4645" y2="16.9317" gradientUnits="userSpaceOnUse">
<stop stop-opacity="0"/>
<stop offset="1" stop-color="#020002" stop-opacity="0.0313726"/>
</linearGradient>
</defs>
</svg>
