<svg width="120" height="100" fill="none" xmlns="http://www.w3.org/2000/svg"><path fill-rule="evenodd" clip-rule="evenodd" d="M8.158 22.164c.024-.267.456-.661.789-.808l-.055-.876s.958.214 2.757.552c2.675-.454 4.161-1.273 4.161-1.273v.017c.002.092.005.593.01 1.418l.004.566a232.093 232.093 0 0 0 7.116 1.043c.09.012.179.023.268.036.231 1.385.815 4.753 1.24 6.477.207.851.379 1.303.445.91.039-.225.1-.597.176-1.056v-.001l.021-.125c.26-1.588.671-4.128.922-5.68l.027-.172.4.05.52.062c.079 1.382.274 4.478.685 3.879.35-.511.735-2.487.943-3.696a292.939 292.939 0 0 0 29.647 1.71c2.663.02 5.323-.016 7.95-.088l.064.393c.047.289.097.595.153.914.82 4.66 1.212 4.167 3.173 1.703.361-.454.776-.974 1.256-1.542.059-.34.258-.683.443-.999.159-.273.306-.526.341-.74a304.31 304.31 0 0 0 27.76-2.642c1.753-.246 3.365-.487 4.814-.713l.011-1.707v-.017s1.246.688 3.515 1.152c3.004-.506 4.717-.847 4.717-.847v.003l-.102 1.243c.65-.013 1.267-.054 1.279-.162 2.009-.323 3.253-1.005 3.376-1.073.002 0 .004-.002.005-.003v.084l-3.918 60.454s.286 1.016-2.172 1.498c-.003-.567-.01-1.622-.027-2.818-.036-2.542-.118-5.72-.299-6.153-.182-.429-1.124 2.985-1.876 5.897-.096.375-.19.74-.278 1.09l-.072 1.174-.215-.037-.272 1.099c-.455.003-.946-.004-1.483-.026-.033-.371-.079-.875-.131-1.39l-1.038-.169a88.869 88.869 0 0 0-.383 1.454c-3.932-.42-3.932-1.92-3.932-1.92l.029-.205c-2.499-.38-5.511-.819-8.855-1.266-1.321-.18-2.696-.357-4.113-.538.152-1.569.277-3.531.29-4.904.017-1.127-.046-1.858-.23-1.661-.149.16-.435.816-.781 1.713-.485 1.268-1.091 3.024-1.609 4.564a462.453 462.453 0 0 0-4.854-.554c-.191-1.245-.455-2.8-.686-3.672-.102-.39-.2-.642-.283-.665-.092-.026-.191.249-.294.688-.187.842-.378 2.293-.497 3.463-7.165-.74-14.705-1.317-21.471-1.416-6.09-.085-12.339.315-18.162.93-.475-.86-1.048-1.847-1.407-2.28-.182-.222-.307-.3-.337-.153-.01.036-.02.085-.026.14-.076.469-.181 1.527-.264 2.52a229.204 229.204 0 0 0-12.56 1.831c-2.139.372-4.067.737-5.722 1.067l.055.398s0 1.746-4.947 2.002c-7.827.406-7.234-1.694-7.234-1.694L3.017 20.162v-.091c.049.03 1.308.747 3.384 1.077.014.144.034.33.059.546l.037.332c.224 1.99.682 5.688.969 5.187.257-.459.537-3.273.692-5.049Zm108.831-2.092.003-.001-.003-.007v.008Z" fill="#30FEFF" fill-opacity=".7"/><path d="M15.619 20.48s8.292 1.402 8.345 1.625c.052.223 1.067 6.569 1.736 7.578.673 1.009-1.357 2.018-1.357 2.018l-9.083-9.203.362-2.018h-.003Z" fill="#D6ECFF"/><path d="M26.043 23.192s.64-.645.768-.661c.128-.017.982.18.982.18s.412 3.532.8 4.19c.386.659-1.34.754-1.34.754l-1.207-4.463h-.003Z" fill="#B0DBFE"/><path d="M28.59 23.487s.64-.635.821-.648c.182-.014 12.105.992 19.814 1.13 7.708.137 18.136-.34 18.307-.033.171.308.827 7.935 2.511 10.398 1.687 2.464-2.547 3.968-2.547 3.968L28.59 23.49v-.004Z" fill="#E1F5FF"/><path d="M65.808 25.483s1.727-1.375 1.935-1.29c.208.085 1.382 6.139 1.375 6.25-.006.112-.73 2.137-.385 2.018-.327-.075-2.312-2.978-2.925-6.978Z" fill="#38A0B2"/><path d="M71.111 24.92s.91-1.364 1.193-1.338c.284.027 15.045-.796 23.459-1.873 8.413-1.078 13.007-2.31 13.007-2.31l-.309 3.335-37.35 2.182v.003Z" fill="#A6ECF5"/><path d="M37.354 77.016s.663-.301.83-.865c.169-.563.116-3.115.116-3.115l-2.323.206 1.374 3.777.003-.003ZM79.02 77.278s.64-.256.923-.793c.284-.537.646-4.36.646-4.36l-2-.55.432 5.706v-.003ZM85.63 78.015s1.125-.02 1.665-.966c.54-.95 2.324-6.235 2.324-6.235l-2.297-.976-1.691 8.177Z" fill="#FFC59F"/><path d="M37.354 77.016s.663-.301.83-.865c.169-.563.116-3.115.116-3.115l-2.323.206 1.374 3.777.003-.003Z" fill="#33476A"/><path d="M79.02 77.278s.64-.256.923-.793c.284-.537.646-4.36.646-4.36l-2-.55.432 5.706v-.003ZM85.63 78.015s1.125-.02 1.665-.966c.54-.95 2.324-6.235 2.324-6.235l-2.297-.976-1.691 8.177Z" fill="#186984"/><g filter="url(#a)"><path d="m116.775 20.48-1.29 18.552-1.291 21.935-1.764 20.327s-10.898-1.189-20.363-2.457c-1.322-.18-2.696-.357-4.113-.537.151-1.57.277-3.532.29-4.904.016-1.127-.046-1.858-.23-1.661-.15.16-.436.815-.782 1.713-.484 1.268-1.09 3.024-1.608 4.564a462.486 462.486 0 0 0-4.855-.554c-.19-1.245-.455-2.801-.685-3.672-.102-.39-.201-.643-.284-.665-.092-.027-.19.248-.293.687-.188.842-.379 2.294-.498 3.463-7.164-.74-14.705-1.317-21.47-1.415-6.09-.085-12.34.315-18.163.93-.474-.861-1.048-1.847-1.407-2.28-.181-.222-.306-.301-.336-.154a.989.989 0 0 0-.026.141c-.076.469-.182 1.527-.264 2.52a229.114 229.114 0 0 0-12.56 1.83c-7.28 1.266-17.685 2.451-17.685 2.451L3.227 20.48s10.71 1.13 19.41 2.283c.189.026.38.05.571.075.23 1.386.814 4.754 1.24 6.477.207.852.378 1.304.444.911.043-.246.112-.665.198-1.183.27-1.648.702-4.32.949-5.85.303.035.61.074.92.11.079 1.383.273 4.479.685 3.88.35-.512.735-2.487.943-3.696a292.936 292.936 0 0 0 29.647 1.71c2.663.02 5.322-.016 7.949-.088.066.396.135.838.217 1.307.971 5.519 1.343 3.81 4.43.16.537-1.29.7-1.681 0 0 .109-.632.708-1.276.784-1.738a304.272 304.272 0 0 0 27.759-2.642c7.989-1.123 13.057-2.133 13.057-2.133l4.345.417Z" fill="url(#b)"/></g><path style="mix-blend-mode:multiply" opacity=".5" d="M24.794 78.848c-7.28 1.264-12.108 2.45-12.108 2.45L8.893 20.48s5.045 1.13 13.746 2.284c-2.014 7.05-3.79 17.592-2.667 31.274 1.088 13.235 3.078 20.672 4.819 24.81h.003Z" fill="url(#c)"/><path style="mix-blend-mode:multiply" opacity=".5" d="m112.431 20.067-1.443 17.652-2.64 43.579s-6.816-1.192-16.28-2.46c2.49-5.966 6.083-16.673 7.46-31.232 1.019-10.749.594-19.31-.154-25.403 7.988-1.124 13.057-2.133 13.057-2.133v-.003Z" fill="url(#d)"/><path d="M3.01 20.067s.085-1.13 5.971-1.402c5.883-.275 6.832 1.094 6.832 1.094l-3.734 3.214-6.469-.154-2.597-2.755-.003.003Z" fill="#872316"/><path d="M14.042 98.992s-1.753.213-1.928-.344c-.175-.56.524-7.496.524-7.496l1.404 7.843v-.003Z" fill="#FC6212"/><path d="M15.034 88.613c.017.026.033.055.05.075a.32.32 0 0 1 .033.069c.016.026.026.05.032.069l.027.078v.007c.514 1.5 1.074 7.25 1.015 9.294-.007.017-.007.023-.003.036-.027.803-3.075.954-3.83.515-.099-.06-.161-.135-.168-.213-.08-1.176.498-9.223.695-9.717.238-.593 1.81-.58 2.146-.213h.003Z" fill="url(#e)"/><path d="M13.79 88.027c.703-.033 1.065.324 1.243.586.017.026.033.056.05.075.016.027.026.05.033.07.016.025.026.048.032.068l.027.079v.006c.514 1.5 1.074 7.25 1.015 9.295 0 0-.91-2.867-1.124-5.51-.22-2.651.02-3.706-.287-3.968-.306-.262-1.601-.305-1.891.098-.132.18-.224-.757.903-.803v.004Z" fill="#D42F55" style="mix-blend-mode:multiply" opacity=".8"/><path d="M14.408 98.478c-.04.144-1.582.435-1.753.006-.172-.43.141-9.31.527-9.556.385-.246 1.536 8.367 1.223 9.55h.003Z" fill="#fff" style="mix-blend-mode:soft-light" opacity=".5"/><path d="M13.771 91.643a34.16 34.16 0 0 0 5.188-.79 24.814 24.814 0 0 0 2.554-.71c.58-.197.926-.364.955-.446.136-.37.07-2.643.014-4.13-.03-.764-.06-1.314-.06-1.314l-1.694.055-.92.026L5.18 84.8s.6 5.241.745 5.5c.092.167 2.969 1.275 6.34 1.373h.007c.494.016.985.007 1.493-.026l.006-.004Z" fill="url(#f)"/><path d="M18.958 90.85c2.043-.468 3.45-.985 3.51-1.156.2-.553-.046-5.445-.046-5.445l-1.44.616c-1.737.36-4.206 1.13-4.36 2.11-.446 2.808.184 3.666.398 3.896.244.262.943.124 1.935-.02h.003Z" fill="#D42F55" style="mix-blend-mode:multiply" opacity=".8"/><path d="M14.704 86.228c4.76-.517 7.893-1.245 7.718-1.975-.131-.583-1.163-1.465-3.483-1.982-1.312-.295-3.032-.469-5.247-.403-.326.006-.665.023-1.011.046-6.859.419-7.38 2.29-7.498 2.883-.128.586 4.762 1.946 9.521 1.428v.003Z" fill="#FF7A00"/><path d="M21.88 84.226c.507-.432-2.677-2.526-7.713-1.92-5.035.603-5.368 2.847-4.986 3.123.382.275 9.84 1.238 12.698-1.203Z" fill="#fff" style="mix-blend-mode:soft-light" opacity=".5"/><path d="M10.416 86.89c-.132-.24-2.245-1.032-2.551-.511-.307.52-.109 4.252.188 4.432.293.18 2.162.538 2.22.233.06-.305.284-3.902.146-4.154h-.003Z" fill="#FF6500"/><path d="M5.664 85.212c-.059-.075 1.619.403 3.398.675 1.997.308 4.113.423 3.896.446-3.128.373-7.046-.81-7.297-1.124l.003.003Z" fill="#FFA457"/><path d="M21.515 90.143c.58-.196.927-.363.956-.445.135-.37.07-2.644.013-4.131-1.756-.02-4.508.213-4.739 1.857-.22 1.58 1.909 2.405 3.77 2.72Z" fill="#D42F55" style="mix-blend-mode:multiply" opacity=".5"/><path d="M17.976 83.453c-.079 2.274-8.977 2.195-9.013.138-.007-.377-.017-.78-.023-1.203 0-.298-.007-.609-.01-.933-.09-6.995-.112-19.224-.85-29.685-.594-8.413-2.245-24.378-3.016-31.635-.22-2.1-.372-3.472-.402-3.728v-.042l8.38-.557v.042c-.012.613-.138 7.555.113 17.537.128 5.295.217 11.464.798 17.957.411 4.623.909 9.075 1.413 13.12 1.025 8.267 2.07 14.825 2.459 17.597.109.763.168 1.242.161 1.389l-.01.003Z" fill="url(#g)"/><path d="m4.66 16.407 8.373-.557c-.01.613-.138 7.555.112 17.534-.81-5.71-1.964-11.774-2.976-11.81-1.394-.053-3.618-.79-5.104-1.442-.221-2.097-.37-3.47-.403-3.728l-.003.003Z" fill="#D42F55" style="mix-blend-mode:multiply" opacity=".8"/><path d="M7.183 1.012s-1.766.02-1.862.597c-.095.576 1.523 7.361 1.523 7.361l.34-7.958Z" fill="#FC6212"/><path d="M8.591 18.7a34.159 34.159 0 0 0 5.188-.79 24.788 24.788 0 0 0 2.554-.71c.58-.197.926-.364.955-.446.136-.37.07-2.644.014-4.131-.03-.763-.06-1.314-.06-1.314l-1.694.056-.92.026-14.625.462s.6 5.242.745 5.5c.092.168 2.97 1.275 6.34 1.373h.007c.494.017.985.007 1.493-.026h.003Z" fill="url(#h)"/><path d="M13.781 17.907c2.043-.468 3.45-.986 3.51-1.156.201-.554-.046-5.445-.046-5.445l-1.44.616c-1.737.36-4.205 1.13-4.36 2.11-.445 2.807.184 3.666.398 3.895.244.262.943.125 1.935-.02h.003Z" fill="#D42F55" style="mix-blend-mode:multiply" opacity=".8"/><path d="M9.527 13.281c4.759-.517 7.893-1.244 7.718-1.975-.132-.583-1.163-1.464-3.483-1.982-1.312-.295-3.032-.469-5.247-.403-.326.007-.666.023-1.012.046-6.858.422-7.379 2.293-7.5 2.886-.129.587 4.762 1.946 9.52 1.428h.004Z" fill="#FF7A00"/><path d="M13.762 9.324c-1.311-.295-3.032-.468-5.246-.403.125 1.01.392 2.15.913 2.254.596.128 2.807-.95 4.333-1.85Z" fill="#D42F55" style="mix-blend-mode:multiply" opacity=".5"/><path d="M16.701 11.283c.508-.432-2.676-2.526-7.711-1.92-5.036.603-5.369 2.847-4.987 3.122.383.276 9.841 1.239 12.698-1.202Z" fill="#fff" style="mix-blend-mode:soft-light" opacity=".5"/><path d="M9.55 11.168a.956.956 0 0 1 .04-.081.295.295 0 0 0 .022-.072.294.294 0 0 0 .023-.073l.017-.082v-.006c.31-1.556.096-7.329-.237-9.347-.007-.013-.01-.02-.01-.036-.132-.79-3.177-.537-3.866 0-.089.072-.142.154-.135.233.079 1.176 1.727 9.075 1.987 9.54.313.557 1.872.337 2.155-.072l.004-.004Z" fill="url(#i)"/><path d="M7.447 2.169c.877-.125 1.707-.357 1.97-.665a.066.066 0 0 1-.01-.036c-.13-.79-3.176-.537-3.865 0a.236.236 0 0 0-.04.177c.07.268.716.694 1.942.527l.003-.003ZM8.397 11.915c.699-.062 1.012-.465 1.154-.747a.959.959 0 0 1 .04-.082.295.295 0 0 0 .022-.072.294.294 0 0 0 .023-.072l.017-.082v-.006c.31-1.557.095-7.33-.237-9.347 0 0-.518 2.961-.38 5.612.136 2.657.515 3.67.244 3.97-.27.299-1.545.515-1.888.154-.155-.163-.122.78 1.002.675l.003-.003Z" fill="#D42F55" style="mix-blend-mode:multiply" opacity=".8"/><path d="M9.226 1.39c.027-.174-2.122-.77-2.867-.093-.745.679 2.785.662 2.867.092Z" fill="#D42F55" style="mix-blend-mode:multiply" opacity=".8"/><path d="M7.796 2.536c-.056-.138-1.624-.223-1.737.226-.112.449 1.203 8.148 1.619 8.341.415.193.59-7.437.118-8.567Z" fill="#fff" style="mix-blend-mode:soft-light" opacity=".5"/><path d="M5.796 1.95s.119.268.729.304c.464.03.662-.056.662-.056s-.082-.003-.685-.049c-.231-.016-.64-.255-.709-.2h.003Z" fill="#FFA457"/><path d="M5.239 13.947c-.132-.24-2.244-1.032-2.55-.511-.307.52-.11 4.252.187 4.432.293.18 2.162.537 2.221.233.06-.305.284-3.902.145-4.154H5.24Z" fill="#FF6500"/><path d="M.484 12.27c-.06-.076 1.618.402 3.398.674 1.997.308 4.112.423 3.895.449-3.128.373-7.046-.81-7.297-1.124h.004Z" fill="#FFA457"/><path d="M16.335 17.197c.58-.197.926-.364.956-.446.135-.37.069-2.644.013-4.131-1.757-.02-4.509.213-4.74 1.857-.22 1.58 1.909 2.405 3.77 2.72Z" fill="#D42F55" style="mix-blend-mode:multiply" opacity=".5"/><path d="M15.26 63.921c-.01-.095-.016-.154-.016-.183.01.049.027.187.046.406a1.538 1.538 0 0 1-.03-.223ZM19.658 82.45s-.02.01-.027.01c-1.704.207-1.19.718-1.16.925.027.206.076 1.746-5.032 2.001-5.112.256-5.085-1.694-5.524-2.208-.18-.216-.678-.177-1.2-.052.535-.272 1.253-.528 2.229-.74 0-.299-.007-.61-.01-.934.128.33.296.609.494.835 1.074 1.232 3.065.917 5.214-.134a.97.97 0 0 0 .336-.295c1.78-2.333.587-15.175.313-17.708.02.095.036.2.066.318 1.025 8.266 2.07 14.825 2.459 17.596a14.603 14.603 0 0 1 1.842.387Z" fill="#D42F55" style="mix-blend-mode:multiply" opacity=".8"/><path d="M17.692 68.92c-.788-6.968-1.622-15.682-1.674-21.763-.063-7.06-.125-15.574-.165-21.216-.026-3.541-.04-5.953-.043-6.165v-.017s-2.425 1.337-6.657 1.54c-.32.016-.966.537-.995.865-.155 1.775-.435 4.59-.692 5.048-.287.502-.745-3.197-.97-5.186-.039-.36-.075-.665-.095-.878-2.076-.33-3.335-1.048-3.384-1.078v.092l3.918 60.455s-.593 2.1 7.234 1.693c4.947-.255 4.947-2.001 4.947-2.001s-.692-4.947-1.42-11.385l-.004-.003Z" fill="url(#j)"/><path d="M7.413 21.119c-.01-.085-3.19-.544-3.131-1.163.02-.217.29-.413.702-.567-.023-.2-.04-.39-.063-.573-.754.258-1.766.69-1.895 1.17a.72.72 0 0 0-.016.081v.092c.079.603 1.259 1.517 3.477 1.864-.027-.223.306 5.084.906 5.235.033.01.023-6.057.013-6.14h.007Zm5.586-2.749v.659c.83.281 1.22.537 1.213.671-.017.272-1.661 1.127-4.904 1.317-.373.023-1.12.82-1.15 1.147.365.006.744 0 1.15-.027 4.287-.248 6.44-1.978 6.502-2.365v-.013c.013-.233-1.223-1.035-2.811-1.392v.003Z" fill="#D0E8FF"/><path d="M116.992 20.067s-.086-1.13-5.972-1.402-6.832 1.094-6.832 1.094l3.734 3.214 6.47-.154 2.597-2.755.003.003Z" fill="#872316"/><path d="M105.962 98.992s1.753.213 1.928-.344c.175-.56-.524-7.496-.524-7.496l-1.404 7.843v-.003Z" fill="#FC6212"/><path d="M104.97 88.613c-.017.026-.033.055-.05.075a.364.364 0 0 0-.033.069.364.364 0 0 0-.033.069l-.026.078v.007c-.514 1.5-1.074 7.25-1.015 9.294.007.017.007.023.003.036.027.803 3.075.954 3.83.515.099-.06.161-.135.168-.213.079-1.177-.498-9.223-.696-9.717-.237-.593-1.809-.58-2.145-.213h-.003Z" fill="url(#k)"/><path d="M106.212 88.027c-.702-.033-1.064.324-1.242.586-.017.026-.033.056-.05.075a.366.366 0 0 0-.033.07.366.366 0 0 0-.033.068 7.41 7.41 0 0 1-.026.079v.006c-.514 1.5-1.074 7.25-1.015 9.294 0 0 .91-2.866 1.124-5.51.221-2.65-.02-3.705.286-3.967.307-.262 1.602-.305 1.892.098.132.18.224-.757-.903-.803v.004Z" fill="#D42F55" style="mix-blend-mode:multiply" opacity=".8"/><path d="M105.596 98.477c.039.145 1.582.436 1.753.007.172-.43-.142-9.31-.527-9.556-.386-.246-1.539 8.367-1.223 9.55h-.003Z" fill="#fff" style="mix-blend-mode:soft-light" opacity=".5"/><path d="M106.233 91.644a34.176 34.176 0 0 1-5.188-.79 24.802 24.802 0 0 1-2.554-.71c-.58-.198-.926-.365-.955-.446-.136-.37-.07-2.644-.014-4.132.03-.763.06-1.313.06-1.313l1.694.055.919.026 14.629.466s-.599 5.242-.744 5.5c-.093.167-2.97 1.275-6.341 1.373h-.007c-.494.016-.985.007-1.493-.026l-.006-.003Z" fill="url(#l)"/><path d="M101.042 90.851c-2.043-.469-3.45-.986-3.51-1.156-.201-.554.046-5.445.046-5.445l1.44.615c1.737.36 4.205 1.13 4.36 2.11.445 2.808-.184 3.666-.398 3.896-.244.262-.943.124-1.935-.02h-.003Z" fill="#D42F55" style="mix-blend-mode:multiply" opacity=".8"/><path d="M105.296 86.228c-4.759-.517-7.893-1.245-7.719-1.975.132-.583 1.164-1.465 3.484-1.982 1.311-.295 3.032-.469 5.246-.403.327.006.666.023 1.012.046 6.858.419 7.379 2.29 7.498 2.883.128.586-4.763 1.946-9.521 1.428v.003Z" fill="#FF7A00"/><path d="M98.121 84.227c-.507-.433 2.676-2.526 7.712-1.92 5.036.602 5.369 2.847 4.986 3.122-.382.275-9.84 1.238-12.698-1.203Z" fill="#fff" style="mix-blend-mode:soft-light" opacity=".5"/><path d="M109.583 86.89c.132-.24 2.245-1.032 2.551-.511.307.52.109 4.252-.188 4.433-.293.18-2.162.537-2.221.232-.059-.304-.28-3.902-.145-4.154h.003Z" fill="#FF6500"/><path d="M114.34 85.213c.059-.076-1.618.403-3.398.675-1.997.307-4.113.422-3.895.445 3.127.374 7.046-.81 7.296-1.124l-.003.004Z" fill="#FFA457"/><path d="M98.487 90.143c-.58-.196-.926-.363-.955-.445-.135-.37-.07-2.644-.013-4.131 1.756-.02 4.508.213 4.739 1.857.22 1.58-1.909 2.405-3.77 2.72Z" fill="#D42F55" style="mix-blend-mode:multiply" opacity=".5"/><path d="M102.027 83.453c.079 2.274 8.977 2.195 9.013.138.007-.377.017-.78.024-1.203 0-.298.006-.609.009-.933.089-6.995.113-19.224.851-29.685.593-8.413 2.244-24.378 3.015-31.635.221-2.1.373-3.472.402-3.728v-.042l-8.38-.557v.042c.013.613.138 7.555-.113 17.537-.128 5.295-.217 11.464-.797 17.957-.412 4.623-.91 9.075-1.414 13.12-1.025 8.267-2.07 14.825-2.458 17.597-.109.763-.168 1.242-.162 1.389l.01.003Z" fill="url(#m)"/><path d="m115.342 16.407-8.374-.557c.009.613.138 7.555-.113 17.534.811-5.71 1.965-11.774 2.976-11.81 1.394-.053 3.619-.79 5.105-1.442.221-2.097.369-3.47.402-3.728l.004.003Z" fill="#D42F55" style="mix-blend-mode:multiply" opacity=".8"/><path d="M112.82 1.012s1.766.02 1.862.597c.095.576-1.523 7.361-1.523 7.361l-.343-7.958h.004Z" fill="#FC6212"/><path d="M111.41 18.7a34.176 34.176 0 0 1-5.188-.79 24.752 24.752 0 0 1-2.554-.71c-.58-.197-.926-.364-.956-.446-.135-.37-.069-2.644-.013-4.13.03-.764.06-1.315.06-1.315l1.693.056.92.026 14.629.466s-.6 5.241-.745 5.5c-.092.167-2.969 1.274-6.34 1.373h-.007c-.494.016-.985.006-1.493-.026l-.006-.004Z" fill="url(#n)"/><path d="M106.222 17.908c-2.043-.469-3.45-.986-3.509-1.157-.201-.553.046-5.445.046-5.445l1.44.616c1.737.36 4.205 1.13 4.36 2.11.445 2.808-.185 3.666-.399 3.895-.244.262-.942.125-1.934-.02h-.004Z" fill="#D42F55" style="mix-blend-mode:multiply" opacity=".8"/><path d="M110.476 13.282c-4.759-.518-7.893-1.245-7.718-1.976.132-.583 1.163-1.464 3.483-1.982 1.312-.295 3.032-.468 5.247-.403.326.007.666.023 1.012.046 6.858.42 7.379 2.29 7.497 2.883.129.587-4.762 1.946-9.521 1.429v.003Z" fill="#FF7A00"/><path d="M106.239 9.324c1.312-.295 3.032-.468 5.247-.403-.125 1.01-.392 2.15-.913 2.254-.597.128-2.808-.95-4.334-1.85Z" fill="#D42F55" style="mix-blend-mode:multiply" opacity=".5"/><path d="M103.302 11.283c-.508-.432 2.676-2.526 7.712-1.92 5.035.603 5.368 2.847 4.986 3.123-.382.275-9.841 1.238-12.698-1.203Z" fill="#fff" style="mix-blend-mode:soft-light" opacity=".5"/><path d="M110.451 11.168c-.014-.029-.027-.058-.04-.081a.288.288 0 0 1-.023-.072.288.288 0 0 1-.023-.073l-.017-.082v-.006c-.309-1.556-.095-7.329.238-9.347.006-.013.01-.02.01-.036.131-.79 3.177-.537 3.865 0 .089.072.142.154.135.233-.079 1.176-1.726 9.075-1.987 9.54-.313.557-1.872.337-2.155-.072l-.003-.004Z" fill="url(#o)"/><path d="M112.556 2.169c-.877-.125-1.707-.357-1.971-.665a.063.063 0 0 0 .01-.036c.132-.79 3.177-.537 3.866 0a.237.237 0 0 1 .039.177c-.069.268-.715.694-1.941.527l-.003-.003ZM111.604 11.915c-.699-.062-1.012-.465-1.153-.746-.014-.03-.027-.06-.04-.082a.288.288 0 0 1-.023-.072.288.288 0 0 1-.023-.073l-.017-.082v-.006c-.309-1.556-.095-7.329.238-9.347 0 0 .517 2.962.375 5.612-.135 2.657-.514 3.67-.243 3.97.27.299 1.545.515 1.888.155.155-.164.122.78-1.002.675v-.004Z" fill="#D42F55" style="mix-blend-mode:multiply" opacity=".8"/><path d="M110.773 1.39c-.027-.174 2.122-.77 2.867-.092.745.678-2.785.661-2.867.091Z" fill="#D42F55" style="mix-blend-mode:multiply" opacity=".8"/><path d="M112.207 2.536c.056-.138 1.625-.223 1.737.226.112.449-1.203 8.148-1.619 8.341-.415.193-.589-7.437-.118-8.567Z" fill="#fff" style="mix-blend-mode:soft-light" opacity=".5"/><path d="M114.207 1.95s-.118.268-.728.304c-.465.03-.663-.056-.663-.056s.083-.003.686-.049c.231-.016.639-.255.708-.2h-.003Z" fill="#FFA457"/><path d="M114.764 13.947c.132-.24 2.244-1.032 2.551-.511.306.52.109 4.252-.188 4.432-.293.18-2.162.538-2.221.233-.059-.305-.28-3.902-.145-4.154h.003Z" fill="#FF6500"/><path d="M119.521 12.27c.059-.076-1.619.402-3.398.674-1.997.308-4.113.423-3.896.449 3.128.373 7.046-.81 7.297-1.124h-.003Z" fill="#FFA457"/><path d="M103.668 17.197c-.58-.197-.926-.364-.956-.446-.135-.37-.069-2.644-.013-4.131 1.757-.02 4.509.213 4.739 1.857.221 1.58-1.908 2.405-3.77 2.72Z" fill="#D42F55" style="mix-blend-mode:multiply" opacity=".5"/><path d="M104.743 63.921c.009-.095.016-.154.016-.183-.01.049-.026.187-.046.406.016-.082.026-.157.03-.223ZM100.343 82.451s.02.01.026.01c1.704.206 1.19.717 1.16.924-.026.206-.079 1.746 5.033 2.001 5.111.256 5.085-1.693 5.523-2.208.181-.216.679-.177 1.2-.052-.534-.272-1.253-.528-2.228-.74 0-.299.006-.61.01-.934-.129.33-.297.61-.495.835-1.074 1.232-3.065.917-5.213-.134a.963.963 0 0 1-.336-.295c-1.78-2.333-.587-15.175-.314-17.708-.019.096-.036.2-.065.318-1.025 8.266-2.07 14.825-2.459 17.596a14.618 14.618 0 0 0-1.842.387Z" fill="#D42F55" style="mix-blend-mode:multiply" opacity=".8"/><path d="M104.825 82.228s.692-.14.847-.537c.155-.393.475-3.086.475-3.086l-.808-.42-.514 4.043ZM107.86 82.36s1.296-.682 1.424-1.17c.129-.488 1.78-8.07 1.78-8.07l-.851-1.591-2.353 10.827v.004Z" fill="#FFC59F"/><path d="M104.825 82.228s.692-.14.847-.537c.155-.393.475-3.086.475-3.086l-.808-.42-.514 4.043ZM107.86 82.36s1.296-.682 1.424-1.17c.129-.488 1.78-8.07 1.78-8.07l-.851-1.591-2.353 10.827v.004Z" fill="#DB6345"/><path d="M116.993 20.07c-.05.027-1.309.744-3.385 1.078-.023.213-2.435.167-2.752.151-4.235-.203-6.657-1.54-6.657-1.54v.017c0 .304-.033 4.986-.079 11.044v.006c-.036 5.072-.079 11.106-.129 16.335-.059 6.772-1.087 16.816-1.941 24.073-.623 5.275-1.156 9.075-1.156 9.075s0 1.5 3.931 1.92c.303-1.19.976-3.729 1.104-3.529.129.194.35 2.516.448 3.633.538.023 1.029.03 1.483.027.172-.701.485-1.96.838-3.326.751-2.912 1.694-6.326 1.875-5.897.181.433.263 3.61.3 6.153.016 1.196.023 2.25.026 2.817 2.459-.481 2.172-1.497 2.172-1.497l3.918-60.454v-.092l.004.006Z" fill="url(#p)"/><path d="M116.973 19.988c-.129-.481-1.14-.91-1.895-1.17-.023.18-.04.374-.063.574.412.154.682.35.702.567.053.55-2.458 1.038-3.022 1.123-4.34.636-6.891-1.11-6.904-1.379-.007-.13.385-.39 1.213-.671v-.659c-1.589.357-2.825 1.156-2.812 1.392v.014c.066.383 2.209 2.384 6.503 2.365 4.034-.02 6.209-1.376 6.291-1.979v-.092c0-.026-.01-.055-.016-.082l.003-.003Z" fill="#D4FAEF"/><path d="M91.787 73.124c-.323.065-1.585.164-3.54.275.017-1.127-.045-1.858-.23-1.66-.148.16-.435.815-.781 1.712-1.928.109-4.363.223-7.145.335-.102-.39-.201-.642-.283-.665-.093-.027-.192.249-.294.688-12.174.494-30.507.992-41.538.694-.18-.223-.306-.301-.336-.154-.01.036-.02.085-.026.141-4.835-.138-8.196-.436-8.905-.963-2.066-1.54-10.53-36.844-5.675-43.203.28-.367.758-.704 1.41-1.015.208.852.38 1.304.446.91.042-.245.112-.664.197-1.182 6.39-2.483 24.754-3.116 41.31-2.627 0 2.899.77 5.307 1.346 3.915.645.024 1.29.045 0 0 13.318.563 27.633-1.907 28.994-.308 3.408 4.003-2.478 42.586-4.956 43.1l.006.007Z" fill="#EF7A98" style="mix-blend-mode:multiply" opacity=".2"/><path d="M17.693 68.92c-1.404-4.386-2.887-10.283-3.293-16.528-.64-9.815.775-21.58 1.454-26.451.04 5.641.102 14.16.164 21.216.053 6.08.89 14.795 1.675 21.764Z" fill="#2C587A" style="mix-blend-mode:multiply" opacity=".2"/><path d="M105.241 52.53c-.623 8.44-2.024 14.694-3.197 18.7.854-7.256 1.882-17.297 1.941-24.072.046-5.232.089-11.264.129-16.335.906 5.19 1.773 12.927 1.127 21.708Z" fill="#EF7A98" style="mix-blend-mode:multiply" opacity=".2"/><path d="M8.065 79.965c-.494-.78-3.921-54.938-2.959-55.347.471-.2 3.816 10.611 5.161 13.887 1.032 2.513 5.48 40.313 5.092 41.047-.758 1.438-6.127 2.257-7.297.41l.003.003Z" fill="#83B3FF" style="mix-blend-mode:screen" opacity=".3"/><path d="M112.019 79.175c-.129-.046-.58.056-1.147.118-.036-2.542-.119-5.72-.3-6.153-.181-.432-1.124 2.985-1.875 5.897-.501-.272-.893-.756-1.012-1.602-.267-1.864-1.417-52.434-1.549-53.09-.277-1.365 7.432-1.231 9.083-.684 1.654.547-2.679 55.707-3.2 55.517v-.003Z" fill="#FF8390" style="mix-blend-mode:screen" opacity=".3"/><path d="M6.493 22.026s.738-1.025.92-.904c.18.121.075 6.087-.014 6.14-.089.052-.543-.164-.906-5.236Z" fill="#336FA7"/><path d="M23.209 22.839s.547-.82.755-.734c.207.085 1.272 6.133 1.265 6.244-.006.111-.197 2.064-.385 2.018-.327-.075-1.019-3.525-1.632-7.525l-.003-.003Z" fill="#3B5B90"/><path d="M26.963 23.304s.814-.72.83-.593c.165 1.294.455 2.759.432 2.778-.026.023-.422 1.91-.692 1.766-.379-.2-.58-3.682-.567-3.954l-.003.003Z" fill="#525C7D"/><path d="M6.777 55.934c-1.934-.34 1.447 25.554 3.302 23.91 1.859-1.642 5.112-22.422-3.302-23.91Z" fill="#83D4FF" style="mix-blend-mode:screen" opacity=".3"/><path d="M4.816 21.6c-.023.017 1.387.469 1.503.803.115.334.316 5.298 1.038 5.049.721-.25.689-4.145.689-4.145s-.419 4.066-.65 3.951c-.435-.213-.84-5.19-.906-5.235-.066-.046-1.651-.442-1.678-.423h.004Z" fill="#C60055" style="mix-blend-mode:multiply" opacity=".3"/><path opacity=".4" d="M8.3 22.105c-.178-.023.317-.957 1.005-1.085.69-.128 3.45-.504 3.659-.154.207.35-2.993 1.461-4.664 1.239ZM109.828 21.25c.356-.07 1.767.22 3.444-.154 1.678-.374 1.948-.859 2.373-.885.425-.026 1.137.089.982.36-.155.27-1.78 1.232-3.754 1.439-1.974.206-4.993-.384-3.045-.757v-.003Z" fill="#fff"/><path d="M28.828 23.487c-.112-.02.35-.642.58-.648.23-.007 5.774.347 5.902.55.129.206-.168.59-.31.59-.141 0-5.638-.397-6.175-.495l.003.003ZM71.563 24.782c-.178-.033.154-1.088.738-1.196.583-.108 8.601-.6 8.628-.197.026.403-1.635.845-2.617.967-.982.12-5.022.743-6.753.429l.004-.003Z" fill="#fff" fill-opacity=".5"/><path d="M19.074 22.236s3.266.809 3.677 1.579c.412.77 1.652 9.75 2.373 7.977.722-1.769.917-8.6.917-8.6s-1.006 6.857-1.14 6.848c-.696-.043-1.247-6.857-1.695-7.201-.448-.344-4.136-.603-4.136-.603h.004Z" fill="#4C569E" style="mix-blend-mode:multiply" opacity=".3"/><path d="M26.152 23.2c.014.019.425.133.534.602.109.468.122 5.157.844 4.655.722-.501 1.058-4.97 1.058-4.97s-.663 3.752-.992 3.585c-.33-.168-.475-3.729-.633-3.771-.158-.043-.81-.105-.81-.105v.003Z" fill="#337C9D" style="mix-blend-mode:multiply" opacity=".3"/><path d="M30.585 77.907s6.17-.822 6.374-1.284c.207-.462.23-2.772.685-2.657.452.115 1.744 2.82 1.744 2.82s-1.506-2.836-1.688-2.414c-.178.423-.194 2.608-.346 2.64-.151.034-6.769.892-6.769.892v.003ZM73.207 76.698s4.957.479 5.247-.032c.29-.511.55-4.705 1.325-4.397.774.308 1.001 5.193 1.001 5.193s-.656-4.295-.965-4.151c-.564.265-.485 3.964-.794 3.967-.31.004-5.814-.58-5.814-.58ZM82.6 77.651s2.244-.026 2.491-.383c.244-.36 2.297-7.44 3.134-6.49.84.95-.267 7.525-.267 7.525s.412-6.359.112-6.244c-.3.115-2.27 5.848-2.438 5.956-.169.111-3.032-.364-3.032-.364Z" fill="#C60055" style="mix-blend-mode:multiply" opacity=".3"/><path d="M29.332 55.934c.06.6-.847 3.39-1.842 5.49-.705 1.498-1.453 2.645-1.924 2.412-.475-.236-1.045-.743-1.576-1.415-1.157-1.455-2.135-3.666-1.569-5.458.824-2.618 6.813-2.054 6.915-1.029h-.004Z" fill="#A3959B" style="mix-blend-mode:multiply" opacity=".2"/><path d="M31.014 53.886c-.132.384-.386.77-.778 1.124-.25.226-.692-.078-1.075-.586-.682-.904-1.176-2.464-.085-2.824 1.334-.443 2.415.897 1.938 2.286Z" fill="#9F9F9F" style="mix-blend-mode:multiply" opacity=".2"/><path d="M31.165 63.735c-.518.298.646 3.335.695 2.077.053-1.258-.026-2.464-.695-2.077ZM72.587 40.438c-.708.704.827 5.235 2.324 2.82 1.496-2.41-1.704-3.436-2.324-2.82Z" fill="#7C7C7C" style="mix-blend-mode:multiply" opacity=".2"/><path d="M73.464 36.848c-1.097.272-.155 2.257.412 1.746.567-.511.827-2.051-.412-1.746Z" fill="#C60055" style="mix-blend-mode:multiply" opacity=".2"/><path d="M92.37 54.447c-1.255-.305-2.65 3.388-.207 3.181 2.442-.206 1.892-2.771.208-3.18Z" fill="#7C7C7C" style="mix-blend-mode:multiply" opacity=".2"/><path d="M108.833 67.341c-.182 1.062-.518 2.032-1.048 2.703-.195.246-.541.18-.933-.091-.969-.692-2.178-2.723-1.783-4.63.547-2.666 2.132-5.163 3.058-4.514.669.468 1.177 3.803.702 6.532h.004Z" fill="#1E4C48" style="mix-blend-mode:multiply" opacity=".2"/><path d="M10.56 28.447c-1.057-.068-1.03 2.65-.362 2.55.672-.102 1.137-2.497.363-2.55ZM10.854 27.045c-.454.534.877 1.285.93.718.052-.564-.363-1.386-.93-.718Z" fill="#C60055" style="mix-blend-mode:multiply" opacity=".2"/><path d="M29.332 55.934c.06.6-.847 3.39-1.842 5.49-.284-.854 1.348-4.648 1.223-5.385-.136-.803-2.614-1.029-5.112.05-2.495 1.077.445 6.276.445 6.276s-.023.026-.063.056c-1.156-1.455-2.135-3.666-1.568-5.458.823-2.618 6.812-2.054 6.914-1.029h.003Z" fill="#9C9C9C" style="mix-blend-mode:multiply" opacity=".2"/><path d="M31.014 53.886a.724.724 0 0 1-.037-.183c-.062-.544-.277-1.87-1.654-1.923-1.374-.05-.102 2.591-.102 2.591s-.023.026-.06.053c-.682-.904-1.176-2.464-.085-2.824 1.334-.443 2.415.897 1.938 2.286Z" fill="#909090" style="mix-blend-mode:multiply" opacity=".2"/><path d="M108.832 67.342h-.013c-.517-.02-.396-5.868-1.206-6.123-.808-.256-2.067 2.496-2.254 4.6-.188 2.106 1.427 3.849 1.565 3.953.076.056.026.135-.076.18-.969-.69-2.178-2.722-1.783-4.629.547-2.666 2.133-5.163 3.059-4.514.669.468 1.176 3.803.702 6.533h.006Z" fill="#507693" style="mix-blend-mode:multiply" opacity=".2"/><defs><linearGradient id="b" x1="-6.11" y1="50.682" x2="141.494" y2="50.682" gradientUnits="userSpaceOnUse"><stop stop-color="#49A2E6"/><stop offset="1" stop-color="#45E4CA"/></linearGradient><linearGradient id="c" x1="24.705" y1="92.254" x2="9.572" y2="4.8" gradientUnits="userSpaceOnUse"><stop stop-color="#C60055"/><stop offset="1" stop-color="#fff"/></linearGradient><linearGradient id="d" x1="110.028" y1="93.868" x2="95.098" y2="7.585" gradientUnits="userSpaceOnUse"><stop stop-color="#C60055"/><stop offset="1" stop-color="#fff"/></linearGradient><linearGradient id="e" x1="16.104" y1="93.587" x2="10.508" y2="93.817" gradientUnits="userSpaceOnUse"><stop stop-color="#A71100"/><stop offset=".39" stop-color="#D83303"/><stop offset="1" stop-color="#EC5C11"/></linearGradient><linearGradient id="f" x1="24.272" y1="88.382" x2="2.574" y2="87.065" gradientUnits="userSpaceOnUse"><stop stop-color="#A71100"/><stop offset=".39" stop-color="#D83303"/><stop offset="1" stop-color="#EC5C11"/></linearGradient><linearGradient id="g" x1="4.659" y1="50.479" x2="17.976" y2="50.479" gradientUnits="userSpaceOnUse"><stop stop-color="#A71100"/><stop offset=".39" stop-color="#D83303"/><stop offset="1" stop-color="#EC5C11"/></linearGradient><linearGradient id="h" x1="19.1" y1="15.433" x2="-2.598" y2="14.116" gradientUnits="userSpaceOnUse"><stop stop-color="#A71100"/><stop offset=".39" stop-color="#D83303"/><stop offset="1" stop-color="#EC5C11"/></linearGradient><linearGradient id="i" x1="9.947" y1="6.088" x2="4.37" y2="6.606" gradientUnits="userSpaceOnUse"><stop stop-color="#A71100"/><stop offset=".39" stop-color="#D83303"/><stop offset="1" stop-color="#EC5C11"/></linearGradient><linearGradient id="j" x1="19.122" y1="51.046" x2="-3.835" y2="51.109" gradientUnits="userSpaceOnUse"><stop stop-color="#74BCFF"/><stop offset="1" stop-color="#166EA9"/></linearGradient><linearGradient id="k" x1="103.891" y1="93.596" x2="109.487" y2="93.829" gradientUnits="userSpaceOnUse"><stop stop-color="#A71100"/><stop offset=".39" stop-color="#D83303"/><stop offset="1" stop-color="#EC5C11"/></linearGradient><linearGradient id="l" x1="95.72" y1="88.394" x2="117.418" y2="87.074" gradientUnits="userSpaceOnUse"><stop stop-color="#A71100"/><stop offset=".39" stop-color="#D83303"/><stop offset="1" stop-color="#EC5C11"/></linearGradient><linearGradient id="m" x1="115.348" y1=".967" x2="102.027" y2=".967" gradientUnits="userSpaceOnUse"><stop stop-color="#A71100"/><stop offset=".39" stop-color="#D83303"/><stop offset="1" stop-color="#EC5C11"/></linearGradient><linearGradient id="n" x1="100.895" y1="15.445" x2="122.593" y2="14.125" gradientUnits="userSpaceOnUse"><stop stop-color="#A71100"/><stop offset=".39" stop-color="#D83303"/><stop offset="1" stop-color="#EC5C11"/></linearGradient><linearGradient id="o" x1="110.048" y1="6.101" x2="115.625" y2="6.618" gradientUnits="userSpaceOnUse"><stop stop-color="#A71100"/><stop offset=".39" stop-color="#D83303"/><stop offset="1" stop-color="#EC5C11"/></linearGradient><linearGradient id="p" x1="100.89" y1="51.036" x2="123.848" y2="51.099" gradientUnits="userSpaceOnUse"><stop stop-color="#57DFE3"/><stop offset="1" stop-color="#1FB393"/></linearGradient><filter id="a" x="3.227" y="20.064" width="113.548" height="61.231" filterUnits="userSpaceOnUse" color-interpolation-filters="sRGB"><feFlood flood-opacity="0" result="BackgroundImageFix"/><feColorMatrix in="SourceAlpha" values="0 0 0 0 0 0 0 0 0 0 0 0 0 0 0 0 0 0 127 0" result="hardAlpha"/><feMorphology radius="77.419" in="SourceAlpha" result="effect1_dropShadow_33_149286"/><feOffset dy="2.581"/><feGaussianBlur stdDeviation="2.581"/><feComposite in2="hardAlpha" operator="out"/><feColorMatrix values="0 0 0 0 0 0 0 0 0 0 0 0 0 0 0 0 0 0 0.6 0"/><feBlend in2="BackgroundImageFix" result="effect1_dropShadow_33_149286"/><feBlend in="SourceGraphic" in2="effect1_dropShadow_33_149286" result="shape"/></filter></defs></svg>
